{
familyName = Bronova;
customParameters = (
{
name = glyphOrder;
value = (
NULL,
CR,
space,
A,
B,
C,
D,
E,
F,
G,
H,
I,
J,
K,
L,
M,
N,
O,
P,
Q,
R,
S,
T,
U,
V,
W,
X,
Y,
Z,
a,
b,
c,
d,
e,
f,
g,
h,
i,
j,
k,
l,
m,
n,
o,
p,
q,
r,
s,
t,
u,
v,
w,
x,
y,
z,
zero,
one,
two,
three,
four,
five,
six,
seven,
eight,
nine,
period,
comma,
hyphen,
plus,
asterisk,
asciicircum,
tilde,
slash,
backslash,
colon,
semicolon,
less,
at,
equal,
greater,
exclam,
question,
quotesingle,
quotedbl,
numbersign,
dollar,
Euro,
percent,
ampersand,
parenleft,
parenright,
braceleft,
braceright,
bar,
bracketleft,
bracketright,
quoteleft,
quoteright,
quotedblleft,
quotedblright,
quotesinglbase,
quotedblbase,
bullet,
underscore,
endash,
emdash,
macron,
logicalnot,
trademark,
registered,
copyright,
currency,
cent,
sterling,
yen,
minus,
plusminus,
multiply,
divide,
brokenbar,
ellipsis,
periodcentered,
exclamdown,
questiondown,
degree,
ordfeminine,
ordmasculine,
onesuperior,
twosuperior,
threesuperior,
uni2074,
fraction,
onequarter,
onehalf,
threequarters,
Agrave,
Aacute,
Acircumflex,
Atilde,
Adieresis,
Aring,
AE,
Ccedilla,
Egrave,
Eacute,
Ecircumflex,
Edieresis,
Igrave,
Iacute,
Icircumflex,
Idieresis,
Eth,
Ntilde,
Ograve,
Oacute,
Ocircumflex,
Otilde,
Odieresis,
Oslash,
Ugrave,
Uacute,
Ucircumflex,
Udieresis,
Yacute,
Thorn,
germandbls,
agrave,
aacute,
acircumflex,
atilde,
adieresis,
aring,
ae,
ccedilla,
egrave,
eacute,
ecircumflex,
edieresis,
igrave,
iacute,
icircumflex,
idieresis,
eth,
ntilde,
ograve,
oacute,
ocircumflex,
otilde,
odieresis,
oslash,
ugrave,
uacute,
ucircumflex,
udieresis,
yacute,
thorn,
ydieresis,
circumflex,
caron,
ogonek,
mu,
paragraph,
section,
guillemotleft,
guillemotright,
guilsinglleft,
guilsinglright,
dotlessi,
grave,
acute,
hungarumlaut,
ring,
oe,
dieresis,
cedilla,
OE,
asciitilde,
uni02BB,
uni02BC,
minute,
second,
arrowup,
arrowdown,
uni2215,
uniFFFD,
uni00A0,
uni2002,
uni200B,
uni2009,
uniFEFF
);
}
);
fontMaster = (
{
ascender = 750;
capHeight = 700;
customParameters = (
{

glyphs = (
{
glyphname = A;
layers = (
{
layerId = "8f7a17a9-cad9-4f2d-97d0-d99f506acba0";
paths = (
{
closed = 1;
nodes = (
"642.766 -0. LINE",
"721.897 -0. LINE",
"394.009 700.36 LINE",
"332.888 700.36 LINE",
"5. -0. LINE",
"84.13 -0. LINE",
"161.37 167.663 LINE",
"565.526 167.663 LINE"
);
},
{
closed = 1;
nodes = (
"190.76 231.461 LINE",
"363.448 606.31 LINE",
"536.136 231.461 LINE"
);
}
);
width = 727;
}
);
unicode = 0041;
},
{
glyphname = B;
layers = (
{
layerId = "8f7a17a9-cad9-4f2d-97d0-d99f506acba0";
paths = (
{
closed = 1;
nodes = (
"598.516 405.934 OFFCURVE",
"633.852 451.266 OFFCURVE",
"633.852 518.651 CURVE SMOOTH",
"633.852 681.854 OFFCURVE",
"506.471 700. OFFCURVE",
"387.172 700. CURVE SMOOTH",
"78. 700. LINE",
"78. -0.36 LINE",
"409.664 -0.36 LINE SMOOTH",
"528.222 -0.36 OFFCURVE",
"672.518 25.17 OFFCURVE",
"672.518 195.164 CURVE SMOOTH",
"672.518 302.048 OFFCURVE",
"622.59 355.756 OFFCURVE",
"548.29 379.887 CURVE"
);
},
{
closed = 1;
nodes = (
"153.153 636.203 LINE",
"390.1 636.203 LINE SMOOTH",
"446.41 636.203 OFFCURVE",
"560.421 638.299 OFFCURVE",
"560.421 517.937 CURVE SMOOTH",
"560.421 397.576 OFFCURVE",
"453.048 401.151 OFFCURVE",
"395.956 401.151 CURVE SMOOTH",
"153.153 401.151 LINE"
);
},
{
closed = 1;
nodes = (
"153.153 63.441 LINE",
"153.153 337.544 LINE",
"399.372 337.158 LINE",
"489.07 337.158 OFFCURVE",
"599.089 337.452 OFFCURVE",
"599.089 197.371 CURVE SMOOTH",
"599.089 57.289 OFFCURVE",
"460.357 63.441 OFFCURVE",
"384.732 63.441 CURVE SMOOTH"
);
}
);
width = 719;
}
);
unicode = 0042;
},
{
glyphname = C;
layers = (
{
layerId = "8f7a17a9-cad9-4f2d-97d0-d99f506acba0";
paths = (
{
closed = 1;
nodes = (
"173.136 -4.157 OFFCURVE",
"46.8 125.139 OFFCURVE",
"46.8 350.581 CURVE SMOOTH",
"46.8 576.021 OFFCURVE",
"173.136 705.318 OFFCURVE",
"393.414 705.318 CURVE SMOOTH",
"569.098 705.318 OFFCURVE",
"682.277 627.822 OFFCURVE",
"722.093 480.823 CURVE",
"648.558 480.823 LINE",
"613.006 587.579 OFFCURVE",
"527.759 641.674 OFFCURVE",
"394.954 641.674 CURVE SMOOTH",
"216.777 641.674 OFFCURVE",
"118.648 538.295 OFFCURVE",
"118.648 350.581 CURVE SMOOTH",
"118.648 162.865 OFFCURVE",
"216.777 59.486 OFFCURVE",
"394.954 59.486 CURVE SMOOTH",
"527.763 59.486 OFFCURVE",
"613.011 113.582 OFFCURVE",
"648.558 220.338 CURVE",
"722.093 220.338 LINE",
"682.277 73.339 OFFCURVE",
"569.098 -4.157 OFFCURVE",
"393.414 -4.157 CURVE SMOOTH"
);
}
);
width = 769;
}
);
unicode = 0043;
},
{
glyphname = D;
layers = (
{
layerId = "8f7a17a9-cad9-4f2d-97d0-d99f506acba0";
paths = (
{
closed = 1;
nodes = (
"78. 700.181 LINE",
"78. 0. LINE",
"367.076 0. LINE SMOOTH",
"584.467 0. OFFCURVE",
"709.148 127.602 OFFCURVE",
"709.148 350.091 CURVE SMOOTH",
"709.148 572.578 OFFCURVE",
"584.467 700.181 OFFCURVE",
"367.076 700.181 CURVE SMOOTH"
);
},
{
closed = 1;
nodes = (
"153.153 63.582 LINE",
"153.153 636.386 LINE",
"365.556 636.386 LINE",
"541.399 637.371 OFFCURVE",
"638.241 535.346 OFFCURVE",
"638.241 350.091 CURVE SMOOTH",
"638.241 164.835 OFFCURVE",
"541.399 63.582 OFFCURVE",
"365.556 63.582 CURVE SMOOTH"
);
}
);
width = 756;
}
);
unicode = 0044;
},
{
glyphname = E;
layers = (
{
layerId = "8f7a17a9-cad9-4f2d-97d0-d99f506acba0";
paths = (
{
closed = 1;
nodes = (
"153.153 63.897 LINE",
"153.153 318.29 LINE",
"553.034 318.29 LINE",
"553.034 382.088 LINE",
"153.153 382.088 LINE",
"153.153 636.482 LINE",
"567.675 636.482 LINE",
"567.675 700.279 LINE",
"78. 700.279 LINE",
"78. 0.099 LINE",
"582.316 0.099 LINE",
"582.316 63.897 LINE"
);
}
);
width = 614;
}
);
unicode = 0045;
},
{
glyphname = F;
layers = (
{
layerId = "8f7a17a9-cad9-4f2d-97d0-d99f506acba0";
paths = (
{
closed = 1;
nodes = (
"567.675 636.384 LINE",
"567.675 700.181 LINE",
"78. 700.181 LINE",
"78. -0. LINE",
"153.153 -0. LINE",
"153.153 318.192 LINE",
"553.034 318.192 LINE",
"553.034 381.989 LINE",
"153.153 381.989 LINE",
"153.153 636.384 LINE"
);
}
);
width = 630;
}
);
unicode = 0046;
},
{
glyphname = G;
layers = (
{
layerId = "8f7a17a9-cad9-4f2d-97d0-d99f506acba0";
paths = (
{
closed = 1;
nodes = (
"654.855 480.839 LINE",
"599.983 654.324 OFFCURVE",
"401.61 641.814 OFFCURVE",
"401.61 641.814 CURVE",
"221.799 641.814 OFFCURVE",
"122.771 538.365 OFFCURVE",
"122.771 350.524 CURVE SMOOTH",
"122.771 162.689 OFFCURVE",
"221.799 59.523 OFFCURVE",
"401.61 59.24 CURVE SMOOTH",
"568.709 58.977 OFFCURVE",
"671.629 153.367 OFFCURVE",
"677.509 297.276 CURVE",
"401.608 297.276 LINE",
"401.608 361.073 LINE",
"750.667 361.073 LINE",
"754.649 328.503 OFFCURVE",
"756.354 238.661 OFFCURVE",
"711.502 154.773 CURVE SMOOTH",
"655.33 52.508 OFFCURVE",
"548.326 -4.283 OFFCURVE",
"401.608 -4.283 CURVE SMOOTH",
"178.272 -4.283 OFFCURVE",
"46.8 127.188 OFFCURVE",
"46.8 350.525 CURVE SMOOTH",
"46.8 573.864 OFFCURVE",
"178.272 705.335 OFFCURVE",
"401.608 705.335 CURVE",
"401.608 705.335 OFFCURVE",
"677.315 711.186 OFFCURVE",
"725.222 480.839 CURVE"
);
}
);
width = 799;
}
);
unicode = 0047;
},
{
glyphname = H;
layers = (
{
layerId = "8f7a17a9-cad9-4f2d-97d0-d99f506acba0";
paths = (
{
closed = 1;
nodes = (
"612.506 700. LINE",
"612.506 381.808 LINE",
"162.253 381.808 LINE",
"162.253 700. LINE",
"87.1 700. LINE",
"87.1 -0.181 LINE",
"162.253 -0.181 LINE",
"162.253 318.011 LINE",
"612.506 318.011 LINE",
"612.506 -0.181 LINE",
"687.659 -0.181 LINE",
"687.659 700. LINE"
);
}
);
width = 775;
}
);
unicode = 0048;
},
{
glyphname = I;
layers = (
{
layerId = "8f7a17a9-cad9-4f2d-97d0-d99f506acba0";
paths = (
{
closed = 1;
nodes = (
"109.2 700.18 LINE",
"109.2 0. LINE",
"184.354 0. LINE",
"184.354 700.18 LINE"
);
}
);
width = 294;
}
);
unicode = 0049;
},
{
glyphname = J;
layers = (
{
layerId = "8f7a17a9-cad9-4f2d-97d0-d99f506acba0";
paths = (
{
closed = 1;
nodes = (
"375.44 242.27 LINE",
"375.44 222.723 OFFCURVE",
"383.987 72.535 OFFCURVE",
"262.018 17.948 CURVE SMOOTH",
"135.217 -38.802 OFFCURVE",
"23.196 25.909 OFFCURVE",
"5. 46.379 CURVE",
"43.666 103.241 LINE",
"43.666 103.241 OFFCURVE",
"94.842 48.654 OFFCURVE",
"200.607 72.535 CURVE SMOOTH",
"306.37 96.418 OFFCURVE",
"300.287 238.574 OFFCURVE",
"300.287 259.044 CURVE",
"300.998 700.074 LINE",
"376.151 700.074 LINE"
);
}
);
width = 454;
}
);
unicode = 004A;
},
{
glyphname = K;
layers = (
{
layerId = "8f7a17a9-cad9-4f2d-97d0-d99f506acba0";
paths = (
{
closed = 1;
nodes = (
"585.439 -0.179 LINE",
"680.444 -0.179 LINE",
"351.451 394.264 LINE",
"645.961 700.181 LINE",
"549.954 700.181 LINE",
"153.154 284.786 LINE",
"153.154 700.181 LINE",
"78. 700.181 LINE",
"78. -0. LINE",
"153.154 -0. LINE",
"153.154 188.286 LINE",
"301.237 342.105 LINE"
);
}
);
width = 712;
}
);
unicode = 004B;
},
{
glyphname = L;
layers = (
{
layerId = "8f7a17a9-cad9-4f2d-97d0-d99f506acba0";
paths = (
{
closed = 1;
nodes = (
"153.152 63.603 LINE",
"153.152 699.986 LINE",
"78. 699.986 LINE",
"78. -0.195 LINE",
"561.033 -0.195 LINE",
"561.033 63.603 LINE"
);
}
);
width = 561;
}
);
unicode = 004C;
},
{
glyphname = M;
layers = (
{
layerId = "8f7a17a9-cad9-4f2d-97d0-d99f506acba0";
paths = (
{
closed = 1;
nodes = (
"762.186 700.358 LINE",
"465.241 118.848 LINE",
"168.291 700.358 LINE",
"87.1 700.358 LINE",
"87.1 -0. LINE",
"162.25 -0. LINE",
"162.25 553.669 LINE",
"447.442 -0. LINE",
"483.033 -0. LINE",
"768.227 553.669 LINE",
"768.227 -0. LINE",
"843.377 -0. LINE",
"843.377 700.358 LINE"
);
}
);
width = 930;
}
);
unicode = 004D;
},
{
glyphname = N;
layers = (
{
layerId = "8f7a17a9-cad9-4f2d-97d0-d99f506acba0";
paths = (
{
closed = 1;
nodes = (
"614.782 700.359 LINE",
"614.782 127.536 LINE",
"147.087 700.359 LINE",
"87.1 700.359 LINE",
"87.1 0. LINE",
"162.255 0. LINE",
"162.255 572.823 LINE",
"629.95 0. LINE",
"689.937 0. LINE",
"689.937 700.359 LINE"
);
}
);
width = 777;
}
);
unicode = 004E;
},
{
glyphname = O;
layers = (
{
layerId = "8f7a17a9-cad9-4f2d-97d0-d99f506acba0";
paths = (
{
closed = 1;
nodes = (
"178.273 704.553 OFFCURVE",
"46.8 573.082 OFFCURVE",
"46.8 349.743 CURVE SMOOTH",
"46.8 126.406 OFFCURVE",
"178.273 -5.065 OFFCURVE",
"401.609 -5.065 CURVE SMOOTH",
"624.948 -5.065 OFFCURVE",
"756.418 126.406 OFFCURVE",
"756.418 349.743 CURVE SMOOTH",
"756.418 573.082 OFFCURVE",
"624.948 704.553 OFFCURVE",
"401.609 704.553 CURVE SMOOTH"
);
},
{
closed = 1;
nodes = (
"221.8 58.458 OFFCURVE",
"122.772 161.908 OFFCURVE",
"122.772 349.742 CURVE SMOOTH",
"122.772 537.583 OFFCURVE",
"221.8 641.033 OFFCURVE",
"401.611 641.033 CURVE SMOOTH",
"581.416 641.033 OFFCURVE",
"680.443 537.583 OFFCURVE",
"680.443 349.742 CURVE SMOOTH",
"680.443 161.908 OFFCURVE",
"581.416 58.458 OFFCURVE",
"401.611 58.458 CURVE SMOOTH"
);
}
);
width = 803;
}
);
unicode = 004F;
},
{
glyphname = P;
layers = (
{
layerId = "8f7a17a9-cad9-4f2d-97d0-d99f506acba0";
paths = (
{
closed = 1;
nodes = (
"78. 700.181 LINE",
"78. -0. LINE",
"153.154 -0. LINE",
"153.154 266.109 LINE",
"368.393 266.109 LINE SMOOTH",
"503.13 266.109 OFFCURVE",
"631.292 308.947 OFFCURVE",
"631.292 482.725 CURVE SMOOTH",
"631.292 656.503 OFFCURVE",
"503.13 700.235 OFFCURVE",
"368.393 700.235 CURVE"
);
},
{
closed = 1;
nodes = (
"153.154 329.631 LINE",
"153.154 635.818 LINE",
"364.002 635.818 LINE SMOOTH",
"453.698 635.818 OFFCURVE",
"554.932 615.446 OFFCURVE",
"554.932 482.725 CURVE SMOOTH",
"554.932 350.003 OFFCURVE",
"453.698 329.631 OFFCURVE",
"364.002 329.631 CURVE SMOOTH"
);
}
);
width = 678;
}
);
unicode = 0050;
},
{
glyphname = Q;
layers = (
{
layerId = "8f7a17a9-cad9-4f2d-97d0-d99f506acba0";
paths = (
{
closed = 1;
nodes = (
"730.337 169.97 OFFCURVE",
"756.417 251.087 OFFCURVE",
"756.417 350.445 CURVE SMOOTH",
"756.417 573.784 OFFCURVE",
"624.946 705.255 OFFCURVE",
"401.609 705.255 CURVE SMOOTH",
"178.273 705.255 OFFCURVE",
"46.8 573.784 OFFCURVE",
"46.8 350.445 CURVE SMOOTH",
"46.8 127.108 OFFCURVE",
"178.273 -4.363 OFFCURVE",
"401.609 -4.363 CURVE SMOOTH",
"497.637 -4.363 OFFCURVE",
"576.626 20.005 OFFCURVE",
"635.538 65.467 CURVE",
"662.915 36.676 OFFCURVE",
"699.149 -0.404 OFFCURVE",
"774.71 -0.404 CURVE",
"774.71 64.612 LINE",
"758.703 64.612 OFFCURVE",
"728.97 59.4 OFFCURVE",
"681.784 110.462 CURVE"
);
},
{
closed = 1;
nodes = (
"122.772 538.285 OFFCURVE",
"221.8 641.734 OFFCURVE",
"401.61 641.734 CURVE SMOOTH",
"581.415 641.734 OFFCURVE",
"680.443 538.285 OFFCURVE",
"680.443 350.444 CURVE SMOOTH",
"680.443 275.734 OFFCURVE",
"664.723 214.426 OFFCURVE",
"634.538 167.615 CURVE",
"538.455 285.91 LINE",
"451.932 285.91 LINE",
"591.145 118.234 LINE",
"544.803 79.424 OFFCURVE",
"481.122 59.16 OFFCURVE",
"401.61 59.16 CURVE SMOOTH",
"221.8 59.16 OFFCURVE",
"122.772 162.609 OFFCURVE",
"122.772 350.444 CURVE SMOOTH"
);
}
);
width = 813;
}
);
unicode = 0051;
},
{
glyphname = R;
layers = (
{
layerId = "8f7a17a9-cad9-4f2d-97d0-d99f506acba0";
paths = (
{
closed = 1;
nodes = (
"375.601 266.146 LINE",
"565.081 -0.18 LINE",
"649.197 -0.18 LINE",
"454.877 273.237 LINE",
"553.216 291.228 OFFCURVE",
"631.291 347.091 OFFCURVE",
"631.291 482.725 CURVE SMOOTH",
"631.291 656.504 OFFCURVE",
"503.129 700.236 OFFCURVE",
"368.393 700.236 CURVE",
"78. 700.181 LINE",
"78. 0. LINE",
"153.153 0. LINE",
"153.153 266.146 LINE"
);
},
{
closed = 1;
nodes = (
"153.153 635.818 LINE",
"364.003 635.818 LINE SMOOTH",
"453.699 635.818 OFFCURVE",
"554.933 615.446 OFFCURVE",
"554.933 482.725 CURVE SMOOTH",
"554.933 350.003 OFFCURVE",
"453.699 329.631 OFFCURVE",
"364.003 329.631 CURVE SMOOTH",
"153.153 329.631 LINE"
);
}
);
width = 681;
}
);
unicode = 0052;
},
{
glyphname = S;
layers = (
{
layerId = "8f7a17a9-cad9-4f2d-97d0-d99f506acba0";
paths = (
{
closed = 1;
nodes = (
"76.149 101.677 OFFCURVE",
"50.779 148.188 OFFCURVE",
"46.8 201.448 CURVE",
"130.302 201.448 LINE",
"136.218 159.117 OFFCURVE",
"174.666 67.01 OFFCURVE",
"357.596 66.153 CURVE SMOOTH",
"446.545 65.737 OFFCURVE",
"504.895 84.763 OFFCURVE",
"538.808 120.303 CURVE SMOOTH",
"568.691 151.619 OFFCURVE",
"563.282 199.442 OFFCURVE",
"563.282 199.442 CURVE",
"560.144 226.27 OFFCURVE",
"557.512 288.948 OFFCURVE",
"349.924 318.218 CURVE SMOOTH",
"157.28 345.373 OFFCURVE",
"71.384 410.77 OFFCURVE",
"79.616 524.03 CURVE SMOOTH",
"87.718 635.79 OFFCURVE",
"190.311 706.037 OFFCURVE",
"352.959 705.217 CURVE SMOOTH",
"512.785 704.411 OFFCURVE",
"612.701 624.393 OFFCURVE",
"618.673 499.711 CURVE",
"537.948 499.711 LINE",
"537.568 515.759 OFFCURVE",
"533.268 549.005 OFFCURVE",
"507.013 578.759 CURVE SMOOTH",
"475.587 614.391 OFFCURVE",
"419.202 634.425 OFFCURVE",
"347.886 634.425 CURVE SMOOTH",
"234.125 634.425 OFFCURVE",
"159.228 593.305 OFFCURVE",
"155.49 522.84 CURVE",
"154.512 508.155 OFFCURVE",
"137.927 420.641 OFFCURVE",
"363.388 391.736 CURVE SMOOTH",
"612.024 360.577 OFFCURVE",
"650.377 266.105 OFFCURVE",
"648.608 183.449 CURVE SMOOTH",
"646.628 89.808 OFFCURVE",
"556.841 -4.679 OFFCURVE",
"360.756 -4.689 CURVE",
"255.889 -4.689 OFFCURVE",
"170.636 22.919 OFFCURVE",
"116.372 68.149 CURVE SMOOTH"
);
}
);
width = 695;
}
);
unicode = 0053;
},
{
glyphname = T;
layers = (
{
layerId = "8f7a17a9-cad9-4f2d-97d0-d99f506acba0";
paths = (
{
closed = 1;
nodes = (
"591.737 700.181 LINE",
"5. 700.181 LINE",
"5. 636.384 LINE",
"260.791 636.384 LINE",
"260.791 0. LINE",
"335.944 0. LINE",
"335.944 636.384 LINE",
"591.737 636.384 LINE"
);
}
);
width = 597;
}
);
unicode = 0054;
},
{
glyphname = U;
layers = (
{
layerId = "8f7a17a9-cad9-4f2d-97d0-d99f506acba0";
paths = (
{
closed = 1;
nodes = (
"595.614 700.096 LINE",
"594.226 342.713 LINE",
"594.226 174.399 OFFCURVE",
"554.05 60.212 OFFCURVE",
"374.246 60.212 CURVE SMOOTH",
"194.434 60.212 OFFCURVE",
"153.971 174.399 OFFCURVE",
"153.971 342.713 CURVE",
"155.359 700.096 LINE",
"79.387 700.096 LINE",
"78. 335.393 LINE",
"78. 131.577 OFFCURVE",
"150.907 -4.775 OFFCURVE",
"374.243 -4.775 CURVE SMOOTH",
"597.582 -4.775 OFFCURVE",
"670.49 131.577 OFFCURVE",
"670.49 335.393 CURVE",
"671.877 700.096 LINE"
);
}
);
width = 750;
}
);
unicode = 0055;
},
{
glyphname = V;
layers = (
{
layerId = "8f7a17a9-cad9-4f2d-97d0-d99f506acba0";
paths = (
{
closed = 1;
nodes = (
"642.766 700. LINE",
"363.448 93.69 LINE",
"84.131 700. LINE",
"5. 700. LINE",
"332.888 -0.358 LINE",
"394.009 -0.358 LINE",
"721.897 700. LINE"
);
}
);
width = 727;
}
);
unicode = 0056;
},
{
glyphname = W;
layers = (
{
layerId = "8f7a17a9-cad9-4f2d-97d0-d99f506acba0";
paths = (
{
closed = 1;
nodes = (
"706.006 0. LINE",
"509.602 574.178 LINE",
"313.202 0. LINE",
"242.386 0. LINE",
"5. 700.313 LINE",
"87.124 700.313 LINE",
"277.69 103.104 LINE",
"483.337 700.315 LINE",
"535.864 700.315 LINE",
"741.512 103.104 LINE",
"932.076 700.313 LINE",
"1014.208 700.313 LINE",
"776.821 0. LINE"
);
}
);
width = 1019;
}
);
unicode = 0057;
},
{
glyphname = X;
layers = (
{
layerId = "8f7a17a9-cad9-4f2d-97d0-d99f506acba0";
paths = (
{
closed = 1;
nodes = (
"554.275 -0.006 LINE",
"323.413 305.574 LINE",
"92.558 0. LINE",
"5. 0. LINE",
"278.734 362.326 LINE",
"23.371 700.342 LINE",
"110.927 700.342 LINE",
"323.42 419.077 LINE",
"535.906 700.342 LINE",
"623.469 700.342 LINE",
"368.098 362.326 LINE",
"641.833 -0.006 LINE"
);
}
);
width = 647;
}
);
unicode = 0058;
},
{
glyphname = Y;
layers = (
{
layerId = "8f7a17a9-cad9-4f2d-97d0-d99f506acba0";
paths = (
{
closed = 1;
nodes = (
"649.022 700. LINE",
"561.458 700. LINE",
"327.011 340.762 LINE",
"92.556 700. LINE",
"5. 700. LINE",
"289.433 276.153 LINE",
"289.433 -0.359 LINE",
"364.586 -0.359 LINE",
"364.586 276.173 LINE"
);
}
);
width = 654;
}
);
unicode = 0059;
},
{
glyphname = Z;
layers = (
{
layerId = "8f7a17a9-cad9-4f2d-97d0-d99f506acba0";
paths = (
{
closed = 1;
nodes = (
"62.2 -0.09 LINE",
"62.2 53.132 LINE",
"545.256 635.922 LINE",
"94.537 635.922 LINE",
"94.537 700.268 LINE",
"650.04 700.268 LINE",
"650.04 648.618 LINE",
"165.686 64.467 LINE",
"662.326 64.467 LINE",
"662.326 -0.091 LINE"
);
}
);
width = 725;
}
);
unicode = 005A;
},
{
glyphname = a;
layers = (
{
layerId = "8f7a17a9-cad9-4f2d-97d0-d99f506acba0";
paths = (
{
closed = 1;
nodes = (
"533.633 544.331 LINE",
"519.135 471.763 LINE",
"472.804 521.451 OFFCURVE",
"404.06 548.437 OFFCURVE",
"316.851 548.437 CURVE SMOOTH",
"146.866 548.437 OFFCURVE",
"46.8 446.14 OFFCURVE",
"46.8 272.363 CURVE SMOOTH",
"46.8 98.585 OFFCURVE",
"146.866 -3.712 OFFCURVE",
"316.851 -3.712 CURVE SMOOTH",
"404.06 -3.712 OFFCURVE",
"472.804 23.274 OFFCURVE",
"519.135 72.962 CURVE",
"533.633 0.394 LINE",
"590.448 0.394 LINE",
"590.448 544.33 LINE"
);
},
{
closed = 1;
nodes = (
"191.562 65.432 OFFCURVE",
"122.153 136.987 OFFCURVE",
"122.153 272.363 CURVE SMOOTH",
"122.153 407.738 OFFCURVE",
"191.562 479.292 OFFCURVE",
"322.875 479.292 CURVE SMOOTH",
"454.189 479.292 OFFCURVE",
"523.598 407.738 OFFCURVE",
"523.598 272.363 CURVE SMOOTH",
"523.598 136.987 OFFCURVE",
"454.189 65.432 OFFCURVE",
"322.875 65.432 CURVE SMOOTH"
);
}
);
width = 668;
}
);
unicode = 0061;
},
{
glyphname = b;
layers = (
{
layerId = "8f7a17a9-cad9-4f2d-97d0-d99f506acba0";
paths = (
{
closed = 1;
nodes = (
"265.017 547.987 OFFCURVE",
"196.629 521.395 OFFCURVE",
"150.31 472.392 CURVE",
"150.31 741.185 LINE",
"78. 741.185 LINE",
"78. -0.056 LINE",
"134.815 -0.056 LINE",
"149.313 72.512 LINE",
"195.644 22.824 OFFCURVE",
"264.389 -4.162 OFFCURVE",
"351.598 -4.162 CURVE SMOOTH",
"521.584 -4.162 OFFCURVE",
"621.648 98.135 OFFCURVE",
"621.648 271.912 CURVE SMOOTH",
"621.648 445.69 OFFCURVE",
"521.584 547.987 OFFCURVE",
"351.598 547.987 CURVE SMOOTH"
);
},
{
closed = 1;
nodes = (
"214.26 64.982 OFFCURVE",
"144.851 136.537 OFFCURVE",
"144.851 271.912 CURVE SMOOTH",
"144.851 407.288 OFFCURVE",
"214.26 478.842 OFFCURVE",
"345.574 478.842 CURVE SMOOTH",
"476.888 478.842 OFFCURVE",
"546.297 407.288 OFFCURVE",
"546.297 271.912 CURVE SMOOTH",
"546.297 136.537 OFFCURVE",
"476.888 64.982 OFFCURVE",
"345.574 64.982 CURVE SMOOTH"
);
}
);
width = 668;
}
);
unicode = 0062;
},
{
glyphname = c;
layers = (
{
layerId = "8f7a17a9-cad9-4f2d-97d0-d99f506acba0";
paths = (
{
closed = 1;
nodes = (
"147.711 -3.759 OFFCURVE",
"46.8 99.431 OFFCURVE",
"46.8 272.276 CURVE SMOOTH",
"46.8 445.119 OFFCURVE",
"147.711 548.309 OFFCURVE",
"316.747 548.309 CURVE SMOOTH",
"458.62 548.309 OFFCURVE",
"548.215 483.119 OFFCURVE",
"576.086 359.709 CURVE",
"500.494 359.709 LINE",
"476.475 440.812 OFFCURVE",
"416.726 480.255 OFFCURVE",
"317.898 480.255 CURVE SMOOTH",
"189.091 480.255 OFFCURVE",
"121.007 408.337 OFFCURVE",
"121.007 272.276 CURVE SMOOTH",
"121.007 136.213 OFFCURVE",
"189.091 64.295 OFFCURVE",
"317.898 64.295 CURVE SMOOTH",
"416.726 64.295 OFFCURVE",
"476.475 103.738 OFFCURVE",
"500.494 184.841 CURVE",
"576.086 184.841 LINE",
"548.215 61.431 OFFCURVE",
"458.62 -3.759 OFFCURVE",
"316.747 -3.759 CURVE SMOOTH"
);
}
);
width = 623;
}
);
unicode = 0063;
},
{
glyphname = d;
layers = (
{
layerId = "8f7a17a9-cad9-4f2d-97d0-d99f506acba0";
paths = (
{
closed = 1;
nodes = (
"518.138 740.878 LINE",
"518.138 472.084 LINE",
"471.819 521.088 OFFCURVE",
"403.431 547.679 OFFCURVE",
"316.851 547.679 CURVE SMOOTH",
"146.865 547.679 OFFCURVE",
"46.8 445.382 OFFCURVE",
"46.8 271.605 CURVE SMOOTH",
"46.8 97.827 OFFCURVE",
"146.865 -4.47 OFFCURVE",
"316.851 -4.47 CURVE SMOOTH",
"404.06 -4.47 OFFCURVE",
"472.805 22.516 OFFCURVE",
"519.136 72.205 CURVE",
"533.634 -0.364 LINE",
"590.449 -0.364 LINE",
"590.449 740.878 LINE"
);
},
{
closed = 1;
nodes = (
"191.561 64.674 OFFCURVE",
"122.153 136.229 OFFCURVE",
"122.153 271.605 CURVE SMOOTH",
"122.153 406.98 OFFCURVE",
"191.561 478.534 OFFCURVE",
"322.875 478.534 CURVE SMOOTH",
"454.189 478.534 OFFCURVE",
"523.599 406.98 OFFCURVE",
"523.599 271.605 CURVE SMOOTH",
"523.599 136.229 OFFCURVE",
"454.189 64.674 OFFCURVE",
"322.875 64.674 CURVE SMOOTH"
);
}
);
width = 668;
}
);
unicode = 0064;
},
{
glyphname = e;
layers = (
{
layerId = "8f7a17a9-cad9-4f2d-97d0-d99f506acba0";
paths = (
{
closed = 1;
nodes = (
"150.005 -4.176 OFFCURVE",
"46.8 99.029 OFFCURVE",
"46.8 271.899 CURVE SMOOTH",
"46.8 444.769 OFFCURVE",
"150.005 547.974 OFFCURVE",
"322.874 547.974 CURVE SMOOTH",
"411.53 547.974 OFFCURVE",
"482.342 520.48 OFFCURVE",
"527.653 468.455 CURVE SMOOTH",
"574.019 415.221 OFFCURVE",
"591.832 337.133 OFFCURVE",
"579.225 242.524 CURVE",
"122.511 242.524 LINE",
"122.659 239.419 LINE",
"128.155 126.227 OFFCURVE",
"199.262 63.888 OFFCURVE",
"322.874 63.888 CURVE SMOOTH",
"398.886 63.888 OFFCURVE",
"463. 90.103 OFFCURVE",
"503.835 137.78 CURVE",
"550.66 89.817 LINE",
"501.72 29.181 OFFCURVE",
"420.95 -4.176 OFFCURVE",
"322.874 -4.176 CURVE SMOOTH"
);
},
{
closed = 1;
nodes = (
"201.255 479.91 OFFCURVE",
"128.282 415.934 OFFCURVE",
"122.66 304.384 CURVE",
"122.502 301.274 LINE",
"515.393 301.274 LINE",
"517.363 356.75 OFFCURVE",
"503.53 397.316 OFFCURVE",
"474.516 427.369 CURVE SMOOTH",
"441.333 461.74 OFFCURVE",
"388.9 479.91 OFFCURVE",
"322.874 479.91 CURVE SMOOTH"
);
}
);
width = 630;
}
);
unicode = 0065;
},
{
glyphname = f;
layers = (
{
layerId = "8f7a17a9-cad9-4f2d-97d0-d99f506acba0";
paths = (
{
closed = 1;
nodes = (
"245.485 688.179 OFFCURVE",
"289.821 663.156 OFFCURVE",
"304.353 649.042 CURVE",
"340.311 702.76 LINE",
"340.311 702.76 OFFCURVE",
"305.6 745.589 OFFCURVE",
"225.424 745.589 CURVE SMOOTH",
"148.234 745.589 OFFCURVE",
"91.939 694.573 OFFCURVE",
"80.561 610.61 CURVE",
"80.561 610.61 OFFCURVE",
"78. 592.22 OFFCURVE",
"78. 537.348 CURVE SMOOTH",
"78. -0. LINE",
"150.31 -0. LINE",
"150.31 479.717 LINE",
"302.87 479.717 LINE",
"302.87 543.936 LINE",
"150.31 543.936 LINE",
"150.31 584.26 LINE",
"150.31 584.26 OFFCURVE",
"145.959 647.945 OFFCURVE",
"197.354 668.722 CURVE SMOOTH"
);
}
);
width = 355;
}
);
unicode = 0066;
},
{
glyphname = g;
layers = (
{
layerId = "8f7a17a9-cad9-4f2d-97d0-d99f506acba0";
paths = (
{
closed = 1;
nodes = (
"522.899 141.085 OFFCURVE",
"598.95 197.595 OFFCURVE",
"598.95 317.993 CURVE SMOOTH",
"598.95 427.898 OFFCURVE",
"542.782 490.581 OFFCURVE",
"464.152 510.006 CURVE",
"530.781 531.847 OFFCURVE",
"565.34 580.04 OFFCURVE",
"565.34 580.04 CURVE",
"512.885 627.007 LINE",
"462.643 557.265 OFFCURVE",
"365.327 548.087 OFFCURVE",
"322.874 548.087 CURVE SMOOTH",
"188.14 548.087 OFFCURVE",
"46.8 490.231 OFFCURVE",
"46.8 317.993 CURVE SMOOTH",
"46.8 177.081 OFFCURVE",
"139.086 115.404 OFFCURVE",
"249.181 93.588 CURVE SMOOTH",
"308.607 82.779 OFFCURVE",
"372.657 76.173 OFFCURVE",
"404.309 68.435 CURVE SMOOTH",
"449.17 57.469 OFFCURVE",
"536.038 26.195 OFFCURVE",
"518.428 -51.131 CURVE SMOOTH",
"498.812 -137.278 OFFCURVE",
"337.607 -137.278 OFFCURVE",
"337.607 -137.278 CURVE",
"118.434 -144.336 OFFCURVE",
"128.353 0.329 OFFCURVE",
"128.353 0.329 CURVE",
"58.981 0.329 LINE",
"53.58 -143.249 OFFCURVE",
"181.571 -207.325 OFFCURVE",
"322.874 -207.325 CURVE SMOOTH",
"456.785 -207.325 OFFCURVE",
"592.065 -161.445 OFFCURVE",
"590.359 -26.113 CURVE SMOOTH",
"589.052 77.673 OFFCURVE",
"480.698 112.239 OFFCURVE",
"428.127 119.49 CURVE"
);
},
{
closed = 1;
nodes = (
"414.366 478.064 OFFCURVE",
"523.598 451.311 OFFCURVE",
"523.598 315.936 CURVE SMOOTH",
"523.598 180.559 OFFCURVE",
"414.366 150.606 OFFCURVE",
"322.875 150.606 CURVE SMOOTH",
"231.385 150.606 OFFCURVE",
"122.152 180.559 OFFCURVE",
"122.152 315.936 CURVE SMOOTH",
"122.152 451.311 OFFCURVE",
"231.385 478.064 OFFCURVE",
"322.875 478.064 CURVE SMOOTH"
);
}
);
width = 646;
}
);
unicode = 0067;
},
{
glyphname = h;
layers = (
{
layerId = "8f7a17a9-cad9-4f2d-97d0-d99f506acba0";
paths = (
{
closed = 1;
nodes = (
"235.939 548.473 OFFCURVE",
"171.004 492.976 OFFCURVE",
"150.31 471.534 CURVE",
"150.31 741.279 LINE",
"78. 741.279 LINE",
"78. 0. LINE",
"150.31 0. LINE",
"150.31 301.437 LINE",
"150.816 337.668 OFFCURVE",
"156.579 398.137 OFFCURVE",
"216.232 438.402 CURVE SMOOTH",
"299.238 494.431 OFFCURVE",
"416.276 480.686 OFFCURVE",
"463.584 434.749 CURVE SMOOTH",
"502.818 396.651 OFFCURVE",
"503.73 329.838 OFFCURVE",
"503.73 296.046 CURVE SMOOTH",
"503.73 0. LINE",
"576.04 0. LINE",
"576.04 322.73 LINE SMOOTH",
"576.04 478.817 OFFCURVE",
"488.318 548.473 OFFCURVE",
"353.982 548.473 CURVE SMOOTH"
);
}
);
width = 654;
}
);
unicode = 0068;
},
{
glyphname = i;
layers = (
{
layerId = "8f7a17a9-cad9-4f2d-97d0-d99f506acba0";
paths = (
{
closed = 1;
nodes = (
"87.325 732.033 OFFCURVE",
"101.325 746.011 OFFCURVE",
"128.325 746.011 CURVE SMOOTH",
"154.325 746.011 OFFCURVE",
"169.325 732.033 OFFCURVE",
"169.65 704.686 CURVE SMOOTH",
"169.325 678.011 OFFCURVE",
"154.325 663.011 OFFCURVE",
"128.325 663.361 CURVE SMOOTH",
"102.325 663.011 OFFCURVE",
"87.325 678.011 OFFCURVE",
"87 704.686 CURVE SMOOTH"
);
},
{
closed = 1;
nodes = (
"92.555 543.997 LINE",
"164.865 543.997 LINE",
"164.865 0. LINE",
"92.555 0. LINE"
);
}
);
width = 257;
}
);
unicode = 0069;
},
{
glyphname = j;
layers = (
{
layerId = "8f7a17a9-cad9-4f2d-97d0-d99f506acba0";
paths = (
{
closed = 1;
nodes = (
"127.753 -45.949 LINE",
"127.753 -45.949 OFFCURVE",
"132.105 -109.635 OFFCURVE",
"80.71 -130.412 CURVE SMOOTH",
"47.872 -143.687 OFFCURVE",
"16.82 -136.249 OFFCURVE",
"-4.224 -125.706 CURVE",
"-32.001 -187.396 LINE",
"-13.28 -197.567 OFFCURVE",
"18.663 -204.758 OFFCURVE",
"52.641 -207.279 CURVE SMOOTH",
"123.002 -207.279 OFFCURVE",
"166.575 -171.079 OFFCURVE",
"182.423 -132.756 CURVE",
"182.423 -132.756 OFFCURVE",
"200.062 -102.956 OFFCURVE",
"200.062 -17.36 CURVE SMOOTH",
"200.062 543.997 LINE",
"127.752 543.997 LINE"
);
},
{
closed = 1;
nodes = (
"122.908 678.468 OFFCURVE",
"137.908 663.468 OFFCURVE",
"163.908 663.818 CURVE SMOOTH",
"189.908 663.468 OFFCURVE",
"204.908 678.468 OFFCURVE",
"205.233 705.143 CURVE SMOOTH",
"204.908 732.489 OFFCURVE",
"189.908 746.468 OFFCURVE",
"163.908 746.468 CURVE SMOOTH",
"136.908 746.468 OFFCURVE",
"122.908 732.489 OFFCURVE",
"122.583 705.143 CURVE SMOOTH"
);
}
);
width = 283;
}
);
unicode = 006A;
},
{
glyphname = k;
layers = (
{
layerId = "8f7a17a9-cad9-4f2d-97d0-d99f506acba0";
paths = (
{
closed = 1;
nodes = (
"497.088 0. LINE",
"586.432 0. LINE",
"360.567 338.036 LINE",
"573.563 543.641 LINE",
"472.679 543.641 LINE",
"150.31 228.883 LINE",
"150.31 740.946 LINE",
"78. 740.946 LINE",
"78. -0.333 LINE",
"150.31 -0.333 LINE",
"150.31 135.074 LINE",
"307.316 286.632 LINE"
);
}
);
width = 611;
}
);
unicode = 006B;
},
{
glyphname = l;
layers = (
{
layerId = "8f7a17a9-cad9-4f2d-97d0-d99f506acba0";
paths = (
{
closed = 1;
nodes = (
"164.309 0. LINE",
"164.309 741.279 LINE",
"91.999 741.279 LINE",
"91.999 0. LINE"
);
}
);
width = 256;
}
);
unicode = 006C;
},
{
glyphname = m;
layers = (
{
layerId = "8f7a17a9-cad9-4f2d-97d0-d99f506acba0";
paths = (
{
closed = 1;
nodes = (
"619.419 547.856 OFFCURVE",
"548.788 472.079 OFFCURVE",
"533.296 447.95 CURVE",
"498.072 516.146 OFFCURVE",
"429.599 547.856 OFFCURVE",
"339.201 547.856 CURVE SMOOTH",
"233.1 547.856 OFFCURVE",
"172.298 494.886 OFFCURVE",
"151.292 472.481 CURVE",
"134.815 543.356 LINE",
"78. 543.356 LINE",
"78. 0. LINE",
"150.31 0. LINE",
"150.31 301.319 LINE",
"151.47 337.641 OFFCURVE",
"160.539 406.191 OFFCURVE",
"216.094 442.762 CURVE SMOOTH",
"299.099 498.791 OFFCURVE",
"400.032 485.046 OFFCURVE",
"447.34 439.11 CURVE SMOOTH",
"486.574 401.012 OFFCURVE",
"487.487 335.11 OFFCURVE",
"487.487 301.319 CURVE SMOOTH",
"487.487 -0.618 LINE",
"559.796 -0.618 LINE",
"559.796 301.319 LINE",
"560.662 336.993 OFFCURVE",
"568.949 405.427 OFFCURVE",
"625.663 442.762 CURVE SMOOTH",
"708.669 498.791 OFFCURVE",
"809.6 485.046 OFFCURVE",
"856.908 439.11 CURVE SMOOTH",
"896.143 401.012 OFFCURVE",
"897.056 335.11 OFFCURVE",
"897.056 301.319 CURVE SMOOTH",
"897.056 -0.618 LINE",
"969.366 -0.618 LINE",
"969.366 322.112 LINE SMOOTH",
"969.366 478.2 OFFCURVE",
"883.109 547.856 OFFCURVE",
"748.77 547.856 CURVE SMOOTH"
);
}
);
width = 1047;
}
);
unicode = 006D;
},
{
glyphname = n;
layers = (
{
layerId = "8f7a17a9-cad9-4f2d-97d0-d99f506acba0";
paths = (
{
closed = 1;
nodes = (
"237.766 547.856 OFFCURVE",
"173.129 494.135 OFFCURVE",
"151.403 472.007 CURVE",
"134.814 543.356 LINE",
"77.999 543.356 LINE",
"77.999 -0. LINE",
"150.309 -0. LINE",
"150.309 305.797 LINE",
"150.816 342.028 OFFCURVE",
"156.579 402.497 OFFCURVE",
"216.232 442.762 CURVE SMOOTH",
"299.237 498.791 OFFCURVE",
"416.277 485.046 OFFCURVE",
"463.584 439.11 CURVE SMOOTH",
"502.818 401.012 OFFCURVE",
"503.731 334.198 OFFCURVE",
"503.731 300.407 CURVE SMOOTH",
"503.731 0.382 LINE",
"576.041 0.382 LINE",
"576.041 322.112 LINE SMOOTH",
"576.041 478.199 OFFCURVE",
"488.319 547.856 OFFCURVE",
"353.981 547.856 CURVE SMOOTH"
);
}
);
width = 654;
}
);
unicode = 006E;
},
{
glyphname = o;
layers = (
{
layerId = "8f7a17a9-cad9-4f2d-97d0-d99f506acba0";
paths = (
{
closed = 1;
nodes = (
"149.097 548.205 OFFCURVE",
"46.8 445.908 OFFCURVE",
"46.8 272.131 CURVE SMOOTH",
"46.8 98.353 OFFCURVE",
"149.097 -3.944 OFFCURVE",
"322.873 -3.944 CURVE SMOOTH",
"496.653 -3.944 OFFCURVE",
"598.949 98.353 OFFCURVE",
"598.949 272.131 CURVE SMOOTH",
"598.949 445.908 OFFCURVE",
"496.653 548.205 OFFCURVE",
"322.873 548.205 CURVE SMOOTH"
);
},
{
closed = 1;
nodes = (
"191.56 65.2 OFFCURVE",
"122.152 136.754 OFFCURVE",
"122.152 272.131 CURVE SMOOTH",
"122.152 407.506 OFFCURVE",
"191.56 479.06 OFFCURVE",
"322.874 479.06 CURVE SMOOTH",
"454.188 479.06 OFFCURVE",
"523.598 407.506 OFFCURVE",
"523.598 272.131 CURVE SMOOTH",
"523.598 136.754 OFFCURVE",
"454.188 65.2 OFFCURVE",
"322.874 65.2 CURVE SMOOTH"
);
}
);
width = 646;
}
);
unicode = 006F;
},
{
glyphname = p;
layers = (
{
layerId = "8f7a17a9-cad9-4f2d-97d0-d99f506acba0";
paths = (
{
closed = 1;
nodes = (
"264.389 548.268 OFFCURVE",
"195.645 521.282 OFFCURVE",
"149.314 471.594 CURVE",
"134.815 544.162 LINE",
"78. 544.162 LINE",
"78. -203.058 LINE",
"150.31 -203.058 LINE",
"150.31 71.714 LINE",
"196.629 22.711 OFFCURVE",
"265.019 -3.881 OFFCURVE",
"351.599 -3.881 CURVE SMOOTH",
"521.584 -3.881 OFFCURVE",
"621.649 98.415 OFFCURVE",
"621.649 272.194 CURVE SMOOTH",
"621.649 445.971 OFFCURVE",
"521.584 548.268 OFFCURVE",
"351.599 548.268 CURVE SMOOTH"
);
},
{
closed = 1;
nodes = (
"214.26 65.264 OFFCURVE",
"144.852 136.818 OFFCURVE",
"144.852 272.194 CURVE SMOOTH",
"144.852 407.569 OFFCURVE",
"214.26 479.124 OFFCURVE",
"345.574 479.124 CURVE SMOOTH",
"476.888 479.124 OFFCURVE",
"546.297 407.569 OFFCURVE",
"546.297 272.194 CURVE SMOOTH",
"546.297 136.818 OFFCURVE",
"476.888 65.264 OFFCURVE",
"345.574 65.264 CURVE SMOOTH"
);
}
);
width = 668;
}
);
unicode = 0070;
},
{
glyphname = q;
layers = (
{
layerId = "8f7a17a9-cad9-4f2d-97d0-d99f506acba0";
paths = (
{
closed = 1;
nodes = (
"533.634 544.043 LINE",
"519.135 471.473 LINE",
"472.804 521.163 OFFCURVE",
"404.06 548.149 OFFCURVE",
"316.85 548.149 CURVE SMOOTH",
"146.866 548.149 OFFCURVE",
"46.8 445.852 OFFCURVE",
"46.8 272.074 CURVE SMOOTH",
"46.8 98.296 OFFCURVE",
"146.866 -4. OFFCURVE",
"316.85 -4. CURVE SMOOTH",
"403.431 -4. OFFCURVE",
"471.821 22.591 OFFCURVE",
"518.139 71.595 CURVE",
"518.139 -203.177 LINE",
"590.449 -157.79 LINE",
"590.449 544.043 LINE"
);
},
{
closed = 1;
nodes = (
"191.562 65.145 OFFCURVE",
"122.153 136.699 OFFCURVE",
"122.153 272.074 CURVE SMOOTH",
"122.153 407.45 OFFCURVE",
"191.562 479.005 OFFCURVE",
"322.875 479.005 CURVE SMOOTH",
"454.189 479.005 OFFCURVE",
"523.599 407.45 OFFCURVE",
"523.599 272.074 CURVE SMOOTH",
"523.599 136.699 OFFCURVE",
"454.189 65.145 OFFCURVE",
"322.875 65.145 CURVE SMOOTH"
);
}
);
width = 668;
}
);
unicode = 0071;
},
{
glyphname = r;
layers = (
{
layerId = "8f7a17a9-cad9-4f2d-97d0-d99f506acba0";
paths = (
{
closed = 1;
nodes = (
"211.713 550.074 OFFCURVE",
"164.252 496.252 OFFCURVE",
"148.923 473.357 CURVE",
"134.815 543.974 LINE",
"78. 543.974 LINE",
"78. -0. LINE",
"150.31 -0. LINE",
"150.31 294.262 LINE",
"150.705 342.173 OFFCURVE",
"156.374 402.876 OFFCURVE",
"215.587 443.776 CURVE SMOOTH",
"260.05 474.487 OFFCURVE",
"298.534 478.003 OFFCURVE",
"351.857 471.993 CURVE",
"351.857 543.974 LINE",
"343.953 546.768 OFFCURVE",
"330.057 547.888 OFFCURVE",
"319.004 548.092 CURVE"
);
}
);
width = 377;
}
);
unicode = 0072;
},
{
glyphname = s;
layers = (
{
layerId = "8f7a17a9-cad9-4f2d-97d0-d99f506acba0";
paths = (
{
closed = 1;
nodes = (
"146.652 -8.116 OFFCURVE",
"35.775 52.763 OFFCURVE",
"35. 162.007 CURVE",
"102.872 162.007 LINE",
"104.785 136.714 OFFCURVE",
"132.142 58.154 OFFCURVE",
"277.374 58.154 CURVE",
"345.285 59.286 OFFCURVE",
"390.458 72.815 OFFCURVE",
"413.713 98.494 CURVE SMOOTH",
"434.428 121.351 OFFCURVE",
"432.338 146.783 OFFCURVE",
"431.654 155.142 CURVE",
"429.812 173.421 OFFCURVE",
"427.309 222.179 OFFCURVE",
"270.968 244.221 CURVE SMOOTH",
"120.749 265.395 OFFCURVE",
"53.808 316.853 OFFCURVE",
"60.295 406.16 CURVE SMOOTH",
"66.67 494.081 OFFCURVE",
"147.461 548.696 OFFCURVE",
"271.121 548.696 CURVE",
"394.466 546.855 OFFCURVE",
"478.889 483.622 OFFCURVE",
"481.653 383.496 CURVE",
"412.101 383.496 LINE",
"412.356 392.927 OFFCURVE",
"411.061 420.746 OFFCURVE",
"389.284 445.434 CURVE SMOOTH",
"365.887 471.969 OFFCURVE",
"320.749 485.902 OFFCURVE",
"267.252 486.84 CURVE",
"182.105 486.84 OFFCURVE",
"129.35 458.09 OFFCURVE",
"125.95 404.61 CURVE",
"125.357 356.361 OFFCURVE",
"174.612 322.691 OFFCURVE",
"282.177 307.591 CURVE SMOOTH",
"439.966 285.443 OFFCURVE",
"506.448 236.631 OFFCURVE",
"504.489 144.381 CURVE SMOOTH",
"502.918 70.689 OFFCURVE",
"432.846 -3.671 OFFCURVE",
"279.822 -3.676 CURVE"
);
}
);
width = 540;
}
);
unicode = 0073;
},
{
glyphname = t;
layers = (
{
layerId = "8f7a17a9-cad9-4f2d-97d0-d99f506acba0";
paths = (
{
closed = 1;
nodes = (
"245.485 53.411 OFFCURVE",
"289.82 78.433 OFFCURVE",
"304.352 92.547 CURVE",
"340.311 38.829 LINE",
"340.311 38.829 OFFCURVE",
"305.599 -4. OFFCURVE",
"225.424 -4. CURVE SMOOTH",
"148.233 -4. OFFCURVE",
"91.939 47.018 OFFCURVE",
"80.561 130.979 CURVE",
"80.561 130.979 OFFCURVE",
"78. 149.37 OFFCURVE",
"78. 204.241 CURVE SMOOTH",
"78. 655.8 LINE",
"150.31 655.8 LINE",
"150.31 544.067 LINE",
"302.869 544.067 LINE",
"302.869 479.847 LINE",
"150.31 479.847 LINE",
"150.31 157.331 LINE",
"150.31 157.331 OFFCURVE",
"145.958 93.644 OFFCURVE",
"197.353 72.869 CURVE SMOOTH"
);
}
);
width = 375;
}
);
unicode = 0074;
},
{
glyphname = u;
layers = (
{
layerId = "8f7a17a9-cad9-4f2d-97d0-d99f506acba0";
paths = (
{
closed = 1;
nodes = (
"416.276 -4. OFFCURVE",
"480.912 49.72 OFFCURVE",
"502.638 71.85 CURVE",
"519.227 0.5 LINE",
"576.042 0.5 LINE",
"576.042 543.856 LINE",
"503.732 543.856 LINE",
"503.732 238.06 LINE",
"503.225 201.828 OFFCURVE",
"497.462 141.359 OFFCURVE",
"437.809 101.093 CURVE SMOOTH",
"354.805 45.064 OFFCURVE",
"237.765 58.81 OFFCURVE",
"190.458 104.747 CURVE SMOOTH",
"151.223 142.844 OFFCURVE",
"150.31 209.657 OFFCURVE",
"150.31 243.449 CURVE SMOOTH",
"150.31 544.473 LINE",
"78. 544.473 LINE",
"78. 221.743 LINE SMOOTH",
"78. 52.382 OFFCURVE",
"165.722 -4. OFFCURVE",
"300.06 -4. CURVE SMOOTH"
);
}
);
width = 654;
}
);
unicode = 0075;
},
{
glyphname = v;
layers = (
{
layerId = "8f7a17a9-cad9-4f2d-97d0-d99f506acba0";
paths = (
{
closed = 1;
nodes = (
"482.331 543.937 LINE",
"283.592 94.378 LINE",
"84.852 543.937 LINE",
"5.201 543.937 LINE",
"253.033 0. LINE",
"314.15 0. LINE",
"561.982 543.937 LINE"
);
}
);
width = 567;
}
);
unicode = 0076;
},
{
glyphname = w;
layers = (
{
layerId = "8f7a17a9-cad9-4f2d-97d0-d99f506acba0";
paths = (
{
closed = 1;
nodes = (
"780.945 543.934 LINE",
"618.808 104.639 LINE",
"456.67 543.937 LINE",
"408.925 543.937 LINE",
"246.787 104.639 LINE",
"84.65 543.934 LINE",
"5. 543.934 LINE",
"216.231 0. LINE",
"277.348 0. LINE",
"432.797 427.248 LINE",
"588.252 0. LINE",
"649.369 0. LINE",
"860.6 543.934 LINE"
);
}
);
width = 866;
}
);
unicode = 0077;
},
{
glyphname = x;
layers = (
{
layerId = "8f7a17a9-cad9-4f2d-97d0-d99f506acba0";
paths = (
{
closed = 1;
nodes = (
"542.673 0. LINE",
"320.982 281.256 LINE",
"528.036 543.937 LINE",
"441.061 543.937 LINE",
"273.839 331.78 LINE",
"106.612 543.937 LINE",
"19.643 543.937 LINE",
"226.692 281.256 LINE",
"5. 0.004 LINE",
"91.97 0.004 LINE",
"273.834 230.733 LINE",
"455.704 0. LINE"
);
}
);
width = 548;
}
);
unicode = 0078;
},
{
glyphname = y;
layers = (
{
layerId = "8f7a17a9-cad9-4f2d-97d0-d99f506acba0";
paths = (
{
closed = 1;
nodes = (
"489.435 544.071 LINE",
"289.544 150.401 LINE",
"89.649 544.071 LINE",
"5. 544.071 LINE",
"250.878 76.941 LINE",
"103.846 -203.138 LINE",
"181.179 -203.138 LINE",
"574.088 544.071 LINE"
);
}
);
width = 579;
}
);
unicode = 0079;
},
{
glyphname = z;
layers = (
{
layerId = "8f7a17a9-cad9-4f2d-97d0-d99f506acba0";
paths = (
{
closed = 1;
nodes = (
"134.181 64.056 LINE",
"479.465 494.206 LINE",
"479.465 543.926 LINE",
"58.609 543.926 LINE",
"58.609 480.031 LINE",
"379.335 480.031 LINE",
"35. 50.906 LINE",
"35. -0. LINE",
"488.432 -0. LINE",
"488.432 64.056 LINE"
);
}
);
width = 523;
}
);
unicode = 007A;
},
{
glyphname = zero;
layers = (
{
layerId = "8f7a17a9-cad9-4f2d-97d0-d99f506acba0";
paths = (
{
closed = 1;
nodes = (
"144.11 704.682 OFFCURVE",
"46.8 573.211 OFFCURVE",
"46.8 349.872 CURVE SMOOTH",
"46.8 126.534 OFFCURVE",
"144.11 -4.937 OFFCURVE",
"328.404 -4.937 CURVE SMOOTH",
"512.7 -4.937 OFFCURVE",
"610.009 126.534 OFFCURVE",
"610.009 349.872 CURVE SMOOTH",
"610.009 573.211 OFFCURVE",
"512.7 704.682 OFFCURVE",
"328.404 704.682 CURVE SMOOTH"
);
},
{
closed = 1;
nodes = (
"189.046 58.587 OFFCURVE",
"124.829 162.037 OFFCURVE",
"124.829 349.871 CURVE SMOOTH",
"124.829 537.712 OFFCURVE",
"189.046 641.162 OFFCURVE",
"328.405 641.162 CURVE SMOOTH",
"467.76 641.162 OFFCURVE",
"531.977 537.712 OFFCURVE",
"531.977 349.871 CURVE SMOOTH",
"531.977 162.037 OFFCURVE",
"467.76 58.587 OFFCURVE",
"328.405 58.587 CURVE SMOOTH"
);
}
);
width = 657;
}
);
unicode = 0030;
},
{
glyphname = one;
layers = (
{
layerId = "8f7a17a9-cad9-4f2d-97d0-d99f506acba0";
paths = (
{
closed = 1;
nodes = (
"151.064 699.95 LINE",
"32. 612.567 LINE",
"32. 534.306 LINE",
"130.326 603.599 LINE",
"130.326 -0.23 LINE",
"205.479 -0.23 LINE",
"205.479 699.95 LINE"
);
}
);
width = 283;
}
);
unicode = 0031;
},
{
glyphname = two;
layers = (
{
layerId = "8f7a17a9-cad9-4f2d-97d0-d99f506acba0";
paths = (
{
closed = 1;
nodes = (
"157.633 71.704 LINE",
"173.279 102.802 OFFCURVE",
"222.135 153.638 OFFCURVE",
"363.18 249.403 CURVE SMOOTH",
"517.276 354.03 OFFCURVE",
"531.356 436.817 OFFCURVE",
"533.841 500.44 CURVE SMOOTH",
"536.321 563.964 OFFCURVE",
"504.233 700.95 OFFCURVE",
"319.693 705.601 CURVE SMOOTH",
"135.965 710.231 OFFCURVE",
"80.005 583.753 OFFCURVE",
"83.55 520.385 CURVE",
"153.353 520.385 LINE",
"153.35 520.543 OFFCURVE",
"155.569 642.934 OFFCURVE",
"320.545 636.248 CURVE SMOOTH",
"485.582 629.561 OFFCURVE",
"467.136 481.514 OFFCURVE",
"453.59 445.578 CURVE SMOOTH",
"435.963 398.809 OFFCURVE",
"400.136 352.172 OFFCURVE",
"272.909 266.389 CURVE SMOOTH",
"145.681 180.607 OFFCURVE",
"65. 116.252 OFFCURVE",
"65. 36.659 CURVE SMOOTH",
"65. 0. LINE",
"549.123 0. LINE",
"549.123 71.704 LINE"
);
}
);
width = 614;
}
);
unicode = 0032;
},
{
glyphname = three;
layers = (
{
layerId = "8f7a17a9-cad9-4f2d-97d0-d99f506acba0";
paths = (
{
closed = 1;
nodes = (
"176.506 555.182 LINE",
"176.506 555.182 OFFCURVE",
"195.839 639.61 OFFCURVE",
"327.759 639.61 CURVE SMOOTH",
"464.229 639.61 OFFCURVE",
"484.7 552.901 OFFCURVE",
"477.876 508.405 CURVE SMOOTH",
"471.053 463.911 OFFCURVE",
"438.072 408.006 OFFCURVE",
"337.995 408.006 CURVE SMOOTH",
"265.211 408.006 LINE",
"265.211 344.258 LINE",
"347.093 344.258 LINE",
"347.093 344.258 OFFCURVE",
"523.366 350.961 OFFCURVE",
"509.719 193.517 CURVE SMOOTH",
"496.826 44.776 OFFCURVE",
"297.054 62.312 OFFCURVE",
"297.054 62.312 CURVE",
"297.054 62.312 OFFCURVE",
"143.526 60.03 OFFCURVE",
"140.114 217.475 CURVE",
"65.056 217.475 LINE",
"65.056 217.475 OFFCURVE",
"54.821 -5. OFFCURVE",
"310.701 -5. CURVE SMOOTH",
"566.582 -5. OFFCURVE",
"581.758 163.887 OFFCURVE",
"583.64 196.939 CURVE SMOOTH",
"585.914 236.871 OFFCURVE",
"579.091 354.384 OFFCURVE",
"461.954 386.329 CURVE",
"461.954 386.329 OFFCURVE",
"558.62 429.683 OFFCURVE",
"550.66 538.069 CURVE SMOOTH",
"542.699 646.454 OFFCURVE",
"458.543 704.641 OFFCURVE",
"334.583 704.641 CURVE SMOOTH",
"210.623 704.641 OFFCURVE",
"118.507 657.864 OFFCURVE",
"96.899 555.182 CURVE"
);
}
);
width = 662;
}
);
unicode = 0033;
},
{
glyphname = four;
layers = (
{
layerId = "8f7a17a9-cad9-4f2d-97d0-d99f506acba0";
paths = (
{
closed = 1;
nodes = (
"466.271 488.801 LINE",
"466.271 248.982 LINE",
"148.009 248.982 LINE",
"457.703 700.19 LINE",
"373.944 700.19 LINE",
"46.8 220.438 LINE",
"46.8 177.279 LINE",
"466.271 177.279 LINE",
"466.271 -0.073 LINE",
"541.424 -0.073 LINE",
"541.424 488.801 LINE"
);
}
);
width = 619;
}
);
unicode = 0034;
},
{
glyphname = five;
layers = (
{
layerId = "8f7a17a9-cad9-4f2d-97d0-d99f506acba0";
paths = (
{
closed = 1;
nodes = (
"426.023 434.18 OFFCURVE",
"396.17 451.269 OFFCURVE",
"280.997 451.269 CURVE SMOOTH",
"161.991 451.269 LINE",
"179.56 628.302 LINE",
"510.605 628.302 LINE",
"510.605 700.008 LINE",
"110.264 700.008 LINE",
"80.981 379.234 LINE",
"304.225 379.234 LINE",
"485.332 385.561 OFFCURVE",
"490.846 241.416 OFFCURVE",
"487.538 211.958 CURVE SMOOTH",
"471.979 55.654 OFFCURVE",
"304.762 62.801 OFFCURVE",
"304.762 62.801 CURVE",
"304.762 62.801 OFFCURVE",
"130.424 51.211 OFFCURVE",
"124.797 217.962 CURVE",
"46.811 217.962 LINE",
"46.811 217.962 OFFCURVE",
"41.064 -4.513 OFFCURVE",
"296.945 -4.513 CURVE SMOOTH",
"539.119 -4.513 OFFCURVE",
"557.922 180.48 OFFCURVE",
"561.603 213.532 CURVE",
"561.603 213.532 OFFCURVE",
"576.992 348.033 OFFCURVE",
"460.993 417.121 CURVE SMOOTH"
);
}
);
width = 609;
}
);
unicode = 0035;
},
{
glyphname = six;
layers = (
{
layerId = "8f7a17a9-cad9-4f2d-97d0-d99f506acba0";
paths = (
{
closed = 1;
nodes = (
"277.818 441.85 OFFCURVE",
"207.995 429.457 OFFCURVE",
"159.355 390.659 CURVE",
"170.354 444.412 OFFCURVE",
"205.969 505.381 OFFCURVE",
"255.448 549.039 CURVE SMOOTH",
"356.947 638.597 OFFCURVE",
"529.809 630.92 OFFCURVE",
"529.809 630.92 CURVE",
"529.809 699.721 LINE",
"310.889 699.721 OFFCURVE",
"209.675 604.185 OFFCURVE",
"209.675 604.185 CURVE",
"55.842 484.942 OFFCURVE",
"65.52 234.295 OFFCURVE",
"65.52 234.295 CURVE",
"65.52 47.514 OFFCURVE",
"218.085 -5.177 OFFCURVE",
"337.202 -5.177 CURVE SMOOTH",
"460.226 -5.177 OFFCURVE",
"614.741 45.877 OFFCURVE",
"614.741 219.654 CURVE SMOOTH",
"614.741 393.898 OFFCURVE",
"464.205 449.267 OFFCURVE",
"344.026 444.484 CURVE SMOOTH"
);
},
{
closed = 1;
nodes = (
"262.25 61.014 OFFCURVE",
"136.535 95.769 OFFCURVE",
"134.812 226.712 CURVE SMOOTH",
"133.086 357.888 OFFCURVE",
"246.488 375.551 OFFCURVE",
"337.205 378.286 CURVE SMOOTH",
"416.256 380.67 OFFCURVE",
"539.278 358.861 OFFCURVE",
"539.278 219.65 CURVE SMOOTH",
"539.278 80.796 OFFCURVE",
"416.109 61.015 OFFCURVE",
"337.205 61.014 CURVE SMOOTH"
);
}
);
width = 662;
}
);
unicode = 0036;
},
{
glyphname = seven;
layers = (
{
layerId = "8f7a17a9-cad9-4f2d-97d0-d99f506acba0";
paths = (
{
closed = 1;
nodes = (
"32. 700.043 LINE",
"32. 628.34 LINE",
"416.531 628.34 LINE",
"109.951 -0.199 LINE",
"190.96 -0.199 LINE",
"507.224 649.195 LINE",
"507.224 700.043 LINE"
);
}
);
width = 554;
}
);
unicode = 0037;
},
{
glyphname = eight;
layers = (
{
layerId = "8f7a17a9-cad9-4f2d-97d0-d99f506acba0";
paths = (
{
closed = 1;
nodes = (
"555.974 408.082 OFFCURVE",
"597.286 450.679 OFFCURVE",
"597.286 529.702 CURVE SMOOTH",
"597.286 712.555 OFFCURVE",
"368.281 703.893 OFFCURVE",
"359.603 703.893 CURVE",
"350.672 704.098 OFFCURVE",
"121.923 712.555 OFFCURVE",
"121.923 529.702 CURVE SMOOTH",
"121.923 450.857 OFFCURVE",
"163.489 408.267 OFFCURVE",
"211.997 385.266 CURVE",
"143.841 359.201 OFFCURVE",
"78. 306.994 OFFCURVE",
"78. 202.596 CURVE SMOOTH",
"78. -1.634 OFFCURVE",
"336.297 -5.804 OFFCURVE",
"359.577 -5.804 CURVE SMOOTH",
"385.198 -5.804 OFFCURVE",
"641.208 -1.634 OFFCURVE",
"641.208 202.596 CURVE SMOOTH",
"641.208 306.784 OFFCURVE",
"575.63 359. OFFCURVE",
"507.622 385.117 CURVE"
);
},
{
closed = 1;
nodes = (
"417.847 642.782 OFFCURVE",
"525.5 632.513 OFFCURVE",
"525.5 529.701 CURVE SMOOTH",
"525.5 429.944 OFFCURVE",
"419.159 415.553 OFFCURVE",
"359.604 415.553 CURVE SMOOTH",
"300.352 415.553 OFFCURVE",
"193.705 429.944 OFFCURVE",
"193.705 529.701 CURVE SMOOTH",
"193.705 632.513 OFFCURVE",
"300.789 642.782 OFFCURVE",
"359.604 642.782 CURVE SMOOTH"
);
},
{
closed = 1;
nodes = (
"321.146 58.855 OFFCURVE",
"152.765 63.856 OFFCURVE",
"152.765 204.416 CURVE SMOOTH",
"152.765 348.096 OFFCURVE",
"321.574 348.889 OFFCURVE",
"359.604 348.889 CURVE SMOOTH",
"397.073 348.889 OFFCURVE",
"566.441 348.096 OFFCURVE",
"566.441 204.416 CURVE SMOOTH",
"566.441 63.856 OFFCURVE",
"398.36 58.855 OFFCURVE",
"359.604 58.855 CURVE SMOOTH"
);
}
);
width = 719;
}
);
unicode = 0038;
},
{
glyphname = nine;
layers = (
{
layerId = "8f7a17a9-cad9-4f2d-97d0-d99f506acba0";
paths = (
{
closed = 1;
nodes = (
"383.719 257.699 OFFCURVE",
"453.54 270.095 OFFCURVE",
"502.184 308.894 CURVE",
"491.182 255.147 OFFCURVE",
"455.564 194.179 OFFCURVE",
"406.094 150.525 CURVE SMOOTH",
"304.592 60.964 OFFCURVE",
"131.729 68.639 OFFCURVE",
"131.729 68.639 CURVE",
"131.729 -0.159 LINE",
"350.653 -0.159 OFFCURVE",
"451.866 95.373 OFFCURVE",
"451.866 95.373 CURVE",
"605.69 214.612 OFFCURVE",
"596.021 465.259 OFFCURVE",
"596.021 465.259 CURVE",
"596.021 652.046 OFFCURVE",
"443.458 704.74 OFFCURVE",
"324.332 704.74 CURVE SMOOTH",
"201.312 704.74 OFFCURVE",
"46.796 653.679 OFFCURVE",
"46.796 479.907 CURVE SMOOTH",
"46.796 305.661 OFFCURVE",
"197.335 250.292 OFFCURVE",
"317.514 255.065 CURVE SMOOTH"
);
},
{
closed = 1;
nodes = (
"399.286 638.535 OFFCURVE",
"525.002 603.785 OFFCURVE",
"526.728 472.831 CURVE SMOOTH",
"528.453 341.661 OFFCURVE",
"415.05 323.997 OFFCURVE",
"324.332 321.259 CURVE SMOOTH",
"245.276 318.883 OFFCURVE",
"122.256 340.69 OFFCURVE",
"122.256 479.897 CURVE SMOOTH",
"122.256 618.753 OFFCURVE",
"245.431 638.535 OFFCURVE",
"324.332 638.535 CURVE SMOOTH"
);
}
);
width = 662;
}
);
unicode = 0039;
},
{
glyphname = period;
layers = (
{
layerId = "8f7a17a9-cad9-4f2d-97d0-d99f506acba0";
paths = (
{
closed = 1;
nodes = (
"129.412 97.397 OFFCURVE",
"148.197 78.612 OFFCURVE",
"148.197 46.699 CURVE SMOOTH",
"148.197 14.786 OFFCURVE",
"129.412 -4. OFFCURVE",
"97.499 -4. CURVE SMOOTH",
"65.586 -4. OFFCURVE",
"46.8 14.786 OFFCURVE",
"46.8 46.699 CURVE SMOOTH",
"46.8 78.612 OFFCURVE",
"65.586 97.397 OFFCURVE",
"97.499 97.397 CURVE SMOOTH"
);
}
);
width = 226;
}
);
unicode = 002E;
},
{
glyphname = comma;
layers = (
{
layerId = "8f7a17a9-cad9-4f2d-97d0-d99f506acba0";
paths = (
{
closed = 1;
nodes = (
"152.992 78.631 OFFCURVE",
"134.207 97.417 OFFCURVE",
"102.295 97.417 CURVE SMOOTH",
"70.381 97.417 OFFCURVE",
"51.595 78.631 OFFCURVE",
"51.595 46.718 CURVE SMOOTH",
"51.595 22.467 OFFCURVE",
"62.492 5.858 OFFCURVE",
"81.706 -0.75 CURVE",
"46.8 -149.548 LINE",
"96.387 -149.548 LINE",
"150.711 29.849 LINE",
"152.081 35.007 OFFCURVE",
"152.992 40.533 OFFCURVE",
"152.992 46.718 CURVE"
);
}
);
width = 231;
}
);
unicode = 002C;
},
{
glyphname = hyphen;
layers = (
{
layerId = "8f7a17a9-cad9-4f2d-97d0-d99f506acba0";
paths = (
{
closed = 1;
nodes = (
"348.648 242.392 LINE",
"78. 242.392 LINE",
"78. 306.44 LINE",
"348.648 306.44 LINE"
);
}
);
width = 427;
}
);
unicode = 002D;
},
{
glyphname = plus;
layers = (
{
layerId = "8f7a17a9-cad9-4f2d-97d0-d99f506acba0";
paths = (
{
closed = 1;
nodes = (
"516.024 372.78 LINE",
"330.084 372.78 LINE",
"330.084 558.72 LINE",
"263.555 558.72 LINE",
"263.555 372.78 LINE",
"77.615 372.78 LINE",
"77.615 306.252 LINE",
"263.555 306.252 LINE",
"263.555 120.312 LINE",
"330.084 120.312 LINE",
"330.084 306.252 LINE",
"516.024 306.252 LINE"
);
}
);
width = 594;
}
);
unicode = 002B;
},
{
glyphname = asterisk;
layers = (
{
layerId = "8f7a17a9-cad9-4f2d-97d0-d99f506acba0";
paths = (
{
closed = 1;
nodes = (
"394.937 657.721 LINE",
"366.649 696.208 LINE",
"260.351 618.078 LINE",
"260.351 750. LINE",
"212.587 750. LINE",
"212.587 618.078 LINE",
"106.289 696.208 LINE",
"78. 657.721 LINE",
"196.145 570.884 LINE",
"78. 484.047 LINE",
"106.289 445.559 LINE",
"212.587 523.691 LINE",
"212.587 391.768 LINE",
"260.351 391.768 LINE",
"260.351 523.691 LINE",
"366.649 445.559 LINE",
"394.937 484.047 LINE",
"276.794 570.884 LINE"
);
}
);
width = 473;
}
);
unicode = 002A;
},
{
glyphname = asciicircum;
layers = (
{
layerId = "8f7a17a9-cad9-4f2d-97d0-d99f506acba0";
paths = (
{
closed = 1;
nodes = (
"446.019 120.153 LINE",
"293.732 495.805 LINE",
"146.423 120.153 LINE",
"78. 120.153 LINE",
"263.174 570.271 LINE",
"324.29 570.271 LINE",
"509.465 120.153 LINE"
);
}
);
width = 587;
}
);
unicode = 005E;
},
{
glyphname = tilde;
layers = (
{
components = (
{
name = space;
transform = "{1, 0, 0, 1, -43.209, 0}";
alignment = -1;
}
);
layerId = "8f7a17a9-cad9-4f2d-97d0-d99f506acba0";
paths = (
{
closed = 1;
nodes = (
"232.716 607.341 OFFCURVE",
"207.957 628.184 OFFCURVE",
"186.113 646.571 CURVE SMOOTH",
"169.456 660.591 OFFCURVE",
"155.072 672.697 OFFCURVE",
"135.011 672.697 CURVE",
"98.236 672.697 OFFCURVE",
"94.88 620.987 OFFCURVE",
"94.756 618.786 CURVE",
"94.315 610.909 LINE",
"46.8 610.894 LINE",
"46.8 619.246 LINE",
"46.8 656.165 OFFCURVE",
"65.431 725.985 OFFCURVE",
"135.942 725.985 CURVE SMOOTH",
"170.607 725.985 OFFCURVE",
"194.11 706.437 OFFCURVE",
"214.842 689.196 CURVE SMOOTH",
"233.014 674.087 OFFCURVE",
"250.178 659.818 OFFCURVE",
"272.684 659.818 CURVE",
"281.9 659.818 OFFCURVE",
"289.187 662.681 OFFCURVE",
"294.961 668.564 CURVE",
"309.805 683.715 OFFCURVE",
"309.383 713.241 OFFCURVE",
"309.373 713.537 CURVE",
"309.201 722.058 LINE",
"356.83 722.072 LINE",
"357.329 714.257 LINE",
"357.473 712.071 OFFCURVE",
"360.446 660.384 OFFCURVE",
"331.486 629.502 CURVE",
"317.697 614.798 OFFCURVE",
"299.17 607.336 OFFCURVE",
"276.425 607.341 CURVE SMOOTH"
);
}
);
width = 404;
}
);
unicode = 02DC;
},
{
glyphname = slash;
layers = (
{
layerId = "8f7a17a9-cad9-4f2d-97d0-d99f506acba0";
paths = (
{
closed = 1;
nodes = (
"365.423 834.661 LINE",
"32.369 -115.94 LINE",
"101.594 -115.94 LINE",
"434.647 834.661 LINE"
);
}
);
width = 466;
}
);
unicode = 002F;
},
{
glyphname = backslash;
layers = (
{
layerId = "8f7a17a9-cad9-4f2d-97d0-d99f506acba0";
paths = (
{
closed = 1;
nodes = (
"101.594 834.661 LINE",
"434.647 -115.94 LINE",
"365.423 -115.94 LINE",
"32.369 834.661 LINE"
);
}
);
width = 467;
}
);
unicode = 005C;
},
{
glyphname = colon;
layers = (
{
layerId = "8f7a17a9-cad9-4f2d-97d0-d99f506acba0";
paths = (
{
closed = 1;
nodes = (
"47.213 80.13 OFFCURVE",
"64.411 97.301 OFFCURVE",
"97.578 97.301 CURVE SMOOTH",
"129.516 97.301 OFFCURVE",
"147.942 80.13 OFFCURVE",
"148.341 46.537 CURVE SMOOTH",
"147.942 13.77 OFFCURVE",
"129.516 -4.656 OFFCURVE",
"97.578 -4.226 CURVE SMOOTH",
"65.639 -4.656 OFFCURVE",
"47.213 13.77 OFFCURVE",
"46.814 46.537 CURVE SMOOTH"
);
},
{
closed = 1;
nodes = (
"47.131 526.081 OFFCURVE",
"64.329 543.252 OFFCURVE",
"97.496 543.252 CURVE SMOOTH",
"129.434 543.252 OFFCURVE",
"147.86 526.081 OFFCURVE",
"148.259 492.488 CURVE SMOOTH",
"147.86 459.721 OFFCURVE",
"129.434 441.295 OFFCURVE",
"97.496 441.725 CURVE SMOOTH",
"65.557 441.295 OFFCURVE",
"47.131 459.721 OFFCURVE",
"46.732 492.488 CURVE SMOOTH"
);
}
);
width = 226;
}
);
unicode = 003A;
},
{
glyphname = semicolon;
layers = (
{
layerId = "8f7a17a9-cad9-4f2d-97d0-d99f506acba0";
paths = (
{
closed = 1;
nodes = (
"152.993 78.632 OFFCURVE",
"134.203 97.423 OFFCURVE",
"102.294 97.423 CURVE SMOOTH",
"70.384 97.423 OFFCURVE",
"51.594 78.632 OFFCURVE",
"51.594 46.723 CURVE SMOOTH",
"51.594 22.468 OFFCURVE",
"62.492 5.858 OFFCURVE",
"81.706 -0.754 CURVE",
"46.801 -149.547 LINE",
"96.385 -149.547 LINE",
"150.71 29.854 LINE",
"152.084 35.009 OFFCURVE",
"152.993 40.535 OFFCURVE",
"152.993 46.723 CURVE"
);
},
{
closed = 1;
nodes = (
"134.207 441.741 OFFCURVE",
"152.992 460.526 OFFCURVE",
"152.992 492.439 CURVE SMOOTH",
"152.992 524.353 OFFCURVE",
"134.207 543.139 OFFCURVE",
"102.295 543.139 CURVE SMOOTH",
"70.381 543.139 OFFCURVE",
"51.595 524.353 OFFCURVE",
"51.595 492.439 CURVE SMOOTH",
"51.595 460.526 OFFCURVE",
"70.381 441.741 OFFCURVE",
"102.295 441.741 CURVE SMOOTH"
);
}
);
width = 231;
}
);
unicode = 003B;
},
{
glyphname = less;
layers = (
{
layerId = "8f7a17a9-cad9-4f2d-97d0-d99f506acba0";
paths = (
{
closed = 1;
nodes = (
"528.117 120.054 LINE",
"152.466 272.34 LINE",
"528.117 419.65 LINE",
"528.117 488.073 LINE",
"78. 302.898 LINE",
"78. 241.783 LINE",
"528.117 56.608 LINE"
);
}
);
width = 606;
}
);
unicode = 003C;
},
{
glyphname = at;
layers = (
{
layerId = "8f7a17a9-cad9-4f2d-97d0-d99f506acba0";
paths = (
{
closed = 1;
nodes = (
"245.211 741.023 OFFCURVE",
"78 573.814 OFFCURVE",
"78 289.765 CURVE SMOOTH",
"78 5.715 OFFCURVE",
"245.211 -161.495 OFFCURVE",
"529.258 -161.495 CURVE SMOOTH",
"610.862 -161.495 OFFCURVE",
"682.612 -147.451 OFFCURVE",
"743.728 -121.036 CURVE",
"714.774 -67.584 LINE",
"661.646 -89.586 OFFCURVE",
"599.213 -101.05 OFFCURVE",
"529.258 -101.05 CURVE SMOOTH",
"406.268 -101.05 OFFCURVE",
"306.195 -65.984 OFFCURVE",
"239.851 0.357 CURVE SMOOTH",
"173.511 66.699 OFFCURVE",
"138.444 166.774 OFFCURVE",
"138.444 289.765 CURVE SMOOTH",
"138.444 412.755 OFFCURVE",
"173.511 512.831 OFFCURVE",
"239.851 579.172 CURVE SMOOTH",
"306.192 645.513 OFFCURVE",
"406.268 680.579 OFFCURVE",
"529.258 680.579 CURVE SMOOTH",
"652.25 680.579 OFFCURVE",
"752.327 645.513 OFFCURVE",
"818.667 579.172 CURVE SMOOTH",
"885.008 512.831 OFFCURVE",
"920.074 412.756 OFFCURVE",
"920.074 289.765 CURVE SMOOTH",
"920.074 243.399 OFFCURVE",
"915.066 200.31 OFFCURVE",
"905.295 161.043 CURVE SMOOTH",
"896.876 129.954 OFFCURVE",
"883.345 106.639 OFFCURVE",
"859.492 97.099 CURVE",
"841.712 89.987 OFFCURVE",
"823.093 90.232 OFFCURVE",
"807.205 96.626 CURVE",
"781.478 106.961 OFFCURVE",
"777.832 137.717 OFFCURVE",
"777.302 163.643 CURVE",
"777.302 537.157 LINE",
"721.96 537.157 LINE",
"708.25 468.536 LINE",
"664.323 514.8 OFFCURVE",
"604.194 541.161 OFFCURVE",
"520.379 541.161 CURVE SMOOTH",
"354.606 541.161 OFFCURVE",
"266.853 443.141 OFFCURVE",
"266.853 286.615 CURVE SMOOTH",
"266.853 130.088 OFFCURVE",
"354.606 32.067 OFFCURVE",
"520.379 32.067 CURVE SMOOTH",
"614.222 32.067 OFFCURVE",
"679.653 65.095 OFFCURVE",
"723.112 122.132 CURVE",
"731.064 63.39 OFFCURVE",
"773.53 32.227 OFFCURVE",
"828.044 32.227 CURVE",
"898.884 32.227 OFFCURVE",
"950.437 78.585 OFFCURVE",
"964.76 149.076 CURVE",
"975.156 192.053 OFFCURVE",
"980.519 239.033 OFFCURVE",
"980.519 289.765 CURVE SMOOTH",
"980.519 573.814 OFFCURVE",
"813.31 741.023 OFFCURVE",
"529.258 741.023 CURVE SMOOTH"
);
},
{
closed = 1;
nodes = (
"395.315 95.59 OFFCURVE",
"336.358 165.124 OFFCURVE",
"336.358 286.613 CURVE SMOOTH",
"336.358 408.104 OFFCURVE",
"395.315 477.638 OFFCURVE",
"526.254 477.638 CURVE SMOOTH",
"657.195 477.638 OFFCURVE",
"716.151 408.104 OFFCURVE",
"716.151 286.613 CURVE SMOOTH",
"716.151 165.124 OFFCURVE",
"657.195 95.59 OFFCURVE",
"526.254 95.59 CURVE SMOOTH"
);
}
);
width = 1059;
}
);
unicode = 0040;
},
{
glyphname = equal;
layers = (
{
layerId = "8f7a17a9-cad9-4f2d-97d0-d99f506acba0";
paths = (
{
closed = 1;
nodes = (
"78 120.225 LINE",
"527.355 120.225 LINE",
"527.355 181.175 LINE",
"78 181.175 LINE"
);
},
{
closed = 1;
nodes = (
"78 419.795 LINE",
"78 358.843 LINE",
"527.355 358.843 LINE",
"527.355 419.795 LINE"
);
}
);
width = 605;
}
);
unicode = 003D;
},
{
glyphname = greater;
layers = (
{
layerId = "8f7a17a9-cad9-4f2d-97d0-d99f506acba0";
paths = (
{
closed = 1;
nodes = (
"78. 120.054 LINE",
"453.652 272.34 LINE",
"78. 419.65 LINE",
"78. 488.073 LINE",
"528.117 302.898 LINE",
"528.117 241.783 LINE",
"78. 56.608 LINE"
);
}
);
width = 606;
}
);
unicode = 003E;
},
{
glyphname = exclam;
layers = (
{
layerId = "8f7a17a9-cad9-4f2d-97d0-d99f506acba0";
paths = (
{
closed = 1;
nodes = (
"162.244 197.631 LINE",
"172.199 700.382 LINE",
"79.978 700.382 LINE",
"89.934 197.631 LINE"
);
},
{
closed = 1;
nodes = (
"78.259 12.861 OFFCURVE",
"95.759 -4.639 OFFCURVE",
"126.094 -4.231 CURVE SMOOTH",
"156.428 -4.639 OFFCURVE",
"173.928 12.861 OFFCURVE",
"174.308 43.983 CURVE SMOOTH",
"173.928 75.888 OFFCURVE",
"156.428 92.197 OFFCURVE",
"126.094 92.197 CURVE SMOOTH",
"94.593 92.197 OFFCURVE",
"78.259 75.888 OFFCURVE",
"77.88 43.983 CURVE SMOOTH"
);
}
);
width = 252;
}
);
unicode = 0021;
},
{
glyphname = question;
layers = (
{
layerId = "8f7a17a9-cad9-4f2d-97d0-d99f506acba0";
paths = (
{
closed = 1;
nodes = (
"91.712 713.438 OFFCURVE",
"43.432 583.236 OFFCURVE",
"46.979 519.868 CURVE",
"116.781 519.868 LINE",
"116.779 520.026 OFFCURVE",
"118.13 636.174 OFFCURVE",
"282.973 635.731 CURVE SMOOTH",
"389.382 635.445 OFFCURVE",
"460.985 558.276 OFFCURVE",
"412.929 470.168 CURVE SMOOTH",
"381.45 412.453 OFFCURVE",
"226.563 361.024 OFFCURVE",
"226.563 236.604 CURVE",
"226.563 197.632 LINE",
"301.195 197.632 LINE",
"301.195 235.751 LINE",
"301.195 349.953 OFFCURVE",
"496.809 373.609 OFFCURVE",
"496.809 518.037 CURVE",
"496.809 626.22 OFFCURVE",
"408.371 708.77 OFFCURVE",
"283.121 705.082 CURVE SMOOTH"
);
},
{
closed = 1;
nodes = (
"217.113 12.861 OFFCURVE",
"234.614 -4.639 OFFCURVE",
"264.948 -4.231 CURVE SMOOTH",
"295.282 -4.639 OFFCURVE",
"312.783 12.861 OFFCURVE",
"313.162 43.983 CURVE SMOOTH",
"312.783 75.888 OFFCURVE",
"295.282 92.197 OFFCURVE",
"264.948 92.197 CURVE SMOOTH",
"233.447 92.197 OFFCURVE",
"217.113 75.888 OFFCURVE",
"216.734 43.983 CURVE SMOOTH"
);
}
);
width = 544;
}
);
unicode = 003F;
},
{
glyphname = quotesingle;
layers = (
{
layerId = "8f7a17a9-cad9-4f2d-97d0-d99f506acba0";
paths = (
{
closed = 1;
nodes = (
"46.8 699.746 LINE",
"113.15 699.746 LINE",
"105.987 450.913 LINE",
"53.963 450.913 LINE"
);
}
);
width = 160;
}
);
unicode = 0027;
},
{
glyphname = quotedbl;
layers = (
{
layerId = "8f7a17a9-cad9-4f2d-97d0-d99f506acba0";
paths = (
{
closed = 1;
nodes = (
"53.963 450.167 LINE",
"105.988 450.167 LINE",
"113.15 699. LINE",
"46.8 699. LINE"
);
},
{
closed = 1;
nodes = (
"183.27 699. LINE",
"190.434 450.167 LINE",
"242.457 450.167 LINE",
"249.621 699. LINE"
);
}
);
width = 296;
}
);
unicode = 0022;
},
{
glyphname = numbersign;
layers = (
{
layerId = "8f7a17a9-cad9-4f2d-97d0-d99f506acba0";
paths = (
{
closed = 1;
nodes = (
"709.358 453.992 LINE",
"716.556 512.974 LINE",
"580.411 512.974 LINE",
"603.176 699.521 LINE",
"544.194 699.521 LINE",
"521.429 512.974 LINE",
"312.964 512.974 LINE",
"335.729 699.521 LINE",
"276.747 699.521 LINE",
"253.982 512.974 LINE",
"117.836 512.974 LINE",
"110.639 453.992 LINE",
"246.785 453.992 LINE",
"221.344 245.528 LINE",
"85.199 245.528 LINE",
"78. 186.545 LINE",
"214.146 186.545 LINE",
"191.381 0 LINE",
"250.363 0 LINE",
"273.128 186.545 LINE",
"481.593 186.545 LINE",
"458.828 0 LINE",
"517.81 0 LINE",
"540.575 186.545 LINE",
"676.721 186.545 LINE",
"683.919 245.528 LINE",
"547.773 245.528 LINE",
"573.214 453.992 LINE"
);
},
{
closed = 1;
nodes = (
"488.791 245.528 LINE",
"280.326 245.528 LINE",
"305.766 453.992 LINE",
"514.231 453.992 LINE"
);
}
);
width = 795;
}
);
unicode = 0023;
},
{
glyphname = dollar;
layers = (
{
layerId = "8f7a17a9-cad9-4f2d-97d0-d99f506acba0";
paths = (
{
closed = 1;
nodes = (
"404.087 641.584 LINE",
"462.176 636.509 OFFCURVE",
"508.535 616.803 OFFCURVE",
"536.434 584.728 CURVE SMOOTH",
"561.108 556.377 OFFCURVE",
"567.232 525.162 OFFCURVE",
"568.432 506.359 CURVE",
"638.74 506.359 LINE",
"630.704 620.854 OFFCURVE",
"542.039 694.583 OFFCURVE",
"404.087 703.308 CURVE",
"404.087 816.227 LINE",
"347.46 816.227 LINE",
"347.46 703.401 LINE",
"207.725 695.522 OFFCURVE",
"117.725 629.026 OFFCURVE",
"110.316 525.398 CURVE SMOOTH",
"102.743 419.721 OFFCURVE",
"178.307 356.254 OFFCURVE",
"347.46 326.872 CURVE",
"347.46 57.955 LINE",
"198.937 70.885 OFFCURVE",
"160.328 154.558 OFFCURVE",
"150.841 193.49 CURVE",
"78. 193.49 LINE",
"83.053 144.622 OFFCURVE",
"106.786 100.09 OFFCURVE",
"145.231 67.602 CURVE SMOOTH",
"193.335 26.948 OFFCURVE",
"264.195 2.178 OFFCURVE",
"347.46 -3.662 CURVE",
"347.46 -117.01 LINE",
"404.087 -117.01 LINE",
"404.087 -4.757 LINE",
"584.342 0.817 OFFCURVE",
"667.127 91.098 OFFCURVE",
"668.994 180.592 CURVE SMOOTH",
"670.632 258.332 OFFCURVE",
"641.43 351.114 OFFCURVE",
"404.087 384.319 CURVE"
);
},
{
closed = 1;
nodes = (
"181.943 588.244 OFFCURVE",
"244.818 635.229 OFFCURVE",
"347.46 642.006 CURVE",
"347.46 391.329 LINE",
"161.056 419.582 OFFCURVE",
"176.555 509.31 OFFCURVE",
"177.62 524.916 CURVE"
);
},
{
closed = 1;
nodes = (
"534.838 77.515 OFFCURVE",
"481.201 59.122 OFFCURVE",
"404.087 56.649 CURVE",
"404.087 318.88 LINE",
"594.437 292.11 OFFCURVE",
"593.385 208.706 OFFCURVE",
"594.279 196.929 CURVE",
"594.598 192.719 OFFCURVE",
"599.281 145.982 OFFCURVE",
"568.094 112.839 CURVE SMOOTH"
);
}
);
width = 747;
}
);
unicode = 0024;
},
{
glyphname = Euro;
layers = (
{
layerId = "8f7a17a9-cad9-4f2d-97d0-d99f506acba0";
paths = (
{
closed = 1;
nodes = (
"349.781 59.643 OFFCURVE",
"257.697 128.591 OFFCURVE",
"228.79 256.061 CURVE",
"494.989 256.061 LINE",
"494.989 312.838 LINE",
"220.947 312.838 LINE",
"218.058 333.626 OFFCURVE",
"217.757 365.777 OFFCURVE",
"220.946 388.635 CURVE",
"494.987 388.635 LINE",
"494.987 445.412 LINE",
"228.789 445.412 LINE",
"257.698 572.884 OFFCURVE",
"349.78 641.83 OFFCURVE",
"495.26 641.83 CURVE SMOOTH",
"628.065 641.83 OFFCURVE",
"713.312 587.735 OFFCURVE",
"748.865 480.981 CURVE",
"822.399 480.981 LINE",
"782.583 627.979 OFFCURVE",
"669.404 705.473 OFFCURVE",
"493.719 705.473 CURVE SMOOTH",
"306.437 705.473 OFFCURVE",
"187.12 611.964 OFFCURVE",
"155.56 445.412 CURVE",
"32. 445.412 LINE",
"32. 388.635 LINE",
"148.836 388.635 LINE",
"146.678 361.282 OFFCURVE",
"146.678 340.191 OFFCURVE",
"148.836 312.837 CURVE",
"32. 312.837 LINE",
"32. 256.06 LINE",
"155.561 256.06 LINE",
"187.121 89.509 OFFCURVE",
"306.438 -4 OFFCURVE",
"493.72 -4 CURVE SMOOTH",
"669.405 -4 OFFCURVE",
"782.584 73.496 OFFCURVE",
"822.4 220.495 CURVE",
"748.866 220.495 LINE",
"713.318 113.738 OFFCURVE",
"628.071 59.643 OFFCURVE",
"495.261 59.643 CURVE SMOOTH"
);
}
);
width = 900;
}
);
unicode = 20AC;
},
{
glyphname = percent;
layers = (
{
layerId = "8f7a17a9-cad9-4f2d-97d0-d99f506acba0";
paths = (
{
closed = 1;
nodes = (
"658.878 699.686 LINE",
"182.087 0.165 LINE",
"243.637 0.165 LINE",
"720.427 699.686 LINE"
);
},
{
closed = 1;
nodes = (
"566.793 357.673 OFFCURVE",
"512.963 286.606 OFFCURVE",
"512.963 176.336 CURVE SMOOTH",
"512.963 66.066 OFFCURVE",
"566.793 -5 OFFCURVE",
"668.739 -5 CURVE SMOOTH",
"770.686 -5 OFFCURVE",
"824.515 66.066 OFFCURVE",
"824.515 176.336 CURVE SMOOTH",
"824.515 286.606 OFFCURVE",
"770.686 357.673 OFFCURVE",
"668.739 357.673 CURVE SMOOTH"
);
},
{
closed = 1;
nodes = (
"596.354 41.486 OFFCURVE",
"563. 93.022 OFFCURVE",
"563. 176.335 CURVE SMOOTH",
"563. 259.65 OFFCURVE",
"596.354 311.188 OFFCURVE",
"668.74 311.188 CURVE SMOOTH",
"741.122 311.188 OFFCURVE",
"774.476 259.65 OFFCURVE",
"774.476 176.335 CURVE SMOOTH",
"774.476 93.022 OFFCURVE",
"741.122 41.486 OFFCURVE",
"668.74 41.486 CURVE SMOOTH"
);
},
{
closed = 1;
nodes = (
"389.551 633.496 OFFCURVE",
"335.723 704.563 OFFCURVE",
"233.775 704.563 CURVE SMOOTH",
"131.829 704.563 OFFCURVE",
"78 633.496 OFFCURVE",
"78 523.227 CURVE SMOOTH",
"78 412.957 OFFCURVE",
"131.829 341.89 OFFCURVE",
"233.775 341.89 CURVE SMOOTH",
"335.723 341.89 OFFCURVE",
"389.551 412.957 OFFCURVE",
"389.551 523.227 CURVE SMOOTH"
);
},
{
closed = 1;
nodes = (
"128.036 606.541 OFFCURVE",
"161.391 658.078 OFFCURVE",
"233.776 658.078 CURVE SMOOTH",
"306.158 658.078 OFFCURVE",
"339.513 606.541 OFFCURVE",
"339.513 523.226 CURVE SMOOTH",
"339.513 439.913 OFFCURVE",
"306.158 388.377 OFFCURVE",
"233.776 388.377 CURVE SMOOTH",
"161.391 388.377 OFFCURVE",
"128.036 439.913 OFFCURVE",
"128.036 523.226 CURVE SMOOTH"
);
}
);
width = 903;
}
);
unicode = 0025;
},
{
glyphname = ampersand;
layers = (
{
layerId = "8f7a17a9-cad9-4f2d-97d0-d99f506acba0";
paths = (
{
closed = 1;
nodes = (
"626.061 163.937 OFFCURVE",
"640.955 203.569 OFFCURVE",
"648.675 252.81 CURVE",
"585.557 252.81 LINE",
"585.557 252.81 OFFCURVE",
"579.218 220.416 OFFCURVE",
"557.706 182.589 CURVE",
"557.706 182.589 OFFCURVE",
"304.942 421.691 OFFCURVE",
"238.414 534.278 CURVE SMOOTH",
"222.657 560.943 OFFCURVE",
"201.571 641.881 OFFCURVE",
"339.049 645.142 CURVE",
"463.688 642.009 OFFCURVE",
"456.547 586.957 OFFCURVE",
"445.946 553.895 CURVE",
"511.386 553.895 LINE",
"530.006 625.398 OFFCURVE",
"505.278 707.55 OFFCURVE",
"340.926 707.55 CURVE SMOOTH",
"169.752 707.55 OFFCURVE",
"142.518 609.992 OFFCURVE",
"166.059 531.8 CURVE",
"166.059 531.8 OFFCURVE",
"176.402 488.121 OFFCURVE",
"231.467 425.881 CURVE",
"81.769 355.393 OFFCURVE",
"77.12 234.471 OFFCURVE",
"78.062 193.773 CURVE SMOOTH",
"78.914 156.941 OFFCURVE",
"95.974 -11.985 OFFCURVE",
"351.853 -4.776 CURVE",
"351.853 -4.776 OFFCURVE",
"477.871 -7.935 OFFCURVE",
"567.016 80.696 CURVE",
"642.183 -0.329 OFFCURVE",
"680.899 3.184 OFFCURVE",
"694.733 3.184 CURVE",
"694.733 74.546 LINE",
"664.616 75.04 OFFCURVE",
"635.359 98.27 OFFCURVE",
"606.956 131.92 CURVE"
);
},
{
closed = 1;
nodes = (
"362.942 65.691 OFFCURVE",
"151.04 46.916 OFFCURVE",
"147.15 203.339 CURVE SMOOTH",
"144.932 292.481 OFFCURVE",
"222.397 350.575 OFFCURVE",
"277.734 372.819 CURVE",
"514.097 127.1 LINE",
"480.389 93.031 OFFCURVE",
"435.513 68.329 OFFCURVE",
"362.942 65.691 CURVE"
);
}
);
width = 773;
}
);
unicode = 0026;
},
{
glyphname = parenleft;
layers = (
{
layerId = "8f7a17a9-cad9-4f2d-97d0-d99f506acba0";
paths = (
{
closed = 1;
nodes = (
"179.344 730.135 LINE",
"-81.848 257.845 OFFCURVE",
"182.221 -149.188 OFFCURVE",
"182.221 -149.188 CURVE",
"248.182 -149.188 LINE",
"-0.238 290.473 OFFCURVE",
"219.044 681.671 OFFCURVE",
"245.25 730.135 CURVE"
);
}
);
width = 326;
}
);
unicode = 0028;
},
{
glyphname = parenright;
layers = (
{
layerId = "8f7a17a9-cad9-4f2d-97d0-d99f506acba0";
paths = (
{
closed = 1;
nodes = (
"146.838 730.135 LINE",
"408.03 257.845 OFFCURVE",
"143.961 -149.188 OFFCURVE",
"143.961 -149.188 CURVE",
"78. -149.188 LINE",
"326.42 290.473 OFFCURVE",
"107.138 681.671 OFFCURVE",
"80.933 730.135 CURVE"
);
}
);
width = 326;
}
);
unicode = 0029;
},
{
glyphname = braceleft;
layers = (
{
layerId = "8f7a17a9-cad9-4f2d-97d0-d99f506acba0";
paths = (
{
closed = 1;
nodes = (
"316.831 672.831 LINE",
"316.831 729.47 LINE",
"278.617 729.47 LINE SMOOTH",
"128.823 729.47 OFFCURVE",
"137.085 599.87 OFFCURVE",
"137.085 599.87 CURVE",
"137.085 367.2 LINE SMOOTH",
"137.085 316.377 OFFCURVE",
"90.6 318.244 OFFCURVE",
"90.6 318.244 CURVE",
"64. 318.244 LINE",
"64. 261.975 LINE",
"90.6 261.975 LINE",
"90.6 261.975 OFFCURVE",
"137.085 263.841 OFFCURVE",
"137.085 213.017 CURVE SMOOTH",
"137.085 -19.652 LINE",
"137.085 -19.652 OFFCURVE",
"128.823 -149.252 OFFCURVE",
"278.617 -149.252 CURVE SMOOTH",
"316.831 -149.252 LINE",
"316.831 -92.613 LINE",
"288.947 -92.613 LINE",
"288.947 -92.613 OFFCURVE",
"210.433 -98.442 OFFCURVE",
"210.433 -15.813 CURVE SMOOTH",
"210.433 217.681 LINE",
"210.433 217.681 OFFCURVE",
"216.881 267.414 OFFCURVE",
"165.723 290.109 CURVE",
"216.881 312.805 OFFCURVE",
"210.433 362.536 OFFCURVE",
"210.433 362.536 CURVE",
"210.433 596.031 LINE SMOOTH",
"210.433 678.66 OFFCURVE",
"288.947 672.831 OFFCURVE",
"288.947 672.831 CURVE"
);
}
);
width = 395;
}
);
unicode = 007B;
},
{
glyphname = braceright;
layers = (
{
layerId = "8f7a17a9-cad9-4f2d-97d0-d99f506acba0";
paths = (
{
closed = 1;
nodes = (
"78. 672.831 LINE",
"78. 729.47 LINE",
"116.214 729.47 LINE SMOOTH",
"266.008 729.47 OFFCURVE",
"257.746 599.87 OFFCURVE",
"257.746 599.87 CURVE",
"257.746 367.2 LINE SMOOTH",
"257.746 316.377 OFFCURVE",
"304.231 318.244 OFFCURVE",
"304.231 318.244 CURVE",
"330.831 318.244 LINE",
"330.831 261.975 LINE",
"304.231 261.975 LINE",
"304.231 261.975 OFFCURVE",
"257.746 263.841 OFFCURVE",
"257.746 213.017 CURVE SMOOTH",
"257.746 -19.652 LINE",
"257.746 -19.652 OFFCURVE",
"266.008 -149.252 OFFCURVE",
"116.214 -149.252 CURVE SMOOTH",
"78. -149.252 LINE",
"78. -92.613 LINE",
"105.884 -92.613 LINE",
"105.884 -92.613 OFFCURVE",
"184.398 -98.442 OFFCURVE",
"184.398 -15.813 CURVE SMOOTH",
"184.398 217.681 LINE",
"184.398 217.681 OFFCURVE",
"177.95 267.414 OFFCURVE",
"229.108 290.109 CURVE",
"177.95 312.805 OFFCURVE",
"184.398 362.536 OFFCURVE",
"184.398 362.536 CURVE",
"184.398 596.031 LINE SMOOTH",
"184.398 678.66 OFFCURVE",
"105.884 672.831 OFFCURVE",
"105.884 672.831 CURVE"
);
}
);
width = 395;
}
);
unicode = 007D;
},
{
glyphname = bar;
layers = (
{
layerId = "8f7a17a9-cad9-4f2d-97d0-d99f506acba0";
paths = (
{
closed = 1;
nodes = (
"160.174 729.47 LINE",
"92 729.47 LINE",
"92 -149.252 LINE",
"160.174 -149.252 LINE"
);
}
);
width = 252;
}
);
unicode = 007C;
},
{
glyphname = bracketleft;
layers = (
{
layerId = "8f7a17a9-cad9-4f2d-97d0-d99f506acba0";
paths = (
{
closed = 1;
nodes = (
"281.037 674.831 LINE",
"281.037 730.135 LINE",
"92. 730.135 LINE",
"92. -149.188 LINE",
"281.037 -149.188 LINE",
"281.037 -93.884 LINE",
"165.115 -93.884 LINE",
"165.115 674.831 LINE"
);
}
);
width = 345;
}
);
unicode = 005B;
},
{
glyphname = bracketright;
layers = (
{
layerId = "8f7a17a9-cad9-4f2d-97d0-d99f506acba0";
paths = (
{
closed = 1;
nodes = (
"64. 674.831 LINE",
"64. 730.135 LINE",
"253.037 730.135 LINE",
"253.037 -149.188 LINE",
"64. -149.188 LINE",
"64. -93.884 LINE",
"179.922 -93.884 LINE",
"179.922 674.831 LINE"
);
}
);
width = 345;
}
);
unicode = 005D;
},
{
glyphname = quoteleft;
layers = (
{
layerId = "8f7a17a9-cad9-4f2d-97d0-d99f506acba0";
paths = (
{
closed = 1;
nodes = (
"184.192 729.969 LINE",
"134.605 729.969 LINE",
"80.28 550.571 LINE",
"78.91 545.414 OFFCURVE",
"78. 539.888 OFFCURVE",
"78. 533.703 CURVE",
"78. 501.79 OFFCURVE",
"96.784 483.005 OFFCURVE",
"128.697 483.005 CURVE SMOOTH",
"160.61 483.005 OFFCURVE",
"179.396 501.79 OFFCURVE",
"179.396 533.703 CURVE SMOOTH",
"179.396 557.954 OFFCURVE",
"168.5 574.564 OFFCURVE",
"149.286 581.17 CURVE"
);
}
);
width = 231;
}
);
unicode = 2018;
},
{
glyphname = quoteright;
layers = (
{
layerId = "8f7a17a9-cad9-4f2d-97d0-d99f506acba0";
paths = (
{
closed = 1;
nodes = (
"46.8 483.005 LINE",
"96.387 483.005 LINE",
"150.713 662.403 LINE",
"152.082 667.56 OFFCURVE",
"152.992 673.087 OFFCURVE",
"152.992 679.271 CURVE",
"152.992 711.185 OFFCURVE",
"134.208 729.969 OFFCURVE",
"102.296 729.969 CURVE SMOOTH",
"70.382 729.969 OFFCURVE",
"51.596 711.185 OFFCURVE",
"51.596 679.271 CURVE SMOOTH",
"51.596 655.021 OFFCURVE",
"62.492 638.41 OFFCURVE",
"81.706 631.804 CURVE"
);
}
);
width = 231;
}
);
unicode = 2019;
},
{
glyphname = quotedblleft;
layers = (
{
layerId = "8f7a17a9-cad9-4f2d-97d0-d99f506acba0";
paths = (
{
closed = 1;
nodes = (
"238.099 501.775 OFFCURVE",
"256.89 482.985 OFFCURVE",
"288.799 482.985 CURVE SMOOTH",
"320.708 482.985 OFFCURVE",
"339.499 501.775 OFFCURVE",
"339.499 533.684 CURVE SMOOTH",
"339.499 557.939 OFFCURVE",
"328.601 574.55 OFFCURVE",
"309.387 581.161 CURVE",
"344.292 729.954 LINE",
"294.708 729.954 LINE",
"240.382 550.553 LINE",
"239.008 545.399 OFFCURVE",
"238.099 539.872 OFFCURVE",
"238.099 533.684 CURVE"
);
},
{
closed = 1;
nodes = (
"77.997 501.796 OFFCURVE",
"96.787 483.005 OFFCURVE",
"128.697 483.005 CURVE SMOOTH",
"160.606 483.005 OFFCURVE",
"179.396 501.796 OFFCURVE",
"179.396 533.705 CURVE SMOOTH",
"179.396 557.96 OFFCURVE",
"168.498 574.57 OFFCURVE",
"149.284 581.182 CURVE",
"184.189 729.975 LINE",
"134.605 729.975 LINE",
"80.28 550.574 LINE",
"78.906 545.419 OFFCURVE",
"77.997 539.893 OFFCURVE",
"77.997 533.705 CURVE"
);
}
);
width = 391;
}
);
unicode = 201C;
},
{
glyphname = quotedblright;
layers = (
{
layerId = "8f7a17a9-cad9-4f2d-97d0-d99f506acba0";
paths = (
{
closed = 1;
nodes = (
"313.095 711.164 OFFCURVE",
"294.305 729.954 OFFCURVE",
"262.395 729.954 CURVE SMOOTH",
"230.486 729.954 OFFCURVE",
"211.696 711.164 OFFCURVE",
"211.696 679.255 CURVE SMOOTH",
"211.696 655. OFFCURVE",
"222.594 638.389 OFFCURVE",
"241.808 631.778 CURVE",
"206.903 482.985 LINE",
"256.487 482.985 LINE",
"310.812 662.386 LINE",
"312.186 667.541 OFFCURVE",
"313.095 673.067 OFFCURVE",
"313.095 679.255 CURVE"
);
},
{
closed = 1;
nodes = (
"152.992 711.185 OFFCURVE",
"134.202 729.975 OFFCURVE",
"102.293 729.975 CURVE SMOOTH",
"70.383 729.975 OFFCURVE",
"51.593 711.185 OFFCURVE",
"51.593 679.275 CURVE SMOOTH",
"51.593 655.02 OFFCURVE",
"62.491 638.41 OFFCURVE",
"81.705 631.799 CURVE",
"46.8 483.005 LINE",
"96.384 483.005 LINE",
"150.709 662.406 LINE",
"152.083 667.561 OFFCURVE",
"152.992 673.088 OFFCURVE",
"152.992 679.275 CURVE"
);
}
);
width = 391;
}
);
unicode = 201D;
},
{
glyphname = quotesinglbase;
layers = (
{
layerId = "8f7a17a9-cad9-4f2d-97d0-d99f506acba0";
paths = (
{
closed = 1;
nodes = (
"152.992 78.631 OFFCURVE",
"134.207 97.417 OFFCURVE",
"102.295 97.417 CURVE SMOOTH",
"70.381 97.417 OFFCURVE",
"51.595 78.631 OFFCURVE",
"51.595 46.718 CURVE SMOOTH",
"51.595 22.467 OFFCURVE",
"62.492 5.858 OFFCURVE",
"81.706 -0.75 CURVE",
"46.8 -149.548 LINE",
"96.387 -149.548 LINE",
"150.711 29.849 LINE",
"152.081 35.007 OFFCURVE",
"152.992 40.533 OFFCURVE",
"152.992 46.718 CURVE"
);
}
);
width = 231;
}
);
unicode = 201A;
},
{
glyphname = quotedblbase;
layers = (
{
layerId = "8f7a17a9-cad9-4f2d-97d0-d99f506acba0";
paths = (
{
closed = 1;
nodes = (
"256.738 -148.798 LINE",
"311.064 30.6 LINE",
"312.434 35.756 OFFCURVE",
"313.344 41.283 OFFCURVE",
"313.344 47.467 CURVE",
"313.344 79.381 OFFCURVE",
"294.56 98.165 OFFCURVE",
"262.647 98.165 CURVE SMOOTH",
"230.734 98.165 OFFCURVE",
"211.948 79.381 OFFCURVE",
"211.948 47.467 CURVE SMOOTH",
"211.948 23.217 OFFCURVE",
"222.844 6.606 OFFCURVE",
"242.058 0 CURVE",
"207.152 -148.798 LINE"
);
},
{
closed = 1;
nodes = (
"46.8 -148.798 LINE",
"96.387 -148.798 LINE",
"150.962 30.617 LINE",
"150.962 30.617 OFFCURVE",
"152.993 41.283 OFFCURVE",
"152.993 47.467 CURVE",
"152.993 79.381 OFFCURVE",
"134.208 98.165 OFFCURVE",
"102.295 98.165 CURVE SMOOTH",
"70.382 98.165 OFFCURVE",
"51.596 79.381 OFFCURVE",
"51.596 47.467 CURVE SMOOTH",
"51.596 23.217 OFFCURVE",
"62.493 6.606 OFFCURVE",
"81.706 0 CURVE"
);
}
);
width = 391;
}
);
unicode = 201E;
},
{
glyphname = bullet;
layers = (
{
layerId = "8f7a17a9-cad9-4f2d-97d0-d99f506acba0";
paths = (
{
closed = 1;
nodes = (
"200.304 365.167 OFFCURVE",
"228.116 337.355 OFFCURVE",
"228.116 290.109 CURVE SMOOTH",
"228.116 242.863 OFFCURVE",
"200.304 215.05 OFFCURVE",
"153.059 215.05 CURVE SMOOTH",
"105.813 215.05 OFFCURVE",
"78. 242.863 OFFCURVE",
"78. 290.109 CURVE SMOOTH",
"78. 337.355 OFFCURVE",
"105.812 365.167 OFFCURVE",
"153.059 365.167 CURVE SMOOTH"
);
}
);
width = 306;
}
);
unicode = 2022;
},
{
glyphname = underscore;
layers = (
{
layerId = "8f7a17a9-cad9-4f2d-97d0-d99f506acba0";
paths = (
{
closed = 1;
nodes = (
"582.584 -54.196 LINE",
"64. -54.196 LINE",
"64. 0.392 LINE",
"582.584 0.392 LINE"
);
}
);
width = 647;
}
);
unicode = 005F;
},
{
glyphname = endash;
layers = (
{
layerId = "8f7a17a9-cad9-4f2d-97d0-d99f506acba0";
paths = (
{
closed = 1;
nodes = (
"582.584 262.097 LINE",
"64. 262.097 LINE",
"64. 316.685 LINE",
"582.584 316.685 LINE"
);
}
);
width = 647;
}
);
unicode = 2013;
},
{
glyphname = emdash;
layers = (
{
layerId = "8f7a17a9-cad9-4f2d-97d0-d99f506acba0";
paths = (
{
closed = 1;
nodes = (
"1090.933 262.097 LINE",
"64. 262.097 LINE",
"64. 316.685 LINE",
"1090.933 316.685 LINE"
);
}
);
width = 1155;
}
);
unicode = 2014;
},
{
glyphname = macron;
layers = (
{
components = (
{
name = space;
transform = "{1, 0, 0, 1, -3.399, 0}";
alignment = -1;
}
);
layerId = "8f7a17a9-cad9-4f2d-97d0-d99f506acba0";
paths = (
{
closed = 1;
nodes = (
"382.985 690. LINE",
"64. 690. LINE",
"64. 640.418 LINE",
"382.985 640.418 LINE"
);
}
);
width = 447;
}
);
unicode = 00AF;
},
{
glyphname = logicalnot;
layers = (
{
layerId = "8f7a17a9-cad9-4f2d-97d0-d99f506acba0";
paths = (
{
closed = 1;
nodes = (
"64. 320.123 LINE",
"64. 258.713 LINE",
"447.82 258.713 LINE",
"447.82 72.773 LINE",
"513.496 72.773 LINE",
"513.496 320.122 LINE"
);
}
);
width = 577;
}
);
unicode = 00AC;
},
{
glyphname = trademark;
layers = (
{
layerId = "8f7a17a9-cad9-4f2d-97d0-d99f506acba0";
paths = (
{
closed = 1;
nodes = (
"64 652.78 LINE",
"209.848 652.78 LINE",
"209.848 289.921 LINE",
"264.031 289.921 LINE",
"264.031 652.78 LINE",
"409.877 652.78 LINE",
"409.877 700.478 LINE",
"64 700.478 LINE"
);
},
{
closed = 1;
nodes = (
"852.496 700.478 LINE",
"686.645 375.699 LINE",
"520.794 700.478 LINE",
"465.373 700.478 LINE",
"465.373 289.823 LINE",
"519.547 289.823 LINE",
"519.547 587.825 LINE",
"673.047 289.823 LINE",
"700.243 289.823 LINE",
"853.735 587.825 LINE",
"853.735 289.823 LINE",
"907.917 289.823 LINE",
"907.917 700.478 LINE"
);
}
);
width = 972;
}
);
unicode = 2122;
},
{
glyphname = registered;
layers = (
{
layerId = "8f7a17a9-cad9-4f2d-97d0-d99f506acba0";
paths = (
{
closed = 1;
nodes = (
"195.476 705.796 OFFCURVE",
"64. 574.323 OFFCURVE",
"64. 350.976 CURVE SMOOTH",
"64. 127.632 OFFCURVE",
"195.476 -3.845 OFFCURVE",
"418.82 -3.845 CURVE SMOOTH",
"642.167 -3.845 OFFCURVE",
"773.642 127.632 OFFCURVE",
"773.642 350.976 CURVE SMOOTH",
"773.642 574.323 OFFCURVE",
"642.167 705.796 OFFCURVE",
"418.82 705.796 CURVE SMOOTH"
);
},
{
closed = 1;
nodes = (
"221.178 44.488 OFFCURVE",
"112.333 153.334 OFFCURVE",
"112.333 350.976 CURVE SMOOTH",
"112.333 548.618 OFFCURVE",
"221.178 657.464 OFFCURVE",
"418.82 657.464 CURVE SMOOTH",
"616.463 657.464 OFFCURVE",
"725.309 548.618 OFFCURVE",
"725.309 350.976 CURVE SMOOTH",
"725.309 153.334 OFFCURVE",
"616.463 44.488 OFFCURVE",
"418.82 44.488 CURVE SMOOTH"
);
},
{
closed = 1;
nodes = (
"597.146 523.602 OFFCURVE",
"544.34 567.621 OFFCURVE",
"440.191 567.621 CURVE",
"267.416 567.587 LINE",
"267.416 153.345 LINE",
"322.047 153.345 LINE",
"322.047 306.459 LINE",
"344.268 306.468 OFFCURVE",
"424.768 306.513 OFFCURVE",
"441.373 306.533 CURVE",
"550.417 153.242 LINE",
"612.789 153.242 LINE",
"499.588 312.522 LINE",
"564.334 327.243 OFFCURVE",
"597.146 369.01 OFFCURVE",
"597.146 436.783 CURVE SMOOTH"
);
},
{
closed = 1;
nodes = (
"322.047 354.394 LINE",
"322.047 519.167 LINE",
"437.664 519.167 LINE SMOOTH",
"509.698 519.167 OFFCURVE",
"541.823 493.758 OFFCURVE",
"541.823 436.777 CURVE SMOOTH",
"541.823 379.802 OFFCURVE",
"509.698 354.393 OFFCURVE",
"437.664 354.394 CURVE SMOOTH"
);
}
);
width = 838;
}
);
unicode = 00AE;
},
{
glyphname = copyright;
layers = (
{
layerId = "8f7a17a9-cad9-4f2d-97d0-d99f506acba0";
paths = (
{
closed = 1;
nodes = (
"195.476 705.641 OFFCURVE",
"64 574.167 OFFCURVE",
"64 350.821 CURVE SMOOTH",
"64 127.476 OFFCURVE",
"195.476 -4 OFFCURVE",
"418.82 -4 CURVE SMOOTH",
"642.167 -4 OFFCURVE",
"773.642 127.476 OFFCURVE",
"773.642 350.821 CURVE SMOOTH",
"773.642 574.167 OFFCURVE",
"642.167 705.641 OFFCURVE",
"418.82 705.641 CURVE SMOOTH"
);
},
{
closed = 1;
nodes = (
"221.178 44.333 OFFCURVE",
"112.333 153.179 OFFCURVE",
"112.333 350.821 CURVE SMOOTH",
"112.333 548.463 OFFCURVE",
"221.178 657.309 OFFCURVE",
"418.82 657.309 CURVE SMOOTH",
"616.462 657.309 OFFCURVE",
"725.309 548.463 OFFCURVE",
"725.309 350.821 CURVE SMOOTH",
"725.309 153.179 OFFCURVE",
"616.462 44.333 OFFCURVE",
"418.82 44.333 CURVE SMOOTH"
);
},
{
closed = 1;
nodes = (
"500.852 510.603 OFFCURVE",
"545.723 478.54 OFFCURVE",
"563.236 417.243 CURVE",
"626.354 417.243 LINE",
"605.817 513.104 OFFCURVE",
"537.722 567.898 OFFCURVE",
"422.65 567.898 CURVE SMOOTH",
"289.607 567.898 OFFCURVE",
"211.287 487.833 OFFCURVE",
"211.287 351.821 CURVE SMOOTH",
"211.287 215.81 OFFCURVE",
"292.979 135.784 OFFCURVE",
"426.022 135.784 CURVE SMOOTH",
"541.094 135.784 OFFCURVE",
"605.817 190.538 OFFCURVE",
"626.354 286.399 CURVE",
"563.238 286.399 LINE",
"545.724 225.101 OFFCURVE",
"505.716 189.746 OFFCURVE",
"423.544 192.037 CURVE SMOOTH",
"322.25 193.27 OFFCURVE",
"273.345 247.942 OFFCURVE",
"273.345 351.82 CURVE SMOOTH",
"273.345 455.698 OFFCURVE",
"325.283 510.603 OFFCURVE",
"423.544 510.603 CURVE SMOOTH"
);
}
);
width = 838;
}
);
unicode = 00A9;
},
{
glyphname = currency;
layers = (
{
layerId = "8f7a17a9-cad9-4f2d-97d0-d99f506acba0";
paths = (
{
closed = 1;
nodes = (
"683.639 344.826 OFFCURVE",
"665.857 404.725 OFFCURVE",
"632.627 450.068 CURVE",
"737.133 554.575 LINE",
"689.654 602.052 LINE",
"585.148 497.547 LINE",
"539.803 530.776 OFFCURVE",
"479.903 548.56 OFFCURVE",
"407.563 548.56 CURVE SMOOTH",
"335.225 548.56 OFFCURVE",
"275.326 530.776 OFFCURVE",
"229.983 497.547 CURVE",
"125.476 602.052 LINE",
"78. 554.575 LINE",
"182.505 450.069 LINE",
"149.276 404.725 OFFCURVE",
"131.491 344.826 OFFCURVE",
"131.491 272.486 CURVE SMOOTH",
"131.491 200.146 OFFCURVE",
"149.276 140.247 OFFCURVE",
"182.505 94.904 CURVE",
"78. -9.603 LINE",
"125.476 -57.081 LINE",
"229.983 47.425 LINE",
"275.326 14.194 OFFCURVE",
"335.225 -3.589 OFFCURVE",
"407.563 -3.589 CURVE SMOOTH",
"479.903 -3.589 OFFCURVE",
"539.803 14.194 OFFCURVE",
"585.148 47.425 CURVE",
"689.654 -57.081 LINE",
"737.133 -9.603 LINE",
"632.627 94.904 LINE",
"665.857 140.247 OFFCURVE",
"683.639 200.146 OFFCURVE",
"683.639 272.486 CURVE SMOOTH"
);
},
{
closed = 1;
nodes = (
"271.817 59.928 OFFCURVE",
"200.063 133.428 OFFCURVE",
"200.063 272.486 CURVE SMOOTH",
"200.063 485.043 OFFCURVE",
"407.566 485.043 QCURVE SMOOTH",
"545.901 485.043 OFFCURVE",
"615.069 414.19 OFFCURVE",
"615.069 272.486 CURVE SMOOTH",
"615.069 133.428 OFFCURVE",
"543.314 59.928 OFFCURVE",
"407.566 59.928 CURVE SMOOTH"
);
}
);
width = 815;
}
);
unicode = 00A4;
},
{
glyphname = cent;
layers = (
{
layerId = "8f7a17a9-cad9-4f2d-97d0-d99f506acba0";
paths = (
{
closed = 1;
nodes = (
"376.335 478.493 LINE",
"458.975 471.648 OFFCURVE",
"510.044 432.485 OFFCURVE",
"531.768 359.131 CURVE",
"607.372 359.131 LINE",
"581.413 474.113 OFFCURVE",
"501.815 538.496 OFFCURVE",
"376.335 546.78 CURVE",
"376.335 655.981 LINE",
"319.705 655.981 LINE",
"319.705 546.712 LINE",
"167.752 535.692 OFFCURVE",
"78. 434.673 OFFCURVE",
"78. 271.685 CURVE SMOOTH",
"78. 108.695 OFFCURVE",
"167.752 7.677 OFFCURVE",
"319.705 -3.343 CURVE",
"319.705 -112.051 LINE",
"376.335 -112.051 LINE",
"376.335 -3.411 LINE",
"501.815 4.872 OFFCURVE",
"581.413 69.256 OFFCURVE",
"607.372 184.237 CURVE",
"531.768 184.237 LINE",
"510.054 110.884 OFFCURVE",
"458.984 71.721 OFFCURVE",
"376.335 64.875 CURVE"
);
},
{
closed = 1;
nodes = (
"319.705 65.2 LINE",
"210.061 75.686 OFFCURVE",
"152.226 146.425 OFFCURVE",
"152.226 271.685 CURVE SMOOTH",
"152.226 396.944 OFFCURVE",
"210.061 467.683 OFFCURVE",
"319.705 478.169 CURVE"
);
}
);
width = 685;
}
);
unicode = 00A2;
},
{
glyphname = sterling;
layers = (
{
layerId = "8f7a17a9-cad9-4f2d-97d0-d99f506acba0";
paths = (
{
closed = 1;
nodes = (
"213.735 66.115 LINE",
"231.656 95.69 OFFCURVE",
"230.249 129.51 OFFCURVE",
"230.249 143.204 CURVE",
"230.191 330.747 LINE",
"521.958 330.747 LINE",
"521.958 387.375 LINE",
"230.191 387.375 LINE",
"230.191 486.484 LINE",
"230.191 541.666 OFFCURVE",
"251.999 575.784 OFFCURVE",
"251.999 575.784 CURVE",
"277.586 615.871 OFFCURVE",
"323.095 636.369 OFFCURVE",
"384.177 638.957 CURVE",
"388.939 639.158 OFFCURVE",
"393.559 639.254 OFFCURVE",
"398.059 639.254 CURVE",
"454.783 639.254 OFFCURVE",
"498.201 623.74 OFFCURVE",
"527.093 593.143 CURVE SMOOTH",
"556.428 562.072 OFFCURVE",
"561.876 524.449 OFFCURVE",
"562.854 509.862 CURVE",
"625.893 509.862 LINE",
"627.326 543.177 OFFCURVE",
"615.533 594.176 OFFCURVE",
"577.068 636.309 CURVE SMOOTH",
"536.232 681.024 OFFCURVE",
"474.524 704.66 OFFCURVE",
"398.613 704.66 CURVE",
"395.254 704.66 OFFCURVE",
"391.854 704.614 OFFCURVE",
"388.404 704.524 CURVE",
"239.527 700.599 OFFCURVE",
"188.497 617.007 OFFCURVE",
"171.822 565.548 CURVE SMOOTH",
"163.076 539.87 OFFCURVE",
"160.952 509.641 OFFCURVE",
"161.043 494.246 CURVE",
"161.043 387.375 LINE",
"78. 387.375 LINE",
"78. 330.747 LINE",
"161.043 330.747 LINE",
"161.043 153.306 LINE",
"161.043 138.228 OFFCURVE",
"157.015 105.767 OFFCURVE",
"137.493 86.412 CURVE",
"123.579 72.62 OFFCURVE",
"103.843 66.146 OFFCURVE",
"78.247 66.115 CURVE",
"78.247 0 LINE",
"640.753 0 LINE",
"640.753 66.115 LINE"
);
}
);
width = 705;
}
);
unicode = 00A3;
},
{
glyphname = yen;
layers = (
{
layerId = "8f7a17a9-cad9-4f2d-97d0-d99f506acba0";
paths = (
{
closed = 1;
nodes = (
"676.022 700.36 LINE",
"588.46 700.36 LINE",
"354.012 341.121 LINE",
"119.557 700.36 LINE",
"32. 700.36 LINE",
"286.459 321.18 LINE",
"120.93 321.18 LINE",
"120.93 275.121 LINE",
"316.434 275.121 LINE",
"316.434 206.315 LINE",
"120.93 206.315 LINE",
"120.93 160.256 LINE",
"316.434 160.256 LINE",
"316.434 0 LINE",
"391.588 0 LINE",
"391.588 160.256 LINE",
"587.093 160.256 LINE",
"587.093 206.315 LINE",
"391.588 206.315 LINE",
"391.588 275.121 LINE",
"587.093 275.121 LINE",
"587.093 321.18 LINE",
"421.552 321.18 LINE"
);
}
);
width = 708;
}
);
unicode = 00A5;
},
{
glyphname = minus;
layers = (
{
layerId = "8f7a17a9-cad9-4f2d-97d0-d99f506acba0";
paths = (
{
closed = 1;
nodes = (
"532.343 260.209 LINE",
"78 260.209 LINE",
"78 321.303 LINE",
"532.343 321.303 LINE"
);
}
);
width = 610;
}
);
unicode = 2212;
},
{
glyphname = plusminus;
layers = (
{
layerId = "8f7a17a9-cad9-4f2d-97d0-d99f506acba0";
paths = (
{
closed = 1;
nodes = (
"330.468 430.732 LINE",
"330.468 616.672 LINE",
"263.94 616.672 LINE",
"263.94 430.732 LINE",
"78 430.732 LINE",
"78 364.203 LINE",
"263.94 364.203 LINE",
"263.94 178.263 LINE",
"330.468 178.263 LINE",
"330.468 364.203 LINE",
"516.408 364.203 LINE",
"516.408 430.732 LINE"
);
},
{
closed = 1;
nodes = (
"78 0 LINE",
"516.408 0 LINE",
"516.408 59.705 LINE",
"78 59.705 LINE"
);
}
);
width = 594;
}
);
unicode = 00B1;
},
{
glyphname = multiply;
layers = (
{
layerId = "8f7a17a9-cad9-4f2d-97d0-d99f506acba0";
paths = (
{
closed = 1;
nodes = (
"437.957 428.095 LINE",
"395.883 470.169 LINE",
"257.979 332.264 LINE",
"120.074 470.169 LINE",
"78. 428.095 LINE",
"215.904 290.19 LINE",
"78. 152.286 LINE",
"120.074 110.212 LINE",
"257.979 248.116 LINE",
"395.883 110.212 LINE",
"437.957 152.286 LINE",
"300.053 290.19 LINE"
);
}
);
width = 516;
}
);
unicode = 00D7;
},
{
glyphname = divide;
layers = (
{
layerId = "8f7a17a9-cad9-4f2d-97d0-d99f506acba0";
paths = (
{
closed = 1;
nodes = (
"78 320.658 LINE",
"78 259.246 LINE",
"528.349 259.246 LINE",
"528.349 320.658 LINE"
);
},
{
closed = 1;
nodes = (
"260.297 59.306 OFFCURVE",
"275.983 43.62 OFFCURVE",
"303.171 43.986 CURVE SMOOTH",
"330.359 43.62 OFFCURVE",
"346.044 59.306 OFFCURVE",
"346.384 87.2 CURVE SMOOTH",
"346.044 115.796 OFFCURVE",
"330.359 130.413 OFFCURVE",
"303.171 130.413 CURVE SMOOTH",
"274.937 130.413 OFFCURVE",
"260.297 115.796 OFFCURVE",
"259.957 87.2 CURVE SMOOTH"
);
},
{
closed = 1;
nodes = (
"260.609 464.488 OFFCURVE",
"276.295 448.802 OFFCURVE",
"303.483 449.168 CURVE SMOOTH",
"330.671 448.802 OFFCURVE",
"346.357 464.488 OFFCURVE",
"346.697 492.382 CURVE SMOOTH",
"346.357 520.978 OFFCURVE",
"330.671 535.595 OFFCURVE",
"303.483 535.595 CURVE SMOOTH",
"275.249 535.595 OFFCURVE",
"260.609 520.978 OFFCURVE",
"260.27 492.382 CURVE SMOOTH"
);
}
);
width = 606;
}
);
unicode = 00F7;
},
{
glyphname = brokenbar;
layers = (
{
layerId = "8f7a17a9-cad9-4f2d-97d0-d99f506acba0";
paths = (
{
closed = 1;
nodes = (
"160.179 404.59 LINE",
"92. 404.59 LINE",
"92. 735. LINE",
"160.179 735. LINE"
);
},
{
closed = 1;
nodes = (
"160.179 -148.611 LINE",
"92. -148.611 LINE",
"92. 181.8 LINE",
"160.179 181.8 LINE"
);
}
);
width = 252;
}
);
unicode = 00A6;
},
{
glyphname = ellipsis;
layers = (
{
layerId = "8f7a17a9-cad9-4f2d-97d0-d99f506acba0";
paths = (
{
closed = 1;
nodes = (
"235.894 97.398 OFFCURVE",
"217.109 78.612 OFFCURVE",
"217.109 46.7 CURVE SMOOTH",
"217.109 14.786 OFFCURVE",
"235.894 -4 OFFCURVE",
"267.807 -4 CURVE SMOOTH",
"299.72 -4 OFFCURVE",
"318.505 14.786 OFFCURVE",
"318.505 46.7 CURVE SMOOTH",
"318.505 78.612 OFFCURVE",
"299.72 97.398 OFFCURVE",
"267.807 97.398 CURVE SMOOTH"
);
},
{
closed = 1;
nodes = (
"65.586 97.398 OFFCURVE",
"46.8 78.612 OFFCURVE",
"46.8 46.7 CURVE SMOOTH",
"46.8 14.786 OFFCURVE",
"65.586 -4 OFFCURVE",
"97.5 -4 CURVE SMOOTH",
"129.412 -4 OFFCURVE",
"148.197 14.786 OFFCURVE",
"148.197 46.7 CURVE SMOOTH",
"148.197 78.612 OFFCURVE",
"129.412 97.398 OFFCURVE",
"97.5 97.398 CURVE SMOOTH"
);
},
{
closed = 1;
nodes = (
"406.201 97.398 OFFCURVE",
"387.415 78.612 OFFCURVE",
"387.415 46.7 CURVE SMOOTH",
"387.415 14.786 OFFCURVE",
"406.201 -4 OFFCURVE",
"438.114 -4 CURVE SMOOTH",
"470.027 -4 OFFCURVE",
"488.812 14.786 OFFCURVE",
"488.812 46.7 CURVE SMOOTH",
"488.812 78.612 OFFCURVE",
"470.027 97.398 OFFCURVE",
"438.114 97.398 CURVE SMOOTH"
);
}
);
width = 567;
}
);
unicode = 2026;
},
{
glyphname = periodcentered;
layers = (
{
layerId = "8f7a17a9-cad9-4f2d-97d0-d99f506acba0";
paths = (
{
closed = 1;
nodes = (
"129.412 324.397 OFFCURVE",
"148.197 305.612 OFFCURVE",
"148.197 273.699 CURVE SMOOTH",
"148.197 241.786 OFFCURVE",
"129.412 223 OFFCURVE",
"97.499 223 CURVE SMOOTH",
"65.586 223 OFFCURVE",
"46.8 241.786 OFFCURVE",
"46.8 273.699 CURVE SMOOTH",
"46.8 305.612 OFFCURVE",
"65.586 324.397 OFFCURVE",
"97.499 324.397 CURVE SMOOTH"
);
}
);
width = 226;
}
);
unicode = 00B7;
},
{
glyphname = exclamdown;
layers = (
{
layerId = "8f7a17a9-cad9-4f2d-97d0-d99f506acba0";
paths = (
{
closed = 1;
nodes = (
"163.043 322.106 LINE",
"172.998 -180.644 LINE",
"80.777 -180.644 LINE",
"90.733 322.106 LINE"
);
},
{
closed = 1;
nodes = (
"78.384 507.679 OFFCURVE",
"94.948 524.217 OFFCURVE",
"126.892 524.217 CURVE SMOOTH",
"157.652 524.217 OFFCURVE",
"175.399 507.679 OFFCURVE",
"175.783 475.325 CURVE SMOOTH",
"175.399 443.766 OFFCURVE",
"157.652 426.02 OFFCURVE",
"126.892 426.434 CURVE SMOOTH",
"96.131 426.02 OFFCURVE",
"78.384 443.766 OFFCURVE",
"78. 475.325 CURVE SMOOTH"
);
}
);
width = 254;
}
);
unicode = 00A1;
},
{
glyphname = questiondown;
layers = (
{
layerId = "8f7a17a9-cad9-4f2d-97d0-d99f506acba0";
paths = (
{
closed = 1;
nodes = (
"451.899 -193.571 OFFCURVE",
"500.178 -63.368 OFFCURVE",
"496.632 0. CURVE",
"426.829 0. LINE",
"426.831 -0.158 OFFCURVE",
"425.48 -116.306 OFFCURVE",
"260.637 -115.863 CURVE SMOOTH",
"154.228 -115.577 OFFCURVE",
"82.625 -38.408 OFFCURVE",
"130.681 49.7 CURVE SMOOTH",
"162.16 107.414 OFFCURVE",
"317.047 158.843 OFFCURVE",
"317.047 283.264 CURVE",
"317.047 322.236 LINE",
"242.415 322.236 LINE",
"242.415 284.116 LINE",
"242.415 169.915 OFFCURVE",
"46.8 146.259 OFFCURVE",
"46.8 1.831 CURVE",
"46.8 -106.352 OFFCURVE",
"135.239 -188.903 OFFCURVE",
"260.489 -185.215 CURVE SMOOTH"
);
},
{
closed = 1;
nodes = (
"231.772 444.657 OFFCURVE",
"249.272 427.157 OFFCURVE",
"279.606 427.565 CURVE SMOOTH",
"309.941 427.157 OFFCURVE",
"327.441 444.657 OFFCURVE",
"327.82 475.779 CURVE SMOOTH",
"327.441 507.685 OFFCURVE",
"309.941 523.993 OFFCURVE",
"279.606 523.993 CURVE SMOOTH",
"248.106 523.993 OFFCURVE",
"231.772 507.685 OFFCURVE",
"231.393 475.779 CURVE SMOOTH"
);
}
);
width = 544;
}
);
unicode = 00BF;
},
{
glyphname = degree;
layers = (
{
layerId = "8f7a17a9-cad9-4f2d-97d0-d99f506acba0";
paths = (
{
closed = 1;
nodes = (
"290.76 655.983 OFFCURVE",
"332.345 618.601 OFFCURVE",
"332.345 550.723 CURVE SMOOTH",
"332.345 482.846 OFFCURVE",
"290.76 445.463 OFFCURVE",
"222.919 445.463 CURVE SMOOTH",
"155.08 445.463 OFFCURVE",
"113.496 482.846 OFFCURVE",
"113.496 550.723 CURVE SMOOTH",
"113.496 618.601 OFFCURVE",
"155.08 655.983 OFFCURVE",
"222.919 655.983 CURVE SMOOTH"
);
},
{
closed = 1;
nodes = (
"126.216 704.441 OFFCURVE",
"64. 647.482 OFFCURVE",
"64. 550.723 CURVE SMOOTH",
"64. 453.964 OFFCURVE",
"126.216 397.006 OFFCURVE",
"222.919 397.006 CURVE SMOOTH",
"319.625 397.006 OFFCURVE",
"381.84 453.964 OFFCURVE",
"381.84 550.723 CURVE SMOOTH",
"381.84 647.482 OFFCURVE",
"319.625 704.441 OFFCURVE",
"222.919 704.441 CURVE SMOOTH"
);
}
);
width = 446;
}
);
unicode = 00B0;
},
{
glyphname = ordfeminine;
layers = (
{
layerId = "8f7a17a9-cad9-4f2d-97d0-d99f506acba0";
paths = (
{
closed = 1;
nodes = (
"280.441 699.975 LINE",
"273.465 665.06 LINE",
"251.229 688.93 OFFCURVE",
"218.277 701.945 OFFCURVE",
"176.402 701.945 CURVE SMOOTH",
"94.823 701.945 OFFCURVE",
"46.8 652.851 OFFCURVE",
"46.8 569.452 CURVE SMOOTH",
"46.8 486.053 OFFCURVE",
"94.823 436.959 OFFCURVE",
"176.402 436.959 CURVE SMOOTH",
"218.277 436.959 OFFCURVE",
"251.229 449.975 OFFCURVE",
"273.465 473.845 CURVE",
"280.441 438.93 LINE",
"312.685 438.93 LINE",
"312.685 699.975 LINE"
);
},
{
closed = 1;
nodes = (
"121.561 478.476 OFFCURVE",
"91.046 509.935 OFFCURVE",
"91.046 569.452 CURVE SMOOTH",
"91.046 628.969 OFFCURVE",
"121.561 660.427 OFFCURVE",
"179.294 660.427 CURVE SMOOTH",
"237.025 660.427 OFFCURVE",
"267.541 628.969 OFFCURVE",
"267.541 569.452 CURVE SMOOTH",
"267.541 509.935 OFFCURVE",
"237.025 478.476 OFFCURVE",
"179.294 478.476 CURVE SMOOTH"
);
}
);
width = 391;
}
);
unicode = 00AA;
},
{
glyphname = ordmasculine;
layers = (
{
layerId = "8f7a17a9-cad9-4f2d-97d0-d99f506acba0";
paths = (
{
closed = 1;
nodes = (
"283.053 662.231 OFFCURVE",
"321.019 624.266 OFFCURVE",
"321.019 555.33 CURVE SMOOTH",
"321.019 486.394 OFFCURVE",
"283.053 448.429 OFFCURVE",
"214.117 448.429 CURVE SMOOTH",
"145.18 448.429 OFFCURVE",
"107.216 486.394 OFFCURVE",
"107.216 555.33 CURVE SMOOTH",
"107.216 624.266 OFFCURVE",
"145.18 662.231 OFFCURVE",
"214.117 662.231 CURVE SMOOTH"
);
},
{
closed = 1;
nodes = (
"119.625 705.446 OFFCURVE",
"64. 649.823 OFFCURVE",
"64. 555.33 CURVE SMOOTH",
"64. 460.838 OFFCURVE",
"119.625 405.214 OFFCURVE",
"214.117 405.214 CURVE SMOOTH",
"308.609 405.214 OFFCURVE",
"364.233 460.838 OFFCURVE",
"364.233 555.33 CURVE SMOOTH",
"364.233 649.823 OFFCURVE",
"308.609 705.446 OFFCURVE",
"214.117 705.446 CURVE SMOOTH"
);
}
);
width = 428;
}
);
unicode = 00BA;
},
{
glyphname = onesuperior;
layers = (
{
layerId = "8f7a17a9-cad9-4f2d-97d0-d99f506acba0";
paths = (
{
closed = 1;
nodes = (
"124.427 299.571 LINE",
"124.427 618.242 LINE",
"46.8 563.531 LINE",
"46.8 631.402 LINE",
"140.617 700.005 LINE",
"184.944 700.005 LINE",
"184.944 299.571 LINE"
);
}
);
width = 263;
}
);
unicode = 00B9;
},
{
glyphname = twosuperior;
layers = (
{
layerId = "8f7a17a9-cad9-4f2d-97d0-d99f506acba0";
paths = (
{
closed = 1;
nodes = (
"306.553 494.308 OFFCURVE",
"319.415 540.622 OFFCURVE",
"321.042 582.339 CURVE",
"321.501 593.999 OFFCURVE",
"320.64 634.543 OFFCURVE",
"290.46 666.727 CURVE SMOOTH",
"268.239 690.429 OFFCURVE",
"236.177 702.972 OFFCURVE",
"195.174 704. CURVE",
"193.303 704.046 OFFCURVE",
"191.455 704.07 OFFCURVE",
"189.632 704.07 CURVE",
"134.54 704.07 OFFCURVE",
"102.792 682.72 OFFCURVE",
"85.858 664.816 CURVE SMOOTH",
"62.863 640.504 OFFCURVE",
"55.87 610.922 OFFCURVE",
"56.869 592.976 CURVE",
"57.408 583.42 LINE",
"114.696 583.431 LINE",
"114.905 593.337 LINE",
"114.951 595.503 OFFCURVE",
"116.862 646.342 OFFCURVE",
"188.434 646.342 CURVE",
"190.554 646.342 OFFCURVE",
"192.729 646.296 OFFCURVE",
"194.958 646.208 CURVE",
"222.047 645.11 OFFCURVE",
"241.185 636.396 OFFCURVE",
"251.843 620.304 CURVE",
"266.229 598.589 OFFCURVE",
"262.087 567.45 OFFCURVE",
"257.991 556.586 CURVE",
"248.991 532.72 OFFCURVE",
"230.117 508.96 OFFCURVE",
"163.907 464.32 CURVE SMOOTH",
"97.557 419.582 OFFCURVE",
"46.8 381.391 OFFCURVE",
"46.8 331.465 CURVE",
"46.8 301.488 LINE",
"329.332 301.488 LINE",
"329.332 360.576 LINE",
"126.622 360.576 LINE",
"143.377 379.625 OFFCURVE",
"176.079 405.715 OFFCURVE",
"224.152 438.358 CURVE SMOOTH"
);
}
);
width = 407;
}
);
unicode = 00B2;
},
{
glyphname = threesuperior;
layers = (
{
layerId = "8f7a17a9-cad9-4f2d-97d0-d99f506acba0";
paths = (
{
closed = 1;
nodes = (
"46.844 430.134 LINE",
"46.745 427.968 OFFCURVE",
"44.857 376.845 OFFCURVE",
"81.282 338.699 CURVE SMOOTH",
"106.363 312.447 OFFCURVE",
"142.949 299.137 OFFCURVE",
"190.042 299.137 CURVE SMOOTH",
"225.508 299.137 OFFCURVE",
"341.713 307.712 OFFCURVE",
"348.016 418.085 CURVE",
"348.778 431.499 OFFCURVE",
"349.405 496.222 OFFCURVE",
"294.174 523.666 CURVE",
"310.767 536.999 OFFCURVE",
"333.168 562.903 OFFCURVE",
"330.134 604.226 CURVE SMOOTH",
"325.552 666.608 OFFCURVE",
"278.019 703.846 OFFCURVE",
"202.979 703.846 CURVE SMOOTH",
"125.631 703.846 OFFCURVE",
"74.311 668.67 OFFCURVE",
"64.307 610.43 CURVE",
"127.184 610.43 LINE",
"127.549 611.981 OFFCURVE",
"136.885 648.371 OFFCURVE",
"199.284 648.371 CURVE SMOOTH",
"227.454 648.371 OFFCURVE",
"247.817 641.295 OFFCURVE",
"259.794 627.341 CURVE",
"272.954 612.004 OFFCURVE",
"271.397 594.076 OFFCURVE",
"270.606 588.941 CURVE",
"267.986 571.832 OFFCURVE",
"255.948 543.134 OFFCURVE",
"204.825 543.134 CURVE",
"155.271 543.134 LINE",
"155.271 488.351 LINE",
"211.425 488.38 LINE",
"223.361 488.38 OFFCURVE",
"254.422 487.276 OFFCURVE",
"274.388 465.496 CURVE",
"285.019 453.9 OFFCURVE",
"289.528 437.815 OFFCURVE",
"287.785 417.679 CURVE",
"282.916 361.553 OFFCURVE",
"219.884 355.495 OFFCURVE",
"193.01 355.495 CURVE",
"188.147 355.495 OFFCURVE",
"184.818 355.703 OFFCURVE",
"182.448 355.838 CURVE",
"179.462 355.838 OFFCURVE",
"109.318 356.802 OFFCURVE",
"107.733 430.134 CURVE"
);
}
);
width = 426;
}
);
unicode = 00B3;
},
{
glyphname = uni2074;
layers = (
{
layerId = "8f7a17a9-cad9-4f2d-97d0-d99f506acba0";
paths = (
{
closed = 1;
nodes = (
"270.347 301.059 LINE",
"270.347 398.226 LINE",
"46.8 398.226 LINE",
"46.8 434.625 LINE",
"227.456 699.562 LINE",
"295.313 699.562 LINE",
"126.81 455.736 LINE",
"270.347 455.736 LINE",
"270.347 586.455 LINE",
"329.401 586.455 LINE",
"329.401 301.059 LINE"
);
}
);
width = 407;
}
);
unicode = 2074;
},
{
glyphname = fraction;
layers = (
{
layerId = "8f7a17a9-cad9-4f2d-97d0-d99f506acba0";
paths = (
{
closed = 1;
nodes = (
"507.616 700.475 LINE",
"32. 0. LINE",
"96.25 0. LINE",
"571.867 700.475 LINE"
);
}
);
width = 604;
}
);
unicode = 2044;
},
{
glyphname = onequarter;
layers = (
{
layerId = "8f7a17a9-cad9-4f2d-97d0-d99f506acba0";
paths = (
{
closed = 1;
nodes = (
"651.254 700.475 LINE",
"175.638 0. LINE",
"239.888 0. LINE",
"715.506 700.475 LINE"
);
},
{
closed = 1;
nodes = (
"216.143 299.184 LINE",
"216.143 699.618 LINE",
"171.817 699.618 LINE",
"78 631.015 LINE",
"78 563.144 LINE",
"155.626 617.856 LINE",
"155.626 299.184 LINE"
);
},
{
closed = 1;
nodes = (
"784.013 285.032 LINE",
"784.013 154.314 LINE",
"641.476 154.314 LINE",
"808.979 398.138 LINE",
"741.122 398.138 LINE",
"560.466 133.201 LINE",
"560.466 96.234 LINE",
"784.013 96.234 LINE",
"784.013 -0.365 LINE",
"843.067 -0.365 LINE",
"843.067 285.032 LINE"
);
}
);
width = 921;
}
);
unicode = 00BC;
},
{
glyphname = onehalf;
layers = (
{
layerId = "8f7a17a9-cad9-4f2d-97d0-d99f506acba0";
paths = (
{
closed = 1;
nodes = (
"693.042 59.089 LINE",
"700.2 79.903 OFFCURVE",
"735.498 104.226 OFFCURVE",
"783.571 136.87 CURVE SMOOTH",
"865.973 192.821 OFFCURVE",
"880.835 239.133 OFFCURVE",
"882.461 280.852 CURVE",
"885.459 356.886 OFFCURVE",
"825.931 400.724 OFFCURVE",
"754.594 402.512 CURVE",
"688.504 404.321 OFFCURVE",
"613.183 370.133 OFFCURVE",
"616.289 291.489 CURVE",
"616.829 281.933 LINE",
"674.117 281.944 LINE",
"674.324 291.848 LINE",
"674.372 294.016 OFFCURVE",
"674.372 340.778 OFFCURVE",
"746.046 340.778 CURVE",
"780.034 341.253 OFFCURVE",
"808.36 330.986 OFFCURVE",
"816.911 295.901 CURVE SMOOTH",
"828.241 249.414 OFFCURVE",
"807.85 232.322 OFFCURVE",
"719.328 162.833 CURVE SMOOTH",
"638.777 103.458 OFFCURVE",
"606.221 79.904 OFFCURVE",
"606.221 29.977 CURVE",
"606.221 -0. LINE",
"888.752 -0. LINE",
"888.752 59.089 LINE"
);
},
{
closed = 1;
nodes = (
"650.764 700.88 LINE",
"175.147 0.405 LINE",
"239.398 0.405 LINE",
"715.015 700.88 LINE"
);
},
{
closed = 1;
nodes = (
"216.144 299.588 LINE",
"216.144 700.023 LINE",
"171.818 700.023 LINE",
"78 631.42 LINE",
"78 563.549 LINE",
"155.627 618.261 LINE",
"155.627 299.588 LINE"
);
}
);
width = 967;
}
);
unicode = 00BD;
},
{
glyphname = threequarters;
layers = (
{
layerId = "8f7a17a9-cad9-4f2d-97d0-d99f506acba0";
paths = (
{
closed = 1;
nodes = (
"746.819 700.84 LINE",
"271.203 0.365 LINE",
"335.452 0.365 LINE",
"811.071 700.84 LINE"
);
},
{
closed = 1;
nodes = (
"379.184 428.695 OFFCURVE",
"380.028 493.585 OFFCURVE",
"325.036 520.908 CURVE",
"322.973 521.935 LINE",
"324.772 523.377 LINE",
"342.666 537.751 OFFCURVE",
"363.373 563.28 OFFCURVE",
"360.448 603.265 CURVE SMOOTH",
"355.885 665.245 OFFCURVE",
"308.553 702.247 OFFCURVE",
"233.837 702.247 CURVE SMOOTH",
"158.035 702.247 OFFCURVE",
"106.629 668.212 OFFCURVE",
"95.919 611.096 CURVE",
"156.379 611.096 LINE",
"158.471 617.665 OFFCURVE",
"171.62 649.312 OFFCURVE",
"230.119 649.312 CURVE SMOOTH",
"258.956 649.312 OFFCURVE",
"279.838 642.016 OFFCURVE",
"292.184 627.618 CURVE",
"305.84 611.7 OFFCURVE",
"304.235 593.085 OFFCURVE",
"303.412 587.754 CURVE",
"300.7 570.054 OFFCURVE",
"288.302 540.363 OFFCURVE",
"235.699 540.363 CURVE",
"187.259 540.363 LINE",
"187.259 488.13 LINE",
"242.344 488.16 LINE",
"277.825 488.16 OFFCURVE",
"297.01 475.366 OFFCURVE",
"306.857 464.631 CURVE",
"317.852 452.631 OFFCURVE",
"322.515 436.047 OFFCURVE",
"320.736 415.343 CURVE SMOOTH",
"315.718 357.593 OFFCURVE",
"251.274 351.358 OFFCURVE",
"223.798 351.358 CURVE",
"219.268 351.358 OFFCURVE",
"216.046 351.536 OFFCURVE",
"213.16 351.703 CURVE",
"210.111 351.703 OFFCURVE",
"138.973 352.558 OFFCURVE",
"136.462 426.541 CURVE",
"78 426.541 LINE",
"77.91 417.752 OFFCURVE",
"79.099 371.712 OFFCURVE",
"112.315 336.935 CURVE SMOOTH",
"137.282 310.795 OFFCURVE",
"173.781 297.539 OFFCURVE",
"220.797 297.539 CURVE SMOOTH",
"256.188 297.539 OFFCURVE",
"372.168 306.08 OFFCURVE",
"378.452 415.967 CURVE"
);
},
{
closed = 1;
nodes = (
"875.432 285.396 LINE",
"875.432 154.678 LINE",
"735.895 154.678 LINE",
"900.4 398.502 LINE",
"832.541 398.502 LINE",
"651.886 133.566 LINE",
"651.886 96.599 LINE",
"875.432 96.599 LINE",
"875.432 0 LINE",
"934.487 0 LINE",
"934.487 285.396 LINE"
);
}
);
width = 1012;
}
);
unicode = 00BE;
},
{
glyphname = Agrave;
layers = (
{
layerId = "8f7a17a9-cad9-4f2d-97d0-d99f506acba0";
paths = (
{
closed = 1;
nodes = (
"406.344 760.276 LINE",
"264.821 888.367 LINE",
"166.686 888.367 LINE",
"334.034 760.276 LINE"
);
},
{
closed = 1;
nodes = (
"642.766 0 LINE",
"721.898 0 LINE",
"394.009 700.36 LINE",
"332.887 700.36 LINE",
"5. 0 LINE",
"84.132 0 LINE",
"161.369 167.664 LINE",
"565.525 167.664 LINE"
);
},
{
closed = 1;
nodes = (
"190.76 231.461 LINE",
"363.448 606.311 LINE",
"536.135 231.461 LINE"
);
}
);
width = 727;
}
);
unicode = 00C0;
},
{
glyphname = Aacute;
layers = (
{
layerId = "8f7a17a9-cad9-4f2d-97d0-d99f506acba0";
paths = (
{
closed = 1;
nodes = (
"320.554 760.276 LINE",
"462.077 888.367 LINE",
"560.212 888.367 LINE",
"392.864 760.276 LINE"
);
},
{
closed = 1;
nodes = (
"84.132 0 LINE",
"5. 0 LINE",
"332.889 700.36 LINE",
"394.011 700.36 LINE",
"721.898 0 LINE",
"642.766 0 LINE",
"565.528 167.664 LINE",
"161.372 167.664 LINE"
);
},
{
closed = 1;
nodes = (
"536.138 231.461 LINE",
"363.45 606.311 LINE",
"190.763 231.461 LINE"
);
}
);
width = 727;
}
);
unicode = 00C1;
},
{
glyphname = Acircumflex;
layers = (
{
layerId = "8f7a17a9-cad9-4f2d-97d0-d99f506acba0";
paths = (
{
closed = 1;
nodes = (
"363.448 845.402 LINE",
"448.585 760.966 LINE",
"519.584 760.966 LINE",
"389.031 888.38 LINE",
"337.866 888.38 LINE",
"207.31 760.974 LINE",
"278.309 760.974 LINE"
);
},
{
closed = 1;
nodes = (
"642.767 0 LINE",
"721.896 0 LINE",
"394.009 700.36 LINE",
"332.887 700.36 LINE",
"5. 0 LINE",
"84.13 0 LINE",
"161.37 167.664 LINE",
"565.527 167.664 LINE"
);
},
{
closed = 1;
nodes = (
"190.761 231.461 LINE",
"363.448 606.311 LINE",
"536.136 231.461 LINE"
);
}
);
width = 727;
}
);
unicode = 00C2;
},
{
glyphname = Atilde;
layers = (
{
layerId = "8f7a17a9-cad9-4f2d-97d0-d99f506acba0";
paths = (
{
closed = 1;
nodes = (
"642.766 0 LINE",
"721.896 0 LINE",
"394.009 700.36 LINE",
"332.887 700.36 LINE",
"5 0 LINE",
"84.129 0 LINE",
"161.369 167.664 LINE",
"565.525 167.664 LINE"
);
},
{
closed = 1;
nodes = (
"190.76 231.461 LINE",
"363.448 606.311 LINE",
"536.134 231.461 LINE"
);
},
{
closed = 1;
nodes = (
"257.095 770.016 LINE",
"257.222 772.216 OFFCURVE",
"260.577 823.926 OFFCURVE",
"297.351 823.926 CURVE",
"317.411 823.926 OFFCURVE",
"331.797 811.819 OFFCURVE",
"348.452 797.8 CURVE SMOOTH",
"370.297 779.413 OFFCURVE",
"395.058 758.57 OFFCURVE",
"438.764 758.57 CURVE SMOOTH",
"461.512 758.57 OFFCURVE",
"480.038 766.03 OFFCURVE",
"493.826 780.735 CURVE",
"522.786 811.614 OFFCURVE",
"519.812 863.3 OFFCURVE",
"519.668 865.486 CURVE",
"519.17 873.301 LINE",
"471.542 873.287 LINE",
"471.714 864.767 LINE",
"471.723 864.469 OFFCURVE",
"472.144 834.944 OFFCURVE",
"457.3 819.793 CURVE",
"451.528 813.91 OFFCURVE",
"444.241 811.048 OFFCURVE",
"435.027 811.048 CURVE",
"412.52 811.048 OFFCURVE",
"395.355 825.316 OFFCURVE",
"377.182 840.424 CURVE SMOOTH",
"356.451 857.666 OFFCURVE",
"332.947 877.213 OFFCURVE",
"298.282 877.213 CURVE SMOOTH",
"227.771 877.213 OFFCURVE",
"209.14 807.394 OFFCURVE",
"209.14 770.475 CURVE",
"209.14 762.124 LINE",
"256.654 762.137 LINE"
);
}
);
width = 727;
}
);
unicode = 00C3;
},
{
glyphname = Adieresis;
layers = (
{
layerId = "8f7a17a9-cad9-4f2d-97d0-d99f506acba0";
paths = (
{
closed = 1;
nodes = (
"642.767 0 LINE",
"721.898 0 LINE",
"394.009 700.36 LINE",
"332.888 700.36 LINE",
"5 0 LINE",
"84.131 0 LINE",
"161.371 167.664 LINE",
"565.526 167.664 LINE"
);
},
{
closed = 1;
nodes = (
"190.761 231.461 LINE",
"363.449 606.311 LINE",
"536.137 231.461 LINE"
);
},
{
closed = 1;
nodes = (
"246.655 789.029 OFFCURVE",
"261.574 774.11 OFFCURVE",
"287.434 774.458 CURVE SMOOTH",
"313.293 774.11 OFFCURVE",
"328.212 789.029 OFFCURVE",
"328.535 815.56 CURVE SMOOTH",
"328.212 842.759 OFFCURVE",
"313.293 856.662 OFFCURVE",
"287.434 856.662 CURVE SMOOTH",
"260.579 856.662 OFFCURVE",
"246.655 842.759 OFFCURVE",
"246.332 815.56 CURVE SMOOTH"
);
},
{
closed = 1;
nodes = (
"401.315 789.135 OFFCURVE",
"416.234 774.216 OFFCURVE",
"442.094 774.564 CURVE SMOOTH",
"467.954 774.216 OFFCURVE",
"482.873 789.135 OFFCURVE",
"483.196 815.666 CURVE SMOOTH",
"482.873 842.865 OFFCURVE",
"467.954 856.768 OFFCURVE",
"442.094 856.768 CURVE SMOOTH",
"415.24 856.768 OFFCURVE",
"401.315 842.865 OFFCURVE",
"400.992 815.666 CURVE SMOOTH"
);
}
);
width = 727;
}
);
unicode = 00C4;
},
{
glyphname = Aring;
layers = (
{
layerId = "8f7a17a9-cad9-4f2d-97d0-d99f506acba0";
paths = (
{
closed = 1;
nodes = (
"423.165 774.092 OFFCURVE",
"458.318 809.245 OFFCURVE",
"458.318 868.961 CURVE SMOOTH",
"458.318 928.676 OFFCURVE",
"423.165 963.829 OFFCURVE",
"363.449 963.829 CURVE SMOOTH",
"303.733 963.829 OFFCURVE",
"268.58 928.676 OFFCURVE",
"268.58 868.961 CURVE SMOOTH",
"268.58 809.245 OFFCURVE",
"303.733 774.092 OFFCURVE",
"363.449 774.092 CURVE SMOOTH"
);
},
{
closed = 1;
nodes = (
"400.425 926.299 OFFCURVE",
"420.788 905.936 OFFCURVE",
"420.788 868.961 CURVE SMOOTH",
"420.788 831.984 OFFCURVE",
"400.425 811.622 OFFCURVE",
"363.449 811.622 CURVE SMOOTH",
"326.473 811.622 OFFCURVE",
"306.11 831.984 OFFCURVE",
"306.11 868.961 CURVE SMOOTH",
"306.11 905.936 OFFCURVE",
"326.473 926.299 OFFCURVE",
"363.449 926.299 CURVE SMOOTH"
);
},
{
closed = 1;
nodes = (
"642.767 0 LINE",
"721.898 0 LINE",
"394.01 700.36 LINE",
"332.888 700.36 LINE",
"5. 0 LINE",
"84.131 0 LINE",
"161.371 167.664 LINE",
"565.526 167.664 LINE"
);
},
{
closed = 1;
nodes = (
"190.761 231.461 LINE",
"363.449 606.311 LINE",
"536.137 231.461 LINE"
);
}
);
width = 727;
}
);
unicode = 00C5;
},
{
glyphname = AE;
layers = (
{
layerId = "8f7a17a9-cad9-4f2d-97d0-d99f506acba0";
paths = (
{
closed = 1;
nodes = (
"566.208 65.502 LINE",
"566.208 319.139 LINE",
"964.898 319.139 LINE",
"964.898 382.746 LINE",
"566.208 382.746 LINE",
"566.208 636.383 LINE",
"979.495 636.383 LINE",
"979.495 699.99 LINE",
"494.668 699.99 LINE",
"5 -0. LINE",
"83.895 -0. LINE",
"201.948 167.165 LINE",
"491.278 167.165 LINE",
"491.278 -0.099 LINE",
"994.092 -0.099 LINE",
"994.092 65.502 LINE"
);
},
{
closed = 1;
nodes = (
"246.868 230.772 LINE",
"491.278 576.861 LINE",
"491.278 230.772 LINE"
);
}
);
width = 1025;
}
);
unicode = 00C6;
},
{
glyphname = Ccedilla;
layers = (
{
layerId = "8f7a17a9-cad9-4f2d-97d0-d99f506acba0";
paths = (
{
closed = 1;
nodes = (
"216.777 59.486 OFFCURVE",
"118.648 162.865 OFFCURVE",
"118.648 350.581 CURVE SMOOTH",
"118.648 538.295 OFFCURVE",
"216.777 641.674 OFFCURVE",
"394.953 641.674 CURVE SMOOTH",
"527.758 641.674 OFFCURVE",
"613.005 587.579 OFFCURVE",
"648.558 480.823 CURVE",
"722.092 480.823 LINE",
"682.277 627.822 OFFCURVE",
"569.098 705.318 OFFCURVE",
"393.413 705.318 CURVE SMOOTH",
"173.136 705.318 OFFCURVE",
"46.799 576.021 OFFCURVE",
"46.799 350.581 CURVE SMOOTH",
"46.799 128.273 OFFCURVE",
"169.717 -0.451 OFFCURVE",
"384.351 -3.99 CURVE",
"362.808 -85.665 LINE",
"362.808 -85.665 OFFCURVE",
"455.283 -75.414 OFFCURVE",
"455.283 -133.179 CURVE SMOOTH",
"455.283 -190.944 OFFCURVE",
"365.734 -190.121 OFFCURVE",
"318.391 -162.1 CURVE",
"300.828 -201.363 LINE",
"300.828 -201.363 OFFCURVE",
"373.408 -239.156 OFFCURVE",
"445.555 -215.561 CURVE SMOOTH",
"482.577 -203.454 OFFCURVE",
"529.773 -163.65 OFFCURVE",
"505.891 -97.69 CURVE",
"505.891 -97.69 OFFCURVE",
"491.676 -52.769 OFFCURVE",
"416.526 -51.578 CURVE",
"429.102 -2.944 LINE",
"584.419 7.055 OFFCURVE",
"685.047 83.569 OFFCURVE",
"722.092 220.338 CURVE",
"648.558 220.338 LINE",
"613.01 113.582 OFFCURVE",
"527.763 59.486 OFFCURVE",
"394.953 59.486 CURVE SMOOTH"
);
}
);
width = 769;
}
);
unicode = 00C7;
},
{
glyphname = Egrave;
layers = (
{
layerId = "8f7a17a9-cad9-4f2d-97d0-d99f506acba0";
paths = (
{
closed = 1;
nodes = (
"420.12 759.849 LINE",
"278.597 887.94 LINE",
"180.462 887.94 LINE",
"347.81 759.849 LINE"
);
},
{
closed = 1;
nodes = (
"153.153 63.798 LINE",
"153.153 318.192 LINE",
"553.034 318.192 LINE",
"553.034 381.989 LINE",
"153.153 381.989 LINE",
"153.153 636.384 LINE",
"567.675 636.384 LINE",
"567.675 700.181 LINE",
"78 700.181 LINE",
"78 0 LINE",
"582.316 0 LINE",
"582.316 63.798 LINE"
);
}
);
width = 613;
}
);
unicode = 00C8;
},
{
glyphname = Eacute;
layers = (
{
layerId = "8f7a17a9-cad9-4f2d-97d0-d99f506acba0";
paths = (
{
closed = 1;
nodes = (
"479.855 887.94 LINE",
"381.72 887.94 LINE",
"240.196 759.849 LINE",
"312.506 759.849 LINE"
);
},
{
closed = 1;
nodes = (
"153.153 63.798 LINE",
"153.153 318.192 LINE",
"553.034 318.192 LINE",
"553.034 381.989 LINE",
"153.153 381.989 LINE",
"153.153 636.384 LINE",
"567.675 636.384 LINE",
"567.675 700.181 LINE",
"78 700.181 LINE",
"78 0 LINE",
"582.316 0 LINE",
"582.316 63.798 LINE"
);
}
);
width = 613;
}
);
unicode = 00C9;
},
{
glyphname = Ecircumflex;
layers = (
{
layerId = "8f7a17a9-cad9-4f2d-97d0-d99f506acba0";
paths = (
{
closed = 1;
nodes = (
"330.158 844.975 LINE",
"415.295 760.539 LINE",
"486.294 760.539 LINE",
"355.743 887.945 LINE",
"304.575 887.945 LINE",
"174.02 760.539 LINE",
"245.02 760.539 LINE"
);
},
{
closed = 1;
nodes = (
"153.153 63.798 LINE",
"153.153 318.192 LINE",
"553.034 318.192 LINE",
"553.034 381.989 LINE",
"153.153 381.989 LINE",
"153.153 636.384 LINE",
"567.675 636.384 LINE",
"567.675 700.181 LINE",
"78 700.181 LINE",
"78 0 LINE",
"582.316 0 LINE",
"582.316 63.798 LINE"
);
}
);
width = 613;
}
);
unicode = 00CA;
},
{
glyphname = Edieresis;
layers = (
{
layerId = "8f7a17a9-cad9-4f2d-97d0-d99f506acba0";
paths = (
{
closed = 1;
nodes = (
"153.153 63.798 LINE",
"153.153 318.192 LINE",
"553.034 318.192 LINE",
"553.034 381.989 LINE",
"153.153 381.989 LINE",
"153.153 636.384 LINE",
"567.675 636.384 LINE",
"567.675 700.181 LINE",
"78 700.181 LINE",
"78 0 LINE",
"582.316 0 LINE",
"582.316 63.798 LINE"
);
},
{
closed = 1;
nodes = (
"213.078 789.081 OFFCURVE",
"227.772 774.387 OFFCURVE",
"253.241 774.73 CURVE SMOOTH",
"278.711 774.387 OFFCURVE",
"293.405 789.081 OFFCURVE",
"293.723 815.212 CURVE SMOOTH",
"293.405 842.001 OFFCURVE",
"278.711 855.694 OFFCURVE",
"253.241 855.694 CURVE SMOOTH",
"226.792 855.694 OFFCURVE",
"213.078 842.001 OFFCURVE",
"212.76 815.212 CURVE SMOOTH"
);
},
{
closed = 1;
nodes = (
"369.254 789.463 OFFCURVE",
"383.948 774.769 OFFCURVE",
"409.418 775.112 CURVE SMOOTH",
"434.888 774.769 OFFCURVE",
"449.582 789.463 OFFCURVE",
"449.9 815.594 CURVE SMOOTH",
"449.582 842.383 OFFCURVE",
"434.888 856.076 OFFCURVE",
"409.418 856.076 CURVE SMOOTH",
"382.969 856.076 OFFCURVE",
"369.254 842.383 OFFCURVE",
"368.936 815.594 CURVE SMOOTH"
);
}
);
width = 613;
}
);
unicode = 00CB;
},
{
glyphname = Igrave;
layers = (
{
layerId = "8f7a17a9-cad9-4f2d-97d0-d99f506acba0";
paths = (
{
closed = 1;
nodes = (
"106.582 700.18 LINE",
"106.582 0 LINE",
"181.735 0 LINE",
"181.735 700.18 LINE"
);
},
{
closed = 1;
nodes = (
"34.135 887.939 LINE",
"-64 887.939 LINE",
"103.348 759.848 LINE",
"175.658 759.848 LINE"
);
}
);
width = 291;
}
);
unicode = 00CC;
},
{
glyphname = Iacute;
layers = (
{
layerId = "8f7a17a9-cad9-4f2d-97d0-d99f506acba0";
paths = (
{
closed = 1;
nodes = (
"184.153 700.18 LINE",
"184.153 0 LINE",
"109 0 LINE",
"109 700.18 LINE"
);
},
{
closed = 1;
nodes = (
"256.6 887.939 LINE",
"354.735 887.939 LINE",
"187.387 759.848 LINE",
"115.077 759.848 LINE"
);
}
);
width = 291;
}
);
unicode = 00CD;
},
{
glyphname = Icircumflex;
layers = (
{
layerId = "8f7a17a9-cad9-4f2d-97d0-d99f506acba0";
paths = (
{
closed = 1;
nodes = (
"112.561 700.18 LINE",
"112.561 0 LINE",
"187.713 0 LINE",
"187.713 700.18 LINE"
);
},
{
closed = 1;
nodes = (
"175.722 887.944 LINE",
"124.556 887.944 LINE",
"-6 760.538 LINE",
"65. 760.538 LINE",
"150.139 844.974 LINE",
"235.276 760.538 LINE",
"306.275 760.538 LINE"
);
}
);
width = 300;
}
);
unicode = 00CE;
},
{
glyphname = Idieresis;
layers = (
{
layerId = "8f7a17a9-cad9-4f2d-97d0-d99f506acba0";
paths = (
{
closed = 1;
nodes = (
"112.729 700.18 LINE",
"112.729 0 LINE",
"187.882 0 LINE",
"187.882 700.18 LINE"
);
},
{
closed = 1;
nodes = (
"31.323 789.473 OFFCURVE",
"46.247 774.55 OFFCURVE",
"72.114 774.898 CURVE SMOOTH",
"97.982 774.55 OFFCURVE",
"112.905 789.473 OFFCURVE",
"113.228 816.012 CURVE SMOOTH",
"112.905 843.22 OFFCURVE",
"97.982 857.127 OFFCURVE",
"72.114 857.127 CURVE SMOOTH",
"45.252 857.127 OFFCURVE",
"31.323 843.22 OFFCURVE",
"31. 816.012 CURVE SMOOTH"
);
},
{
closed = 1;
nodes = (
"188.137 789.034 OFFCURVE",
"203.06 774.111 OFFCURVE",
"228.928 774.459 CURVE SMOOTH",
"254.795 774.111 OFFCURVE",
"269.719 789.034 OFFCURVE",
"270.042 815.573 CURVE SMOOTH",
"269.719 842.78 OFFCURVE",
"254.795 856.687 OFFCURVE",
"228.928 856.687 CURVE SMOOTH",
"202.065 856.687 OFFCURVE",
"188.137 842.78 OFFCURVE",
"187.814 815.573 CURVE SMOOTH"
);
}
);
width = 301;
}
);
unicode = 00CF;
},
{
glyphname = Eth;
layers = (
{
layerId = "8f7a17a9-cad9-4f2d-97d0-d99f506acba0";
paths = (
{
closed = 1;
nodes = (
"141.499 700.181 LINE",
"141.499 380.565 LINE",
"32. 380.565 LINE",
"32. 319.615 LINE",
"141.499 319.615 LINE",
"141.499 0 LINE",
"430.575 0 LINE",
"647.966 0 OFFCURVE",
"772.647 127.602 OFFCURVE",
"772.647 350.091 CURVE SMOOTH",
"772.647 572.578 OFFCURVE",
"647.966 700.181 OFFCURVE",
"430.575 700.181 CURVE"
);
},
{
closed = 1;
nodes = (
"216.651 63.582 LINE",
"216.651 319.615 LINE",
"432.802 319.615 LINE",
"432.802 380.565 LINE",
"216.651 380.565 LINE",
"216.651 636.386 LINE",
"429.054 636.386 LINE",
"604.897 637.371 OFFCURVE",
"701.74 535.346 OFFCURVE",
"701.74 350.091 CURVE SMOOTH",
"701.74 164.835 OFFCURVE",
"604.897 63.582 OFFCURVE",
"429.054 63.582 CURVE"
);
}
);
width = 819;
}
);
unicode = 00D0;
},
{
glyphname = Ntilde;
layers = (
{
components = (
{
name = space;
transform = "{1, 0, 0, 1, -43.209, 0}";
alignment = -1;
}
);
layerId = "8f7a17a9-cad9-4f2d-97d0-d99f506acba0";
paths = (
{
closed = 1;
nodes = (
"614.682 700.359 LINE",
"614.682 127.535 LINE",
"146.988 700.359 LINE",
"87 700.359 LINE",
"87 0 LINE",
"162.155 0 LINE",
"162.155 572.822 LINE",
"629.85 0 LINE",
"689.837 0 LINE",
"689.837 700.359 LINE"
);
},
{
closed = 1;
nodes = (
"485.45 758.312 OFFCURVE",
"503.971 765.78 OFFCURVE",
"517.762 780.48 CURVE",
"546.727 811.367 OFFCURVE",
"543.752 863.048 OFFCURVE",
"543.608 865.238 CURVE",
"543.112 873.047 LINE",
"495.48 873.037 LINE",
"495.656 864.515 LINE",
"495.666 864.215 OFFCURVE",
"496.079 834.692 OFFCURVE",
"481.235 819.538 CURVE",
"475.471 813.66 OFFCURVE",
"468.178 810.799 OFFCURVE",
"458.964 810.799 CURVE",
"436.454 810.799 OFFCURVE",
"419.296 825.064 OFFCURVE",
"401.126 840.177 CURVE SMOOTH",
"380.394 857.418 OFFCURVE",
"356.882 876.962 OFFCURVE",
"322.215 876.962 CURVE SMOOTH",
"251.713 876.962 OFFCURVE",
"233.077 807.142 OFFCURVE",
"233.077 770.222 CURVE",
"233.077 761.876 LINE",
"280.595 761.886 LINE",
"281.04 769.768 LINE",
"281.164 771.968 OFFCURVE",
"284.51 823.67 OFFCURVE",
"321.285 823.67 CURVE",
"341.346 823.67 OFFCURVE",
"355.736 811.573 OFFCURVE",
"372.388 797.545 CURVE SMOOTH",
"394.236 779.158 OFFCURVE",
"418.997 758.322 OFFCURVE",
"462.703 758.322 CURVE"
);
}
);
width = 777;
}
);
unicode = 00D1;
},
{
glyphname = Ograve;
layers = (
{
layerId = "8f7a17a9-cad9-4f2d-97d0-d99f506acba0";
paths = (
{
closed = 1;
nodes = (
"458.215 759.67 LINE",
"316.692 887.761 LINE",
"218.557 887.761 LINE",
"385.905 759.67 LINE"
);
},
{
closed = 1;
nodes = (
"178.272 704.617 OFFCURVE",
"46.8 573.147 OFFCURVE",
"46.8 349.809 CURVE SMOOTH",
"46.8 126.471 OFFCURVE",
"178.272 -5 OFFCURVE",
"401.609 -5 CURVE SMOOTH",
"624.947 -5 OFFCURVE",
"756.417 126.471 OFFCURVE",
"756.417 349.809 CURVE SMOOTH",
"756.417 573.147 OFFCURVE",
"624.947 704.617 OFFCURVE",
"401.609 704.617 CURVE SMOOTH"
);
},
{
closed = 1;
nodes = (
"221.8 58.522 OFFCURVE",
"122.772 161.972 OFFCURVE",
"122.772 349.808 CURVE SMOOTH",
"122.772 537.647 OFFCURVE",
"221.8 641.097 OFFCURVE",
"401.611 641.097 CURVE SMOOTH",
"581.416 641.097 OFFCURVE",
"680.443 537.647 OFFCURVE",
"680.443 349.808 CURVE SMOOTH",
"680.443 161.972 OFFCURVE",
"581.416 58.522 OFFCURVE",
"401.611 58.522 CURVE SMOOTH"
);
}
);
width = 803;
}
);
unicode = 00D2;
},
{
glyphname = Oacute;
layers = (
{
layerId = "8f7a17a9-cad9-4f2d-97d0-d99f506acba0";
paths = (
{
closed = 1;
nodes = (
"345.002 759.67 LINE",
"486.525 887.761 LINE",
"584.66 887.761 LINE",
"417.312 759.67 LINE"
);
},
{
closed = 1;
nodes = (
"624.945 704.617 OFFCURVE",
"756.417 573.147 OFFCURVE",
"756.417 349.809 CURVE SMOOTH",
"756.417 126.471 OFFCURVE",
"624.945 -5 OFFCURVE",
"401.609 -5 CURVE SMOOTH",
"178.27 -5 OFFCURVE",
"46.8 126.471 OFFCURVE",
"46.8 349.809 CURVE SMOOTH",
"46.8 573.147 OFFCURVE",
"178.27 704.617 OFFCURVE",
"401.609 704.617 CURVE SMOOTH"
);
},
{
closed = 1;
nodes = (
"581.418 58.522 OFFCURVE",
"680.445 161.972 OFFCURVE",
"680.445 349.808 CURVE SMOOTH",
"680.445 537.647 OFFCURVE",
"581.418 641.097 OFFCURVE",
"401.607 641.097 CURVE SMOOTH",
"221.802 641.097 OFFCURVE",
"122.774 537.647 OFFCURVE",
"122.774 349.808 CURVE SMOOTH",
"122.774 161.972 OFFCURVE",
"221.802 58.522 OFFCURVE",
"401.607 58.522 CURVE SMOOTH"
);
}
);
width = 803;
}
);
unicode = 00D3;
},
{
glyphname = Ocircumflex;
layers = (
{
layerId = "8f7a17a9-cad9-4f2d-97d0-d99f506acba0";
paths = (
{
closed = 1;
nodes = (
"401.61 844.796 LINE",
"486.746 760.36 LINE",
"557.747 760.36 LINE",
"427.194 887.766 LINE",
"376.025 887.766 LINE",
"245.471 760.36 LINE",
"316.471 760.36 LINE"
);
},
{
closed = 1;
nodes = (
"178.273 704.617 OFFCURVE",
"46.8 573.147 OFFCURVE",
"46.8 349.809 CURVE SMOOTH",
"46.8 126.471 OFFCURVE",
"178.273 -5 OFFCURVE",
"401.609 -5 CURVE SMOOTH",
"624.946 -5 OFFCURVE",
"756.417 126.471 OFFCURVE",
"756.417 349.809 CURVE SMOOTH",
"756.417 573.147 OFFCURVE",
"624.946 704.617 OFFCURVE",
"401.609 704.617 CURVE SMOOTH"
);
},
{
closed = 1;
nodes = (
"221.8 58.522 OFFCURVE",
"122.772 161.972 OFFCURVE",
"122.772 349.808 CURVE SMOOTH",
"122.772 537.647 OFFCURVE",
"221.8 641.097 OFFCURVE",
"401.61 641.097 CURVE SMOOTH",
"581.415 641.097 OFFCURVE",
"680.443 537.647 OFFCURVE",
"680.443 349.808 CURVE SMOOTH",
"680.443 161.972 OFFCURVE",
"581.415 58.522 OFFCURVE",
"401.61 58.522 CURVE SMOOTH"
);
}
);
width = 803;
}
);
unicode = 00D4;
},
{
glyphname = Otilde;
layers = (
{
layerId = "8f7a17a9-cad9-4f2d-97d0-d99f506acba0";
paths = (
{
closed = 1;
nodes = (
"294.225 769.409 LINE",
"294.349 771.609 OFFCURVE",
"297.706 823.319 OFFCURVE",
"334.481 823.319 CURVE",
"354.541 823.319 OFFCURVE",
"368.926 811.214 OFFCURVE",
"385.582 797.194 CURVE SMOOTH",
"407.427 778.806 OFFCURVE",
"432.186 757.965 OFFCURVE",
"475.894 757.965 CURVE SMOOTH",
"498.639 757.965 OFFCURVE",
"517.165 765.425 OFFCURVE",
"530.956 780.13 CURVE",
"559.916 811.008 OFFCURVE",
"556.942 862.693 OFFCURVE",
"556.798 864.88 CURVE",
"556.299 872.695 LINE",
"508.669 872.68 LINE",
"508.843 864.161 LINE",
"508.852 863.864 OFFCURVE",
"509.274 834.338 OFFCURVE",
"494.43 819.187 CURVE",
"488.658 813.303 OFFCURVE",
"481.369 810.441 OFFCURVE",
"472.153 810.441 CURVE",
"449.647 810.441 OFFCURVE",
"432.483 824.711 OFFCURVE",
"414.312 839.819 CURVE SMOOTH",
"393.579 857.06 OFFCURVE",
"370.076 876.608 OFFCURVE",
"335.411 876.608 CURVE SMOOTH",
"264.9 876.608 OFFCURVE",
"246.269 806.788 OFFCURVE",
"246.269 769.869 CURVE",
"246.269 761.517 LINE",
"293.784 761.532 LINE"
);
},
{
closed = 1;
nodes = (
"178.273 704.617 OFFCURVE",
"46.8 573.147 OFFCURVE",
"46.8 349.809 CURVE SMOOTH",
"46.8 126.471 OFFCURVE",
"178.273 -5 OFFCURVE",
"401.609 -5 CURVE SMOOTH",
"624.947 -5 OFFCURVE",
"756.417 126.471 OFFCURVE",
"756.417 349.809 CURVE SMOOTH",
"756.417 573.147 OFFCURVE",
"624.947 704.617 OFFCURVE",
"401.609 704.617 CURVE SMOOTH"
);
},
{
closed = 1;
nodes = (
"221.8 58.522 OFFCURVE",
"122.772 161.972 OFFCURVE",
"122.772 349.808 CURVE SMOOTH",
"122.772 537.647 OFFCURVE",
"221.8 641.097 OFFCURVE",
"401.61 641.097 CURVE SMOOTH",
"581.416 641.097 OFFCURVE",
"680.443 537.647 OFFCURVE",
"680.443 349.808 CURVE SMOOTH",
"680.443 161.972 OFFCURVE",
"581.416 58.522 OFFCURVE",
"401.61 58.522 CURVE SMOOTH"
);
}
);
width = 803;
}
);
unicode = 00D5;
},
{
glyphname = Odieresis;
layers = (
{
layerId = "8f7a17a9-cad9-4f2d-97d0-d99f506acba0";
paths = (
{
closed = 1;
nodes = (
"178.273 704.618 OFFCURVE",
"46.8 573.148 OFFCURVE",
"46.8 349.809 CURVE SMOOTH",
"46.8 126.471 OFFCURVE",
"178.273 -5. OFFCURVE",
"401.609 -5. CURVE SMOOTH",
"624.947 -5. OFFCURVE",
"756.418 126.471 OFFCURVE",
"756.418 349.809 CURVE SMOOTH",
"756.418 573.148 OFFCURVE",
"624.947 704.618 OFFCURVE",
"401.609 704.618 CURVE SMOOTH"
);
},
{
closed = 1;
nodes = (
"221.799 58.522 OFFCURVE",
"122.772 161.972 OFFCURVE",
"122.772 349.808 CURVE SMOOTH",
"122.772 537.648 OFFCURVE",
"221.799 641.097 OFFCURVE",
"401.611 641.097 CURVE SMOOTH",
"581.416 641.097 OFFCURVE",
"680.443 537.648 OFFCURVE",
"680.443 349.808 CURVE SMOOTH",
"680.443 161.972 OFFCURVE",
"581.416 58.522 OFFCURVE",
"401.611 58.522 CURVE SMOOTH"
);
},
{
closed = 1;
nodes = (
"283.677 792.807 OFFCURVE",
"298.602 777.882 OFFCURVE",
"324.472 778.23 CURVE SMOOTH",
"350.342 777.882 OFFCURVE",
"365.267 792.807 OFFCURVE",
"365.59 819.348 CURVE SMOOTH",
"365.267 846.558 OFFCURVE",
"350.342 860.467 OFFCURVE",
"324.472 860.467 CURVE SMOOTH",
"297.607 860.467 OFFCURVE",
"283.677 846.558 OFFCURVE",
"283.354 819.348 CURVE SMOOTH"
);
},
{
closed = 1;
nodes = (
"439.001 792.807 OFFCURVE",
"453.926 777.882 OFFCURVE",
"479.796 778.23 CURVE SMOOTH",
"505.666 777.882 OFFCURVE",
"520.591 792.807 OFFCURVE",
"520.915 819.348 CURVE SMOOTH",
"520.591 846.558 OFFCURVE",
"505.666 860.467 OFFCURVE",
"479.796 860.467 CURVE SMOOTH",
"452.931 860.467 OFFCURVE",
"439.001 846.558 OFFCURVE",
"438.678 819.348 CURVE SMOOTH"
);
}
);
width = 803;
}
);
unicode = 00D6;
},
{
glyphname = Oslash;
layers = (
{
layerId = "8f7a17a9-cad9-4f2d-97d0-d99f506acba0";
paths = (
{
closed = 1;
nodes = (
"750.483 779.83 LINE",
"686.231 779.83 LINE",
"597.705 659.645 LINE",
"544.26 689.09 OFFCURVE",
"478.361 704.617 OFFCURVE",
"401.609 704.617 CURVE SMOOTH",
"178.272 704.617 OFFCURVE",
"46.8 573.147 OFFCURVE",
"46.8 349.809 CURVE SMOOTH",
"46.8 225.311 OFFCURVE",
"87.697 129.407 OFFCURVE",
"162.543 68.863 CURVE",
"52.736 -80.213 LINE",
"116.985 -80.213 LINE",
"205.513 39.973 LINE",
"258.958 10.528 OFFCURVE",
"324.858 -5. OFFCURVE",
"401.609 -5. CURVE SMOOTH",
"624.947 -5. OFFCURVE",
"756.418 126.471 OFFCURVE",
"756.418 349.809 CURVE SMOOTH",
"756.418 474.306 OFFCURVE",
"715.522 570.212 OFFCURVE",
"640.676 630.755 CURVE"
);
},
{
closed = 1;
nodes = (
"122.772 537.647 OFFCURVE",
"221.8 641.097 OFFCURVE",
"401.611 641.097 CURVE SMOOTH",
"463.399 641.097 OFFCURVE",
"515.648 628.88 OFFCURVE",
"557.617 605.221 CURVE",
"203.781 124.849 LINE",
"150.687 174.148 OFFCURVE",
"122.772 250.084 OFFCURVE",
"122.772 349.808 CURVE SMOOTH"
);
},
{
closed = 1;
nodes = (
"339.821 58.522 OFFCURVE",
"287.572 70.74 OFFCURVE",
"245.601 94.397 CURVE",
"599.436 574.768 LINE",
"652.527 525.468 OFFCURVE",
"680.443 449.532 OFFCURVE",
"680.443 349.808 CURVE SMOOTH",
"680.443 161.972 OFFCURVE",
"581.416 58.522 OFFCURVE",
"401.611 58.522 CURVE SMOOTH"
);
}
);
width = 803;
}
);
unicode = 00D8;
},
{
glyphname = Ugrave;
layers = (
{
layerId = "8f7a17a9-cad9-4f2d-97d0-d99f506acba0";
paths = (
{
closed = 1;
nodes = (
"438.735 762.173 LINE",
"297.212 890.264 LINE",
"199.077 890.264 LINE",
"366.425 762.173 LINE"
);
},
{
closed = 1;
nodes = (
"595.614 699.872 LINE",
"594.226 342.488 LINE",
"594.226 174.174 OFFCURVE",
"554.05 59.988 OFFCURVE",
"374.246 59.988 CURVE SMOOTH",
"194.435 59.988 OFFCURVE",
"153.972 174.174 OFFCURVE",
"153.972 342.488 CURVE",
"155.359 699.872 LINE",
"79.387 699.872 LINE",
"78 335.169 LINE",
"78 131.352 OFFCURVE",
"150.908 -5 OFFCURVE",
"374.244 -5 CURVE SMOOTH",
"597.584 -5 OFFCURVE",
"670.49 131.352 OFFCURVE",
"670.49 335.169 CURVE",
"671.877 699.872 LINE"
);
}
);
width = 750;
}
);
unicode = 00D9;
},
{
glyphname = Uacute;
layers = (
{
layerId = "8f7a17a9-cad9-4f2d-97d0-d99f506acba0";
paths = (
{
closed = 1;
nodes = (
"311.142 767.173 LINE",
"452.665 895.264 LINE",
"550.8 895.264 LINE",
"383.452 767.173 LINE"
);
},
{
closed = 1;
nodes = (
"154.263 704.872 LINE",
"155.651 347.488 LINE",
"155.651 179.174 OFFCURVE",
"195.827 64.988 OFFCURVE",
"375.631 64.988 CURVE SMOOTH",
"555.442 64.988 OFFCURVE",
"595.905 179.174 OFFCURVE",
"595.905 347.488 CURVE",
"594.518 704.872 LINE",
"670.49 704.872 LINE",
"671.877 340.169 LINE",
"671.877 136.352 OFFCURVE",
"598.969 0 OFFCURVE",
"375.633 0 CURVE SMOOTH",
"152.293 0 OFFCURVE",
"79.387 136.352 OFFCURVE",
"79.387 340.169 CURVE",
"78. 704.872 LINE"
);
}
);
width = 750;
}
);
unicode = 00DA;
},
{
glyphname = Ucircumflex;
layers = (
{
layerId = "8f7a17a9-cad9-4f2d-97d0-d99f506acba0";
paths = (
{
closed = 1;
nodes = (
"375.552 847.299 LINE",
"460.688 762.863 LINE",
"531.688 762.863 LINE",
"401.135 890.269 LINE",
"349.969 890.269 LINE",
"219.415 762.863 LINE",
"290.413 762.863 LINE"
);
},
{
closed = 1;
nodes = (
"595.614 699.872 LINE",
"594.226 342.488 LINE",
"594.226 174.174 OFFCURVE",
"554.05 59.988 OFFCURVE",
"374.246 59.988 CURVE SMOOTH",
"194.435 59.988 OFFCURVE",
"153.972 174.174 OFFCURVE",
"153.972 342.488 CURVE",
"155.359 699.872 LINE",
"79.387 699.872 LINE",
"78 335.169 LINE",
"78 131.352 OFFCURVE",
"150.908 -5 OFFCURVE",
"374.244 -5 CURVE SMOOTH",
"597.584 -5 OFFCURVE",
"670.49 131.352 OFFCURVE",
"670.49 335.169 CURVE",
"671.877 699.872 LINE"
);
}
);
width = 750;
}
);
unicode = 00DB;
},
{
glyphname = Udieresis;
layers = (
{
layerId = "8f7a17a9-cad9-4f2d-97d0-d99f506acba0";
paths = (
{
closed = 1;
nodes = (
"322.909 776.361 OFFCURVE",
"338.306 791.759 OFFCURVE",
"338.306 817.917 CURVE SMOOTH",
"338.306 844.073 OFFCURVE",
"322.909 859.471 OFFCURVE",
"296.754 859.471 CURVE SMOOTH",
"270.596 859.471 OFFCURVE",
"255.197 844.073 OFFCURVE",
"255.197 817.917 CURVE SMOOTH",
"255.197 791.759 OFFCURVE",
"270.596 776.361 OFFCURVE",
"296.754 776.361 CURVE SMOOTH"
);
},
{
closed = 1;
nodes = (
"479.284 776.361 OFFCURVE",
"494.681 791.759 OFFCURVE",
"494.681 817.917 CURVE SMOOTH",
"494.681 844.073 OFFCURVE",
"479.284 859.471 OFFCURVE",
"453.127 859.471 CURVE SMOOTH",
"426.968 859.471 OFFCURVE",
"411.572 844.073 OFFCURVE",
"411.572 817.917 CURVE SMOOTH",
"411.572 791.759 OFFCURVE",
"426.968 776.361 OFFCURVE",
"453.127 776.361 CURVE SMOOTH"
);
},
{
closed = 1;
nodes = (
"595.881 699.872 LINE",
"594.494 342.488 LINE",
"594.494 174.174 OFFCURVE",
"554.317 59.988 OFFCURVE",
"374.513 59.988 CURVE SMOOTH",
"194.702 59.988 OFFCURVE",
"154.239 174.174 OFFCURVE",
"154.239 342.488 CURVE",
"155.627 699.872 LINE",
"79.655 699.872 LINE",
"78.267 335.169 LINE",
"78.267 131.352 OFFCURVE",
"151.176 -5 OFFCURVE",
"374.511 -5 CURVE SMOOTH",
"597.851 -5 OFFCURVE",
"670.757 131.352 OFFCURVE",
"670.757 335.169 CURVE",
"672.144 699.872 LINE"
);
}
);
width = 750;
}
);
unicode = 00DC;
},
{
glyphname = Yacute;
layers = (
{
layerId = "8f7a17a9-cad9-4f2d-97d0-d99f506acba0";
paths = (
{
closed = 1;
nodes = (
"520.786 887.889 LINE",
"422.651 887.889 LINE",
"281.128 759.798 LINE",
"353.438 759.798 LINE"
);
},
{
closed = 1;
nodes = (
"649.021 700.359 LINE",
"561.457 700.359 LINE",
"327.01 341.121 LINE",
"92.555 700.359 LINE",
"5 700.359 LINE",
"289.432 276.512 LINE",
"289.432 0 LINE",
"364.587 0 LINE",
"364.587 276.531 LINE"
);
}
);
width = 654;
}
);
unicode = 00DD;
},
{
glyphname = Thorn;
layers = (
{
layerId = "8f7a17a9-cad9-4f2d-97d0-d99f506acba0";
paths = (
{
closed = 1;
nodes = (
"153.152 567.135 LINE",
"153.152 700.143 LINE",
"78. 700.143 LINE",
"78. 0 LINE",
"153.152 0 LINE",
"153.152 133.008 LINE",
"359.111 133.008 LINE",
"493.848 133.008 OFFCURVE",
"622.01 175.846 OFFCURVE",
"622.01 349.624 CURVE SMOOTH",
"622.01 523.401 OFFCURVE",
"493.848 567.135 OFFCURVE",
"359.111 567.135 CURVE"
);
},
{
closed = 1;
nodes = (
"153.152 196.53 LINE",
"153.152 502.717 LINE",
"354.721 502.717 LINE",
"444.417 502.717 OFFCURVE",
"545.651 482.345 OFFCURVE",
"545.651 349.623 CURVE SMOOTH",
"545.651 216.902 OFFCURVE",
"444.417 196.53 OFFCURVE",
"354.721 196.53 CURVE"
);
}
);
width = 669;
}
);
unicode = 00DE;
},
{
glyphname = germandbls;
layers = (
{
layerId = "8f7a17a9-cad9-4f2d-97d0-d99f506acba0";
paths = (
{
closed = 1;
nodes = (
"108.393 684.687 OFFCURVE",
"208.186 733.356 OFFCURVE",
"332.146 733.356 CURVE SMOOTH",
"456.106 733.356 OFFCURVE",
"540.262 672.816 OFFCURVE",
"548.223 560.045 CURVE SMOOTH",
"556.184 447.273 OFFCURVE",
"459.519 402.164 OFFCURVE",
"459.519 402.164 CURVE",
"576.655 368.926 OFFCURVE",
"583.478 246.658 OFFCURVE",
"581.203 205.111 CURVE SMOOTH",
"579.321 170.722 OFFCURVE",
"569.547 -5 OFFCURVE",
"323.198 -5 CURVE SMOOTH",
"293.566 -5 OFFCURVE",
"267.647 -1.786 OFFCURVE",
"244.724 3.703 CURVE",
"264.196 72.799 LINE",
"288.078 65.7 OFFCURVE",
"309.551 65.037 OFFCURVE",
"309.551 65.037 CURVE",
"309.551 65.037 OFFCURVE",
"494.39 46.792 OFFCURVE",
"507.283 201.55 CURVE SMOOTH",
"520.93 365.366 OFFCURVE",
"344.657 358.391 OFFCURVE",
"344.657 358.391 CURVE",
"288.363 358.391 LINE",
"288.363 424.719 LINE",
"335.559 424.719 LINE",
"435.636 424.719 OFFCURVE",
"468.616 482.886 OFFCURVE",
"475.44 529.181 CURVE SMOOTH",
"482.262 575.477 OFFCURVE",
"461.793 665.694 OFFCURVE",
"325.323 665.694 CURVE SMOOTH",
"193.403 665.694 OFFCURVE",
"168.667 577.851 OFFCURVE",
"168.667 577.851 CURVE",
"168.667 577.851 OFFCURVE",
"154.168 546.564 OFFCURVE",
"154.168 471.264 CURVE SMOOTH",
"154.168 398.493 OFFCURVE",
"154.168 0.029 OFFCURVE",
"154.168 0.029 CURVE",
"78.256 0.029 LINE",
"78.256 465.051 LINE",
"78.256 465.051 OFFCURVE",
"75.697 526.093 OFFCURVE",
"86.785 577.851 CURVE SMOOTH"
);
}
);
width = 628;
}
);
unicode = 00DF;
},
{
glyphname = agrave;
layers = (
{
layerId = "8f7a17a9-cad9-4f2d-97d0-d99f506acba0";
paths = (
{
closed = 1;
nodes = (
"533.635 543.092 LINE",
"519.135 470.523 LINE",
"472.804 520.211 OFFCURVE",
"404.061 547.197 OFFCURVE",
"316.851 547.197 CURVE SMOOTH",
"146.866 547.197 OFFCURVE",
"46.8 444.901 OFFCURVE",
"46.8 271.124 CURVE SMOOTH",
"46.8 97.346 OFFCURVE",
"146.866 -4.951 OFFCURVE",
"316.851 -4.951 CURVE SMOOTH",
"404.06 -4.951 OFFCURVE",
"472.804 22.034 OFFCURVE",
"519.135 71.722 CURVE",
"533.635 -0.846 LINE",
"590.45 -0.846 LINE",
"590.45 543.092 LINE"
);
},
{
closed = 1;
nodes = (
"191.561 64.192 OFFCURVE",
"122.153 135.747 OFFCURVE",
"122.153 271.123 CURVE SMOOTH",
"122.153 406.498 OFFCURVE",
"191.561 478.052 OFFCURVE",
"322.875 478.052 CURVE SMOOTH",
"454.189 478.052 OFFCURVE",
"523.599 406.498 OFFCURVE",
"523.599 271.123 CURVE SMOOTH",
"523.599 135.747 OFFCURVE",
"454.189 64.192 OFFCURVE",
"322.875 64.192 CURVE SMOOTH"
);
},
{
closed = 1;
nodes = (
"398.407 608.096 LINE",
"256.884 736.187 LINE",
"158.749 736.187 LINE",
"326.097 608.096 LINE"
);
}
);
width = 668;
}
);
unicode = 00E0;
},
{
glyphname = aacute;
layers = (
{
layerId = "8f7a17a9-cad9-4f2d-97d0-d99f506acba0";
paths = (
{
closed = 1;
nodes = (
"502.631 737.073 LINE",
"404.496 737.073 LINE",
"262.973 608.982 LINE",
"335.283 608.982 LINE"
);
},
{
closed = 1;
nodes = (
"533.633 543.978 LINE",
"519.135 471.41 LINE",
"472.804 521.097 OFFCURVE",
"404.059 548.083 OFFCURVE",
"316.85 548.083 CURVE SMOOTH",
"146.866 548.083 OFFCURVE",
"46.8 445.787 OFFCURVE",
"46.8 272.01 CURVE SMOOTH",
"46.8 98.232 OFFCURVE",
"146.866 -4.065 OFFCURVE",
"316.85 -4.065 CURVE SMOOTH",
"404.059 -4.065 OFFCURVE",
"472.804 22.92 OFFCURVE",
"519.135 72.608 CURVE",
"533.633 0.04 LINE",
"590.448 0.04 LINE",
"590.448 543.978 LINE"
);
},
{
closed = 1;
nodes = (
"191.56 65.078 OFFCURVE",
"122.152 136.633 OFFCURVE",
"122.152 272.008 CURVE SMOOTH",
"122.152 407.384 OFFCURVE",
"191.56 478.938 OFFCURVE",
"322.875 478.938 CURVE SMOOTH",
"454.189 478.938 OFFCURVE",
"523.598 407.384 OFFCURVE",
"523.598 272.008 CURVE SMOOTH",
"523.598 136.633 OFFCURVE",
"454.189 65.078 OFFCURVE",
"322.875 65.078 CURVE SMOOTH"
);
}
);
width = 668;
}
);
unicode = 00E1;
},
{
glyphname = acircumflex;
layers = (
{
layerId = "8f7a17a9-cad9-4f2d-97d0-d99f506acba0";
paths = (
{
closed = 1;
nodes = (
"341.742 694.173 LINE",
"426.879 609.736 LINE",
"497.878 609.736 LINE",
"367.325 737.143 LINE",
"316.158 737.143 LINE",
"185.603 609.736 LINE",
"256.602 609.736 LINE"
);
},
{
closed = 1;
nodes = (
"533.633 544.043 LINE",
"519.135 471.474 LINE",
"472.804 521.162 OFFCURVE",
"404.06 548.148 OFFCURVE",
"316.851 548.148 CURVE SMOOTH",
"146.866 548.148 OFFCURVE",
"46.8 445.852 OFFCURVE",
"46.8 272.074 CURVE SMOOTH",
"46.8 98.297 OFFCURVE",
"146.866 -4 OFFCURVE",
"316.851 -4 CURVE SMOOTH",
"404.059 -4 OFFCURVE",
"472.804 22.985 OFFCURVE",
"519.135 72.673 CURVE",
"533.633 0.105 LINE",
"590.448 0.105 LINE",
"590.448 544.043 LINE"
);
},
{
closed = 1;
nodes = (
"191.56 65.143 OFFCURVE",
"122.152 136.698 OFFCURVE",
"122.152 272.073 CURVE SMOOTH",
"122.152 407.449 OFFCURVE",
"191.56 479.003 OFFCURVE",
"322.875 479.003 CURVE SMOOTH",
"454.189 479.003 OFFCURVE",
"523.598 407.449 OFFCURVE",
"523.598 272.073 CURVE SMOOTH",
"523.598 136.698 OFFCURVE",
"454.189 65.143 OFFCURVE",
"322.875 65.143 CURVE SMOOTH"
);
}
);
width = 668;
}
);
unicode = 00E2;
},
{
glyphname = atilde;
layers = (
{
layerId = "8f7a17a9-cad9-4f2d-97d0-d99f506acba0";
paths = (
{
closed = 1;
nodes = (
"362.364 607.342 OFFCURVE",
"337.603 628.177 OFFCURVE",
"315.755 646.565 CURVE SMOOTH",
"299.103 660.593 OFFCURVE",
"284.713 672.689 OFFCURVE",
"264.652 672.689 CURVE",
"227.878 672.689 OFFCURVE",
"224.531 620.988 OFFCURVE",
"224.407 618.787 CURVE",
"223.963 610.906 LINE",
"176.445 610.895 LINE",
"176.445 619.242 LINE",
"176.445 656.161 OFFCURVE",
"195.08 725.982 OFFCURVE",
"265.582 725.982 CURVE SMOOTH",
"300.25 725.982 OFFCURVE",
"323.761 706.437 OFFCURVE",
"344.493 689.197 CURVE SMOOTH",
"362.663 674.084 OFFCURVE",
"379.822 659.818 OFFCURVE",
"402.331 659.818 CURVE",
"411.545 659.818 OFFCURVE",
"418.838 662.68 OFFCURVE",
"424.602 668.557 CURVE",
"439.446 683.711 OFFCURVE",
"439.033 713.235 OFFCURVE",
"439.023 713.534 CURVE",
"438.847 722.056 LINE",
"486.479 722.067 LINE",
"486.975 714.257 LINE",
"487.119 712.067 OFFCURVE",
"490.094 660.386 OFFCURVE",
"461.129 629.5 CURVE",
"447.339 614.8 OFFCURVE",
"428.817 607.331 OFFCURVE",
"406.07 607.342 CURVE"
);
},
{
closed = 1;
nodes = (
"590.448 544.294 LINE",
"590.448 0.357 LINE",
"533.633 0.357 LINE",
"519.135 72.925 LINE",
"472.804 23.237 OFFCURVE",
"404.059 -3.748 OFFCURVE",
"316.85 -3.748 CURVE SMOOTH",
"146.866 -3.748 OFFCURVE",
"46.8 98.549 OFFCURVE",
"46.8 272.326 CURVE SMOOTH",
"46.8 446.104 OFFCURVE",
"146.866 548.399 OFFCURVE",
"316.85 548.399 CURVE SMOOTH",
"404.059 548.399 OFFCURVE",
"472.804 521.413 OFFCURVE",
"519.135 471.726 CURVE",
"533.633 544.294 LINE"
);
},
{
closed = 1;
nodes = (
"454.188 65.394 OFFCURVE",
"523.598 136.949 OFFCURVE",
"523.598 272.325 CURVE SMOOTH",
"523.598 407.701 OFFCURVE",
"454.188 479.255 OFFCURVE",
"322.874 479.255 CURVE SMOOTH",
"191.56 479.255 OFFCURVE",
"122.152 407.701 OFFCURVE",
"122.152 272.325 CURVE SMOOTH",
"122.152 136.949 OFFCURVE",
"191.56 65.394 OFFCURVE",
"322.874 65.394 CURVE SMOOTH"
);
}
);
width = 668;
}
);
unicode = 00E3;
},
{
glyphname = adieresis;
layers = (
{
layerId = "8f7a17a9-cad9-4f2d-97d0-d99f506acba0";
paths = (
{
closed = 1;
nodes = (
"533.633 544.294 LINE",
"519.135 471.726 LINE",
"472.804 521.413 OFFCURVE",
"404.059 548.399 OFFCURVE",
"316.85 548.399 CURVE SMOOTH",
"146.866 548.399 OFFCURVE",
"46.8 446.104 OFFCURVE",
"46.8 272.326 CURVE SMOOTH",
"46.8 98.549 OFFCURVE",
"146.866 -3.748 OFFCURVE",
"316.85 -3.748 CURVE SMOOTH",
"404.059 -3.748 OFFCURVE",
"472.804 23.237 OFFCURVE",
"519.135 72.925 CURVE",
"533.633 0.357 LINE",
"590.448 0.357 LINE",
"590.448 544.294 LINE"
);
},
{
closed = 1;
nodes = (
"191.56 65.394 OFFCURVE",
"122.152 136.949 OFFCURVE",
"122.152 272.325 CURVE SMOOTH",
"122.152 407.701 OFFCURVE",
"191.56 479.255 OFFCURVE",
"322.874 479.255 CURVE SMOOTH",
"454.188 479.255 OFFCURVE",
"523.598 407.701 OFFCURVE",
"523.598 272.325 CURVE SMOOTH",
"523.598 136.949 OFFCURVE",
"454.188 65.394 OFFCURVE",
"322.874 65.394 CURVE SMOOTH"
);
},
{
closed = 1;
nodes = (
"213.354 637.929 OFFCURVE",
"228.075 623.208 OFFCURVE",
"253.591 623.552 CURVE SMOOTH",
"279.108 623.208 OFFCURVE",
"293.829 637.929 OFFCURVE",
"294.148 664.108 CURVE SMOOTH",
"293.829 690.946 OFFCURVE",
"279.108 704.664 OFFCURVE",
"253.591 704.664 CURVE SMOOTH",
"227.093 704.664 OFFCURVE",
"213.354 690.946 OFFCURVE",
"213.035 664.108 CURVE SMOOTH"
);
},
{
closed = 1;
nodes = (
"369.727 637.585 OFFCURVE",
"384.448 622.864 OFFCURVE",
"409.965 623.207 CURVE SMOOTH",
"435.481 622.864 OFFCURVE",
"450.202 637.585 OFFCURVE",
"450.521 663.763 CURVE SMOOTH",
"450.202 690.601 OFFCURVE",
"435.481 704.32 OFFCURVE",
"409.965 704.32 CURVE SMOOTH",
"383.467 704.32 OFFCURVE",
"369.727 690.601 OFFCURVE",
"369.408 663.763 CURVE SMOOTH"
);
}
);
width = 668;
}
);
unicode = 00E4;
},
{
glyphname = aring;
layers = (
{
layerId = "8f7a17a9-cad9-4f2d-97d0-d99f506acba0";
paths = (
{
closed = 1;
nodes = (
"533.633 544.294 LINE",
"519.135 471.726 LINE",
"472.804 521.413 OFFCURVE",
"404.059 548.399 OFFCURVE",
"316.85 548.399 CURVE SMOOTH",
"146.866 548.399 OFFCURVE",
"46.8 446.104 OFFCURVE",
"46.8 272.326 CURVE SMOOTH",
"46.8 98.549 OFFCURVE",
"146.866 -3.748 OFFCURVE",
"316.85 -3.748 CURVE SMOOTH",
"404.059 -3.748 OFFCURVE",
"472.804 23.237 OFFCURVE",
"519.135 72.925 CURVE",
"533.633 0.357 LINE",
"590.448 0.357 LINE",
"590.448 544.294 LINE"
);
},
{
closed = 1;
nodes = (
"191.56 65.394 OFFCURVE",
"122.152 136.949 OFFCURVE",
"122.152 272.325 CURVE SMOOTH",
"122.152 407.701 OFFCURVE",
"191.56 479.255 OFFCURVE",
"322.874 479.255 CURVE SMOOTH",
"454.188 479.255 OFFCURVE",
"523.598 407.701 OFFCURVE",
"523.598 272.325 CURVE SMOOTH",
"523.598 136.949 OFFCURVE",
"454.188 65.394 OFFCURVE",
"322.874 65.394 CURVE SMOOTH"
);
},
{
closed = 1;
nodes = (
"391.501 623.486 OFFCURVE",
"426.653 658.639 OFFCURVE",
"426.653 718.355 CURVE SMOOTH",
"426.653 778.07 OFFCURVE",
"391.501 813.223 OFFCURVE",
"331.784 813.223 CURVE SMOOTH",
"272.069 813.223 OFFCURVE",
"236.916 778.07 OFFCURVE",
"236.916 718.355 CURVE SMOOTH",
"236.916 658.639 OFFCURVE",
"272.069 623.486 OFFCURVE",
"331.784 623.486 CURVE SMOOTH"
);
},
{
closed = 1;
nodes = (
"368.76 775.694 OFFCURVE",
"389.124 755.331 OFFCURVE",
"389.124 718.355 CURVE SMOOTH",
"389.124 681.38 OFFCURVE",
"368.76 661.016 OFFCURVE",
"331.784 661.016 CURVE SMOOTH",
"294.809 661.016 OFFCURVE",
"274.445 681.38 OFFCURVE",
"274.445 718.355 CURVE SMOOTH",
"274.445 755.331 OFFCURVE",
"294.809 775.694 OFFCURVE",
"331.784 775.694 CURVE SMOOTH"
);
}
);
width = 668;
}
);
unicode = 00E5;
},
{
glyphname = ae;
layers = (
{
layerId = "8f7a17a9-cad9-4f2d-97d0-d99f506acba0";
paths = (
{
closed = 1;
nodes = (
"490.849 302.79 LINE",
"485.295 417.187 OFFCURVE",
"413.432 483.33 OFFCURVE",
"288.493 483.33 CURVE SMOOTH",
"211.658 483.33 OFFCURVE",
"146.865 456.846 OFFCURVE",
"105.598 408.66 CURVE",
"58.271 457.124 LINE",
"107.732 518.42 OFFCURVE",
"189.363 552.138 OFFCURVE",
"288.493 552.138 CURVE SMOOTH",
"398.968 552.138 OFFCURVE",
"484.229 507.443 OFFCURVE",
"530.189 430.959 CURVE",
"576.103 507.723 OFFCURVE",
"661.44 552.57 OFFCURVE",
"772.132 552.57 CURVE SMOOTH",
"861.735 552.57 OFFCURVE",
"933.304 524.777 OFFCURVE",
"979.1 472.2 CURVE SMOOTH",
"1025.962 418.388 OFFCURVE",
"1043.965 339.471 OFFCURVE",
"1031.223 243.84 CURVE",
"569.627 243.84 LINE",
"575.181 129.444 OFFCURVE",
"647.198 63.305 OFFCURVE",
"772.132 63.305 CURVE SMOOTH",
"848.957 63.305 OFFCURVE",
"913.755 89.799 OFFCURVE",
"955.032 137.985 CURVE",
"1002.354 89.52 LINE",
"952.894 28.226 OFFCURVE",
"871.262 -5.493 OFFCURVE",
"772.132 -5.493 CURVE SMOOTH",
"661.656 -5.493 OFFCURVE",
"576.398 39.202 OFFCURVE",
"530.436 115.686 CURVE",
"484.522 38.923 OFFCURVE",
"399.185 -5.925 OFFCURVE",
"288.493 -5.925 CURVE",
"239.307 -5.925 OFFCURVE",
"192.986 3.937 OFFCURVE",
"155.398 20.59 CURVE",
"105.114 43.983 OFFCURVE",
"70.544 78.648 OFFCURVE",
"55.432 120.848 CURVE SMOOTH",
"42.036 158.256 OFFCURVE",
"44.339 202.042 OFFCURVE",
"61.589 237.966 CURVE SMOOTH",
"91.846 300.971 OFFCURVE",
"171.247 302.79 OFFCURVE",
"180.202 302.79 CURVE"
);
},
{
closed = 1;
nodes = (
"226.616 243.593 LINE",
"190.342 243.593 OFFCURVE",
"122.828 243.593 OFFCURVE",
"115.177 185.06 CURVE SMOOTH",
"107.061 122.889 OFFCURVE",
"163.358 91.561 OFFCURVE",
"187.935 80.967 CURVE SMOOTH",
"216.631 68.952 OFFCURVE",
"250.452 62.871 OFFCURVE",
"288.493 62.871 CURVE SMOOTH",
"411.413 62.871 OFFCURVE",
"486.993 127.557 OFFCURVE",
"490.849 243.593 CURVE"
);
},
{
closed = 1;
nodes = (
"649.213 483.763 OFFCURVE",
"575.299 415.966 OFFCURVE",
"569.616 303.228 CURVE",
"966.708 303.228 LINE",
"968.547 355.505 OFFCURVE",
"954.718 400.292 OFFCURVE",
"925.395 430.671 CURVE SMOOTH",
"891.857 465.41 OFFCURVE",
"838.863 483.763 OFFCURVE",
"772.132 483.763 CURVE SMOOTH"
);
}
);
width = 1082;
}
);
unicode = 00E6;
},
{
glyphname = ccedilla;
layers = (
{
layerId = "8f7a17a9-cad9-4f2d-97d0-d99f506acba0";
paths = (
{
closed = 1;
nodes = (
"189.107 63.446 OFFCURVE",
"121.01 135.367 OFFCURVE",
"121.01 271.45 CURVE SMOOTH",
"121.01 407.523 OFFCURVE",
"189.107 479.443 OFFCURVE",
"317.93 479.443 CURVE SMOOTH",
"416.768 479.443 OFFCURVE",
"476.526 440.006 OFFCURVE",
"500.542 358.888 CURVE",
"576.143 358.888 LINE",
"548.273 482.319 OFFCURVE",
"458.667 547.52 OFFCURVE",
"316.778 547.52 CURVE SMOOTH",
"147.722 547.52 OFFCURVE",
"46.8 444.319 OFFCURVE",
"46.8 271.45 CURVE SMOOTH",
"46.8 104.238 OFFCURVE",
"141.233 2.222 OFFCURVE",
"300.41 -4.277 CURVE",
"277.996 -89.253 LINE",
"277.996 -89.253 OFFCURVE",
"370.472 -79.003 OFFCURVE",
"370.472 -136.768 CURVE SMOOTH",
"370.472 -194.532 OFFCURVE",
"280.921 -193.709 OFFCURVE",
"233.579 -165.69 CURVE",
"216.016 -204.951 LINE",
"216.016 -204.951 OFFCURVE",
"288.595 -242.744 OFFCURVE",
"360.742 -219.15 CURVE SMOOTH",
"397.765 -207.042 OFFCURVE",
"444.962 -167.239 OFFCURVE",
"421.079 -101.278 CURVE",
"421.079 -101.278 OFFCURVE",
"406.864 -56.357 OFFCURVE",
"331.714 -55.166 CURVE",
"345.035 -3.65 LINE",
"470.555 4.611 OFFCURVE",
"550.174 69.002 OFFCURVE",
"576.143 184.01 CURVE",
"500.542 184.01 LINE",
"476.526 102.893 OFFCURVE",
"416.768 63.446 OFFCURVE",
"317.93 63.446 CURVE SMOOTH"
);
}
);
width = 623;
}
);
unicode = 00E7;
},
{
glyphname = egrave;
layers = (
{
layerId = "8f7a17a9-cad9-4f2d-97d0-d99f506acba0";
paths = (
{
closed = 1;
nodes = (
"150.005 -4.176 OFFCURVE",
"46.8 99.029 OFFCURVE",
"46.8 271.899 CURVE SMOOTH",
"46.8 444.769 OFFCURVE",
"150.005 547.974 OFFCURVE",
"322.874 547.974 CURVE SMOOTH",
"411.53 547.974 OFFCURVE",
"482.342 520.48 OFFCURVE",
"527.653 468.455 CURVE SMOOTH",
"574.019 415.221 OFFCURVE",
"591.832 337.133 OFFCURVE",
"579.225 242.524 CURVE",
"122.511 242.524 LINE",
"122.659 239.419 LINE",
"128.155 126.227 OFFCURVE",
"199.262 63.888 OFFCURVE",
"322.874 63.888 CURVE SMOOTH",
"398.886 63.888 OFFCURVE",
"463. 90.103 OFFCURVE",
"503.835 137.78 CURVE",
"550.66 89.817 LINE",
"501.72 29.181 OFFCURVE",
"420.95 -4.176 OFFCURVE",
"322.874 -4.176 CURVE"
);
},
{
closed = 1;
nodes = (
"201.255 479.91 OFFCURVE",
"128.282 415.934 OFFCURVE",
"122.66 304.384 CURVE",
"122.502 301.274 LINE",
"515.393 301.274 LINE",
"517.363 356.75 OFFCURVE",
"503.53 397.316 OFFCURVE",
"474.516 427.369 CURVE SMOOTH",
"441.333 461.74 OFFCURVE",
"388.9 479.91 OFFCURVE",
"322.874 479.91 CURVE SMOOTH"
);
},
{
closed = 1;
nodes = (
"318.309 609.048 LINE",
"150.96 737.139 LINE",
"249.095 737.139 LINE",
"390.619 609.048 LINE"
);
}
);
width = 630;
}
);
unicode = 00E8;
},
{
glyphname = eacute;
layers = (
{
layerId = "8f7a17a9-cad9-4f2d-97d0-d99f506acba0";
paths = (
{
closed = 1;
nodes = (
"477.832 737.139 LINE",
"379.697 737.139 LINE",
"238.174 609.048 LINE",
"310.484 609.048 LINE"
);
},
{
closed = 1;
nodes = (
"420.95 -4.176 OFFCURVE",
"501.72 29.181 OFFCURVE",
"550.66 89.817 CURVE",
"503.835 137.78 LINE",
"463. 90.103 OFFCURVE",
"398.886 63.888 OFFCURVE",
"322.874 63.888 CURVE SMOOTH",
"199.262 63.888 OFFCURVE",
"128.155 126.227 OFFCURVE",
"122.659 239.419 CURVE",
"122.511 242.524 LINE",
"579.225 242.524 LINE",
"591.832 337.133 OFFCURVE",
"574.019 415.221 OFFCURVE",
"527.653 468.455 CURVE SMOOTH",
"482.342 520.48 OFFCURVE",
"411.53 547.974 OFFCURVE",
"322.874 547.974 CURVE SMOOTH",
"150.005 547.974 OFFCURVE",
"46.8 444.769 OFFCURVE",
"46.8 271.899 CURVE SMOOTH",
"46.8 99.029 OFFCURVE",
"150.005 -4.176 OFFCURVE",
"322.874 -4.176 CURVE"
);
},
{
closed = 1;
nodes = (
"388.9 479.91 OFFCURVE",
"441.333 461.74 OFFCURVE",
"474.516 427.369 CURVE SMOOTH",
"503.53 397.316 OFFCURVE",
"517.363 356.75 OFFCURVE",
"515.393 301.274 CURVE",
"122.502 301.274 LINE",
"122.66 304.384 LINE",
"128.282 415.934 OFFCURVE",
"201.255 479.91 OFFCURVE",
"322.874 479.91 CURVE SMOOTH"
);
}
);
width = 630;
}
);
unicode = 00E9;
},
{
glyphname = ecircumflex;
layers = (
{
layerId = "8f7a17a9-cad9-4f2d-97d0-d99f506acba0";
paths = (
{
closed = 1;
nodes = (
"315.037 694.174 LINE",
"400.174 609.737 LINE",
"471.174 609.737 LINE",
"340.621 737.144 LINE",
"289.453 737.144 LINE",
"158.899 609.737 LINE",
"229.898 609.737 LINE"
);
},
{
closed = 1;
nodes = (
"420.95 -4.176 OFFCURVE",
"501.72 29.181 OFFCURVE",
"550.66 89.817 CURVE",
"503.835 137.78 LINE",
"463. 90.103 OFFCURVE",
"398.886 63.888 OFFCURVE",
"322.874 63.888 CURVE SMOOTH",
"199.262 63.888 OFFCURVE",
"128.155 126.227 OFFCURVE",
"122.659 239.419 CURVE",
"122.511 242.524 LINE",
"579.225 242.524 LINE",
"591.832 337.133 OFFCURVE",
"574.019 415.221 OFFCURVE",
"527.653 468.455 CURVE SMOOTH",
"482.342 520.48 OFFCURVE",
"411.53 547.974 OFFCURVE",
"322.874 547.974 CURVE SMOOTH",
"150.005 547.974 OFFCURVE",
"46.8 444.769 OFFCURVE",
"46.8 271.899 CURVE SMOOTH",
"46.8 99.029 OFFCURVE",
"150.005 -4.176 OFFCURVE",
"322.874 -4.176 CURVE"
);
},
{
closed = 1;
nodes = (
"388.9 479.91 OFFCURVE",
"441.333 461.74 OFFCURVE",
"474.516 427.369 CURVE SMOOTH",
"503.53 397.316 OFFCURVE",
"517.363 356.75 OFFCURVE",
"515.393 301.274 CURVE",
"122.502 301.274 LINE",
"122.66 304.384 LINE",
"128.282 415.934 OFFCURVE",
"201.255 479.91 OFFCURVE",
"322.874 479.91 CURVE SMOOTH"
);
}
);
width = 630;
}
);
unicode = 00EA;
},
{
glyphname = edieresis;
layers = (
{
layerId = "8f7a17a9-cad9-4f2d-97d0-d99f506acba0";
paths = (
{
closed = 1;
nodes = (
"150.005 -4.176 OFFCURVE",
"46.8 99.029 OFFCURVE",
"46.8 271.899 CURVE SMOOTH",
"46.8 444.769 OFFCURVE",
"150.005 547.974 OFFCURVE",
"322.874 547.974 CURVE SMOOTH",
"411.53 547.974 OFFCURVE",
"482.342 520.48 OFFCURVE",
"527.653 468.455 CURVE SMOOTH",
"574.019 415.221 OFFCURVE",
"591.832 337.133 OFFCURVE",
"579.225 242.524 CURVE",
"122.511 242.524 LINE",
"122.659 239.419 LINE",
"128.155 126.227 OFFCURVE",
"199.262 63.888 OFFCURVE",
"322.874 63.888 CURVE SMOOTH",
"398.886 63.888 OFFCURVE",
"463. 90.103 OFFCURVE",
"503.835 137.78 CURVE",
"550.66 89.817 LINE",
"501.72 29.181 OFFCURVE",
"420.95 -4.176 OFFCURVE",
"322.874 -4.176 CURVE"
);
},
{
closed = 1;
nodes = (
"201.255 479.91 OFFCURVE",
"128.282 415.934 OFFCURVE",
"122.66 304.384 CURVE",
"122.502 301.274 LINE",
"515.393 301.274 LINE",
"517.363 356.75 OFFCURVE",
"503.53 397.316 OFFCURVE",
"474.516 427.369 CURVE SMOOTH",
"441.333 461.74 OFFCURVE",
"388.9 479.91 OFFCURVE",
"322.874 479.91 CURVE SMOOTH"
);
},
{
closed = 1;
nodes = (
"196.392 691.783 OFFCURVE",
"210.292 705.662 OFFCURVE",
"237.1 705.662 CURVE SMOOTH",
"262.916 705.662 OFFCURVE",
"277.809 691.783 OFFCURVE",
"278.132 664.63 CURVE SMOOTH",
"277.809 638.144 OFFCURVE",
"262.916 623.251 OFFCURVE",
"237.1 623.598 CURVE SMOOTH",
"211.285 623.251 OFFCURVE",
"196.392 638.144 OFFCURVE",
"196.069 664.63 CURVE SMOOTH"
);
},
{
closed = 1;
nodes = (
"352.987 691.959 OFFCURVE",
"366.887 705.838 OFFCURVE",
"393.696 705.838 CURVE SMOOTH",
"419.511 705.838 OFFCURVE",
"434.404 691.959 OFFCURVE",
"434.727 664.806 CURVE SMOOTH",
"434.404 638.321 OFFCURVE",
"419.511 623.427 OFFCURVE",
"393.696 623.775 CURVE SMOOTH",
"367.88 623.427 OFFCURVE",
"352.987 638.321 OFFCURVE",
"352.664 664.806 CURVE SMOOTH"
);
}
);
width = 630;
}
);
unicode = 00EB;
},
{
glyphname = igrave;
layers = (
{
layerId = "8f7a17a9-cad9-4f2d-97d0-d99f506acba0";
paths = (
{
closed = 1;
nodes = (
"26.135 737.164 LINE",
"-72. 737.164 LINE",
"95.348 609.074 LINE",
"167.658 609.074 LINE"
);
},
{
closed = 1;
nodes = (
"98.211 543.997 LINE",
"98.211 0.001 LINE",
"170.521 0.001 LINE",
"170.521 543.997 LINE"
);
}
);
width = 267;
}
);
unicode = 00EC;
},
{
glyphname = iacute;
layers = (
{
layerId = "8f7a17a9-cad9-4f2d-97d0-d99f506acba0";
paths = (
{
closed = 1;
nodes = (
"336.657 737.163 LINE",
"238.522 737.163 LINE",
"97. 609.072 LINE",
"169.31 609.072 LINE"
);
},
{
closed = 1;
nodes = (
"102.585 0.001 LINE",
"174.895 0.001 LINE",
"174.895 543.997 LINE",
"102.585 543.997 LINE"
);
}
);
width = 265;
}
);
unicode = 00ED;
},
{
glyphname = icircumflex;
layers = (
{
layerId = "8f7a17a9-cad9-4f2d-97d0-d99f506acba0";
paths = (
{
closed = 1;
nodes = (
"158.528 737.17 LINE",
"104.361 737.17 LINE",
"-23.195 609.763 LINE",
"47.805 609.763 LINE",
"132.943 694.199 LINE",
"218.08 609.763 LINE",
"289.08 609.763 LINE"
);
},
{
closed = 1;
nodes = (
"96.787 0.001 LINE",
"169.097 0.001 LINE",
"169.097 543.997 LINE",
"96.787 543.997 LINE"
);
}
);
width = 266;
}
);
unicode = 00EE;
},
{
glyphname = idieresis;
layers = (
{
layerId = "8f7a17a9-cad9-4f2d-97d0-d99f506acba0";
paths = (
{
closed = 1;
nodes = (
"96.05 0. LINE",
"168.36 0. LINE",
"168.36 543.996 LINE",
"96.05 543.996 LINE"
);
},
{
closed = 1;
nodes = (
"169.699 637.812 OFFCURVE",
"184.588 622.923 OFFCURVE",
"210.395 623.27 CURVE SMOOTH",
"236.203 622.923 OFFCURVE",
"251.092 637.812 OFFCURVE",
"251.415 664.29 CURVE SMOOTH",
"251.092 691.434 OFFCURVE",
"236.203 705.309 OFFCURVE",
"210.395 705.309 CURVE SMOOTH",
"183.595 705.309 OFFCURVE",
"169.699 691.434 OFFCURVE",
"169.376 664.29 CURVE SMOOTH"
);
},
{
closed = 1;
nodes = (
"13.323 637.802 OFFCURVE",
"28.212 622.913 OFFCURVE",
"54.019 623.26 CURVE SMOOTH",
"79.827 622.913 OFFCURVE",
"94.716 637.802 OFFCURVE",
"95.038 664.279 CURVE SMOOTH",
"94.716 691.423 OFFCURVE",
"79.827 705.298 OFFCURVE",
"54.019 705.298 CURVE SMOOTH",
"27.219 705.298 OFFCURVE",
"13.323 691.423 OFFCURVE",
"13. 664.279 CURVE SMOOTH"
);
}
);
width = 264;
}
);
unicode = 00EF;
},
{
glyphname = eth;
layers = (
{
layerId = "8f7a17a9-cad9-4f2d-97d0-d99f506acba0";
paths = (
{
closed = 1;
nodes = (
"454.177 606.871 OFFCURVE",
"452.049 608.818 OFFCURVE",
"447.896 612.074 CURVE",
"558.566 660.131 LINE",
"539.867 703.195 LINE",
"399.738 642.346 LINE",
"348.555 669.005 OFFCURVE",
"260.522 700.942 OFFCURVE",
"132.217 700.942 CURVE",
"132.217 639.011 LINE",
"132.217 639.011 OFFCURVE",
"229.43 641.547 OFFCURVE",
"321.6 608.414 CURVE",
"150.171 533.973 LINE",
"168.87 490.91 LINE",
"378.751 582.048 LINE",
"392.978 573.709 OFFCURVE",
"406.476 564.181 OFFCURVE",
"418.743 553.231 CURVE",
"466.778 510.341 OFFCURVE",
"504.522 457.156 OFFCURVE",
"516.532 383.386 CURVE",
"458.201 429.708 OFFCURVE",
"385.645 441.599 OFFCURVE",
"319.061 444.248 CURVE SMOOTH",
"198.196 449.057 OFFCURVE",
"46.8 393.373 OFFCURVE",
"46.8 218.135 CURVE SMOOTH",
"46.8 43.366 OFFCURVE",
"202.198 -7.979 OFFCURVE",
"325.923 -7.979 CURVE SMOOTH",
"445.718 -7.979 OFFCURVE",
"599.155 45.012 OFFCURVE",
"599.155 232.859 CURVE",
"599.155 232.859 OFFCURVE",
"616.302 478.201 OFFCURVE",
"454.177 606.871 CURVE"
);
},
{
closed = 1;
nodes = (
"246.563 58.59 OFFCURVE",
"122.693 78.484 OFFCURVE",
"122.693 218.131 CURVE SMOOTH",
"122.693 358.136 OFFCURVE",
"246.417 380.069 OFFCURVE",
"325.918 377.672 CURVE SMOOTH",
"417.154 374.921 OFFCURVE",
"531.202 357.158 OFFCURVE",
"529.467 225.232 CURVE SMOOTH",
"527.735 93.542 OFFCURVE",
"401.302 58.59 OFFCURVE",
"325.918 58.59 CURVE SMOOTH"
);
}
);
width = 646;
}
);
unicode = 00F0;
},
{
glyphname = ntilde;
layers = (
{
layerId = "8f7a17a9-cad9-4f2d-97d0-d99f506acba0";
paths = (
{
closed = 1;
nodes = (
"237.767 548.473 OFFCURVE",
"173.13 494.753 OFFCURVE",
"151.404 472.623 CURVE",
"134.815 543.974 LINE",
"78 543.974 LINE",
"78 -0.382 LINE",
"150.31 -0.382 LINE",
"150.31 306.415 LINE",
"150.817 342.646 OFFCURVE",
"156.58 403.115 OFFCURVE",
"216.234 443.38 CURVE SMOOTH",
"299.238 499.409 OFFCURVE",
"416.278 485.664 OFFCURVE",
"463.585 439.727 CURVE SMOOTH",
"502.819 401.629 OFFCURVE",
"503.732 334.816 OFFCURVE",
"503.732 301.025 CURVE",
"503.732 0 LINE",
"576.042 0 LINE",
"576.042 322.73 LINE",
"576.042 478.817 OFFCURVE",
"488.32 548.473 OFFCURVE",
"353.982 548.473 CURVE SMOOTH"
);
},
{
closed = 1;
nodes = (
"414.098 607.356 OFFCURVE",
"432.62 614.824 OFFCURVE",
"446.41 629.524 CURVE",
"475.375 660.41 OFFCURVE",
"472.4 712.091 OFFCURVE",
"472.256 714.281 CURVE",
"471.76 722.091 LINE",
"424.128 722.08 LINE",
"424.304 713.558 LINE",
"424.314 713.259 OFFCURVE",
"424.727 683.736 OFFCURVE",
"409.883 668.581 CURVE",
"404.119 662.704 OFFCURVE",
"396.826 659.842 OFFCURVE",
"387.612 659.842 CURVE",
"365.103 659.842 OFFCURVE",
"347.945 674.108 OFFCURVE",
"329.774 689.221 CURVE SMOOTH",
"309.042 706.462 OFFCURVE",
"285.531 726.006 OFFCURVE",
"250.863 726.006 CURVE SMOOTH",
"180.361 726.006 OFFCURVE",
"161.726 656.185 OFFCURVE",
"161.726 619.266 CURVE",
"161.726 610.919 LINE",
"209.244 610.93 LINE",
"209.688 618.811 LINE",
"209.812 621.012 OFFCURVE",
"213.159 672.713 OFFCURVE",
"249.933 672.713 CURVE",
"269.994 672.713 OFFCURVE",
"284.384 660.617 OFFCURVE",
"301.036 646.589 CURVE SMOOTH",
"322.884 628.201 OFFCURVE",
"347.645 607.366 OFFCURVE",
"391.351 607.366 CURVE"
);
}
);
width = 654;
}
);
unicode = 00F1;
},
{
glyphname = ograve;
layers = (
{
layerId = "8f7a17a9-cad9-4f2d-97d0-d99f506acba0";
paths = (
{
closed = 1;
nodes = (
"149.097 548.149 OFFCURVE",
"46.8 445.853 OFFCURVE",
"46.8 272.075 CURVE SMOOTH",
"46.8 98.297 OFFCURVE",
"149.097 -4 OFFCURVE",
"322.874 -4 CURVE SMOOTH",
"496.653 -4 OFFCURVE",
"598.949 98.297 OFFCURVE",
"598.949 272.075 CURVE SMOOTH",
"598.949 445.853 OFFCURVE",
"496.653 548.149 OFFCURVE",
"322.874 548.149 CURVE SMOOTH"
);
},
{
closed = 1;
nodes = (
"190.249 63.076 OFFCURVE",
"120.145 135.346 OFFCURVE",
"120.145 272.074 CURVE SMOOTH",
"120.145 408.804 OFFCURVE",
"190.249 481.073 OFFCURVE",
"322.875 481.073 CURVE SMOOTH",
"455.502 481.073 OFFCURVE",
"525.605 408.804 OFFCURVE",
"525.605 272.074 CURVE SMOOTH",
"525.605 135.346 OFFCURVE",
"455.502 63.076 OFFCURVE",
"322.875 63.076 CURVE SMOOTH"
);
},
{
closed = 1;
nodes = (
"399.609 616.062 LINE",
"258.086 744.153 LINE",
"159.951 744.153 LINE",
"327.299 616.062 LINE"
);
}
);
width = 646;
}
);
unicode = 00F2;
},
{
glyphname = oacute;
layers = (
{
layerId = "8f7a17a9-cad9-4f2d-97d0-d99f506acba0";
paths = (
{
closed = 1;
nodes = (
"496.652 548.149 OFFCURVE",
"598.949 445.853 OFFCURVE",
"598.949 272.075 CURVE SMOOTH",
"598.949 98.297 OFFCURVE",
"496.652 -4 OFFCURVE",
"322.874 -4 CURVE SMOOTH",
"149.096 -4 OFFCURVE",
"46.8 98.297 OFFCURVE",
"46.8 272.075 CURVE SMOOTH",
"46.8 445.853 OFFCURVE",
"149.096 548.149 OFFCURVE",
"322.874 548.149 CURVE SMOOTH"
);
},
{
closed = 1;
nodes = (
"455.5 63.076 OFFCURVE",
"525.604 135.346 OFFCURVE",
"525.604 272.074 CURVE SMOOTH",
"525.604 408.804 OFFCURVE",
"455.5 481.073 OFFCURVE",
"322.873 481.073 CURVE SMOOTH",
"190.246 481.073 OFFCURVE",
"120.144 408.804 OFFCURVE",
"120.144 272.074 CURVE SMOOTH",
"120.144 135.346 OFFCURVE",
"190.246 63.076 OFFCURVE",
"322.873 63.076 CURVE SMOOTH"
);
},
{
closed = 1;
nodes = (
"246.14 616.062 LINE",
"387.663 744.153 LINE",
"485.798 744.153 LINE",
"318.45 616.062 LINE"
);
}
);
width = 646;
}
);
unicode = 00F3;
},
{
glyphname = ocircumflex;
layers = (
{
layerId = "8f7a17a9-cad9-4f2d-97d0-d99f506acba0";
paths = (
{
closed = 1;
nodes = (
"322.875 694.173 LINE",
"408.012 609.736 LINE",
"479.01 609.736 LINE",
"348.458 737.143 LINE",
"297.292 737.143 LINE",
"166.738 609.736 LINE",
"237.736 609.736 LINE"
);
},
{
closed = 1;
nodes = (
"149.097 548.148 OFFCURVE",
"46.8 445.852 OFFCURVE",
"46.8 272.074 CURVE SMOOTH",
"46.8 98.297 OFFCURVE",
"149.097 -4 OFFCURVE",
"322.874 -4 CURVE SMOOTH",
"496.653 -4 OFFCURVE",
"598.949 98.297 OFFCURVE",
"598.949 272.074 CURVE SMOOTH",
"598.949 445.852 OFFCURVE",
"496.653 548.148 OFFCURVE",
"322.874 548.148 CURVE SMOOTH"
);
},
{
closed = 1;
nodes = (
"190.248 63.074 OFFCURVE",
"120.145 135.343 OFFCURVE",
"120.145 272.073 CURVE SMOOTH",
"120.145 408.803 OFFCURVE",
"190.248 481.073 OFFCURVE",
"322.875 481.073 CURVE SMOOTH",
"455.502 481.073 OFFCURVE",
"525.605 408.803 OFFCURVE",
"525.605 272.073 CURVE SMOOTH",
"525.605 135.343 OFFCURVE",
"455.502 63.074 OFFCURVE",
"322.875 63.074 CURVE SMOOTH"
);
}
);
width = 646;
}
);
unicode = 00F4;
},
{
glyphname = otilde;
layers = (
{
layerId = "8f7a17a9-cad9-4f2d-97d0-d99f506acba0";
paths = (
{
closed = 1;
nodes = (
"215.493 618.785 LINE",
"215.616 620.987 OFFCURVE",
"218.973 672.697 OFFCURVE",
"255.748 672.697 CURVE",
"275.808 672.697 OFFCURVE",
"290.192 660.591 OFFCURVE",
"306.848 646.571 CURVE SMOOTH",
"328.694 628.183 OFFCURVE",
"353.452 607.341 OFFCURVE",
"397.161 607.341 CURVE SMOOTH",
"419.906 607.341 OFFCURVE",
"438.432 614.801 OFFCURVE",
"452.223 629.507 CURVE",
"481.183 660.384 OFFCURVE",
"478.209 712.07 OFFCURVE",
"478.065 714.256 CURVE",
"477.566 722.072 LINE",
"429.936 722.057 LINE",
"430.11 713.537 LINE",
"430.118 713.241 OFFCURVE",
"430.541 683.715 OFFCURVE",
"415.697 668.564 CURVE",
"409.924 662.681 OFFCURVE",
"402.635 659.818 OFFCURVE",
"393.42 659.818 CURVE",
"370.914 659.818 OFFCURVE",
"353.75 674.087 OFFCURVE",
"335.579 689.196 CURVE SMOOTH",
"314.846 706.436 OFFCURVE",
"291.343 725.985 OFFCURVE",
"256.678 725.985 CURVE SMOOTH",
"186.167 725.985 OFFCURVE",
"167.536 656.166 OFFCURVE",
"167.536 619.246 CURVE",
"167.536 610.893 LINE",
"215.051 610.908 LINE"
);
},
{
closed = 1;
nodes = (
"149.099 548.148 OFFCURVE",
"46.8 445.852 OFFCURVE",
"46.8 272.074 CURVE SMOOTH",
"46.8 98.297 OFFCURVE",
"149.099 -4 OFFCURVE",
"322.875 -4 CURVE SMOOTH",
"496.655 -4 OFFCURVE",
"598.951 98.297 OFFCURVE",
"598.951 272.074 CURVE SMOOTH",
"598.951 445.852 OFFCURVE",
"496.655 548.148 OFFCURVE",
"322.875 548.148 CURVE SMOOTH"
);
},
{
closed = 1;
nodes = (
"190.251 63.074 OFFCURVE",
"120.147 135.343 OFFCURVE",
"120.147 272.073 CURVE SMOOTH",
"120.147 408.803 OFFCURVE",
"190.251 481.073 OFFCURVE",
"322.875 481.073 CURVE SMOOTH",
"455.503 481.073 OFFCURVE",
"525.607 408.803 OFFCURVE",
"525.607 272.073 CURVE SMOOTH",
"525.607 135.343 OFFCURVE",
"455.503 63.074 OFFCURVE",
"322.875 63.074 CURVE SMOOTH"
);
}
);
width = 646;
}
);
unicode = 00F5;
},
{
glyphname = odieresis;
layers = (
{
layerId = "8f7a17a9-cad9-4f2d-97d0-d99f506acba0";
paths = (
{
closed = 1;
nodes = (
"149.097 548.148 OFFCURVE",
"46.8 445.852 OFFCURVE",
"46.8 272.074 CURVE SMOOTH",
"46.8 98.297 OFFCURVE",
"149.097 -4 OFFCURVE",
"322.873 -4 CURVE SMOOTH",
"496.652 -4 OFFCURVE",
"598.949 98.297 OFFCURVE",
"598.949 272.074 CURVE SMOOTH",
"598.949 445.852 OFFCURVE",
"496.652 548.148 OFFCURVE",
"322.873 548.148 CURVE SMOOTH"
);
},
{
closed = 1;
nodes = (
"190.248 63.074 OFFCURVE",
"120.144 135.343 OFFCURVE",
"120.144 272.073 CURVE SMOOTH",
"120.144 408.803 OFFCURVE",
"190.248 481.073 OFFCURVE",
"322.875 481.073 CURVE SMOOTH",
"455.501 481.073 OFFCURVE",
"525.605 408.803 OFFCURVE",
"525.605 272.073 CURVE SMOOTH",
"525.605 135.343 OFFCURVE",
"455.501 63.074 OFFCURVE",
"322.875 63.074 CURVE SMOOTH"
);
},
{
closed = 1;
nodes = (
"203.663 638.127 OFFCURVE",
"218.877 623.583 OFFCURVE",
"244.694 623.583 CURVE SMOOTH",
"270.512 623.583 OFFCURVE",
"285.725 638.127 OFFCURVE",
"285.725 664.614 CURVE SMOOTH",
"285.725 691.768 OFFCURVE",
"270.509 705.645 OFFCURVE",
"244.694 705.645 CURVE SMOOTH",
"217.886 705.645 OFFCURVE",
"203.663 691.768 OFFCURVE",
"203.663 664.614 CURVE SMOOTH"
);
},
{
closed = 1;
nodes = (
"360.031 637.778 OFFCURVE",
"375.245 623.234 OFFCURVE",
"401.062 623.234 CURVE SMOOTH",
"426.88 623.234 OFFCURVE",
"442.093 637.778 OFFCURVE",
"442.093 664.266 CURVE SMOOTH",
"442.093 691.42 OFFCURVE",
"426.877 705.297 OFFCURVE",
"401.062 705.297 CURVE SMOOTH",
"374.254 705.297 OFFCURVE",
"360.031 691.42 OFFCURVE",
"360.031 664.266 CURVE SMOOTH"
);
}
);
width = 646;
}
);
unicode = 00F6;
},
{
glyphname = oslash;
layers = (
{
layerId = "8f7a17a9-cad9-4f2d-97d0-d99f506acba0";
paths = (
{
closed = 1;
nodes = (
"581.672 616.055 LINE",
"524.244 616.055 LINE",
"460.448 520.679 LINE",
"421.734 538.668 OFFCURVE",
"375.622 548.148 OFFCURVE",
"322.872 548.148 CURVE SMOOTH",
"149.098 548.148 OFFCURVE",
"46.8 445.852 OFFCURVE",
"46.8 272.074 CURVE SMOOTH",
"46.8 171.234 OFFCURVE",
"81.307 94.527 OFFCURVE",
"144.178 47.847 CURVE",
"64.077 -71.907 LINE",
"121.503 -71.907 LINE",
"185.298 23.468 LINE",
"224.013 5.48 OFFCURVE",
"270.128 -4. OFFCURVE",
"322.872 -4. CURVE SMOOTH",
"496.652 -4. OFFCURVE",
"598.948 98.297 OFFCURVE",
"598.948 272.074 CURVE SMOOTH",
"598.948 372.915 OFFCURVE",
"564.442 449.621 OFFCURVE",
"501.569 496.3 CURVE"
);
},
{
closed = 1;
nodes = (
"122.154 407.449 OFFCURVE",
"191.56 479.003 OFFCURVE",
"322.875 479.003 CURVE SMOOTH",
"360.725 479.003 OFFCURVE",
"393.253 472.866 OFFCURVE",
"420.64 461.16 CURVE",
"184.278 107.796 LINE",
"143.356 142.34 OFFCURVE",
"122.154 197.451 OFFCURVE",
"122.154 272.073 CURVE SMOOTH"
);
},
{
closed = 1;
nodes = (
"285.023 65.143 OFFCURVE",
"252.494 71.282 OFFCURVE",
"225.11 82.987 CURVE",
"461.47 436.351 LINE",
"502.394 401.809 OFFCURVE",
"523.597 346.696 OFFCURVE",
"523.597 272.073 CURVE SMOOTH",
"523.597 136.698 OFFCURVE",
"454.189 65.143 OFFCURVE",
"322.875 65.143 CURVE SMOOTH"
);
}
);
width = 646;
}
);
unicode = 00F8;
},
{
glyphname = ugrave;
layers = (
{
layerId = "8f7a17a9-cad9-4f2d-97d0-d99f506acba0";
paths = (
{
closed = 1;
nodes = (
"397.07 604.573 LINE",
"255.547 732.663 LINE",
"157.412 732.663 LINE",
"324.76 604.573 LINE"
);
},
{
closed = 1;
nodes = (
"503.731 543.356 LINE",
"503.731 237.559 LINE",
"503.224 201.328 OFFCURVE",
"497.462 140.859 OFFCURVE",
"437.809 100.594 CURVE SMOOTH",
"354.804 44.565 OFFCURVE",
"237.763 57.31 OFFCURVE",
"190.457 103.247 CURVE SMOOTH",
"151.223 141.344 OFFCURVE",
"150.31 209.158 OFFCURVE",
"150.31 242.949 CURVE",
"150.31 543.974 LINE",
"78 543.974 LINE",
"78 221.244 LINE",
"78 65.157 OFFCURVE",
"165.721 -4.5 OFFCURVE",
"300.06 -4.5 CURVE SMOOTH",
"416.274 -4.5 OFFCURVE",
"480.91 49.22 OFFCURVE",
"502.639 71.349 CURVE",
"519.226 -0. LINE",
"576.041 -0. LINE",
"576.041 543.356 LINE"
);
}
);
width = 654;
}
);
unicode = 00F9;
},
{
glyphname = uacute;
layers = (
{
layerId = "8f7a17a9-cad9-4f2d-97d0-d99f506acba0";
paths = (
{
closed = 1;
nodes = (
"496.629 732.975 LINE",
"398.494 732.975 LINE",
"256.971 604.884 LINE",
"329.281 604.884 LINE"
);
},
{
closed = 1;
nodes = (
"503.731 543.667 LINE",
"503.731 237.87 LINE",
"503.224 201.639 OFFCURVE",
"497.462 141.17 OFFCURVE",
"437.809 100.905 CURVE SMOOTH",
"354.804 44.876 OFFCURVE",
"237.764 57.621 OFFCURVE",
"190.457 103.558 CURVE SMOOTH",
"151.222 141.656 OFFCURVE",
"150.31 209.469 OFFCURVE",
"150.31 243.26 CURVE",
"150.31 544.285 LINE",
"78 544.285 LINE",
"78 221.555 LINE",
"78 65.468 OFFCURVE",
"165.721 -4.188 OFFCURVE",
"300.06 -4.188 CURVE SMOOTH",
"416.274 -4.188 OFFCURVE",
"480.91 49.532 OFFCURVE",
"502.639 71.661 CURVE",
"519.226 0.311 LINE",
"576.041 0.311 LINE",
"576.041 543.667 LINE"
);
}
);
width = 654;
}
);
unicode = 00FA;
},
{
glyphname = ucircumflex;
layers = (
{
layerId = "8f7a17a9-cad9-4f2d-97d0-d99f506acba0";
paths = (
{
closed = 1;
nodes = (
"328.022 690.198 LINE",
"412.159 605.761 LINE",
"483.157 605.761 LINE",
"352.604 733.168 LINE",
"299.439 733.168 LINE",
"170.884 605.761 LINE",
"241.882 605.761 LINE"
);
},
{
closed = 1;
nodes = (
"503.731 543.856 LINE",
"503.731 238.059 LINE",
"503.224 201.827 OFFCURVE",
"497.462 141.359 OFFCURVE",
"437.809 101.093 CURVE SMOOTH",
"354.804 45.064 OFFCURVE",
"237.764 57.81 OFFCURVE",
"190.457 103.746 CURVE SMOOTH",
"151.222 141.844 OFFCURVE",
"150.31 209.658 OFFCURVE",
"150.31 243.448 CURVE",
"150.31 544.474 LINE",
"78 544.474 LINE",
"78 221.744 LINE",
"78 65.656 OFFCURVE",
"165.721 -4 OFFCURVE",
"300.059 -4 CURVE SMOOTH",
"416.274 -4 OFFCURVE",
"480.91 49.72 OFFCURVE",
"502.639 71.849 CURVE",
"519.226 0.5 LINE",
"576.041 0.5 LINE",
"576.041 543.856 LINE"
);
}
);
width = 654;
}
);
unicode = 00FB;
},
{
glyphname = udieresis;
layers = (
{
layerId = "8f7a17a9-cad9-4f2d-97d0-d99f506acba0";
paths = (
{
closed = 1;
nodes = (
"503.731 543.342 LINE",
"503.731 237.545 LINE",
"503.224 201.313 OFFCURVE",
"497.462 140.845 OFFCURVE",
"437.809 100.579 CURVE SMOOTH",
"354.804 44.55 OFFCURVE",
"237.764 57.296 OFFCURVE",
"190.457 103.232 CURVE SMOOTH",
"151.222 141.33 OFFCURVE",
"150.31 209.144 OFFCURVE",
"150.31 242.934 CURVE",
"150.31 543.96 LINE",
"78 543.96 LINE",
"78 221.23 LINE",
"78 65.142 OFFCURVE",
"165.721 -4.514 OFFCURVE",
"300.059 -4.514 CURVE SMOOTH",
"416.274 -4.514 OFFCURVE",
"480.91 49.206 OFFCURVE",
"502.639 71.335 CURVE",
"519.226 -0.014 LINE",
"576.041 -0.014 LINE",
"576.041 543.342 LINE"
);
},
{
closed = 1;
nodes = (
"207.443 633.762 OFFCURVE",
"222.461 618.744 OFFCURVE",
"248.492 619.094 CURVE SMOOTH",
"274.523 618.744 OFFCURVE",
"289.541 633.762 OFFCURVE",
"289.867 660.469 CURVE SMOOTH",
"289.541 687.848 OFFCURVE",
"274.523 701.843 OFFCURVE",
"248.492 701.843 CURVE SMOOTH",
"221.46 701.843 OFFCURVE",
"207.443 687.848 OFFCURVE",
"207.117 660.469 CURVE SMOOTH"
);
},
{
closed = 1;
nodes = (
"364.158 633.41 OFFCURVE",
"379.176 618.392 OFFCURVE",
"405.207 618.743 CURVE SMOOTH",
"431.238 618.392 OFFCURVE",
"446.256 633.41 OFFCURVE",
"446.582 660.117 CURVE SMOOTH",
"446.256 687.497 OFFCURVE",
"431.238 701.492 OFFCURVE",
"405.207 701.492 CURVE SMOOTH",
"378.175 701.492 OFFCURVE",
"364.158 687.497 OFFCURVE",
"363.833 660.117 CURVE SMOOTH"
);
}
);
width = 654;
}
);
unicode = 00FC;
},
{
glyphname = yacute;
layers = (
{
layerId = "8f7a17a9-cad9-4f2d-97d0-d99f506acba0";
paths = (
{
closed = 1;
nodes = (
"459.152 732.761 LINE",
"361.017 732.761 LINE",
"219.494 604.67 LINE",
"291.804 604.67 LINE"
);
},
{
closed = 1;
nodes = (
"489.434 544.071 LINE",
"289.544 150.401 LINE",
"89.65 544.071 LINE",
"5. 544.071 LINE",
"250.878 76.941 LINE",
"103.844 -203.138 LINE",
"181.178 -203.138 LINE",
"574.089 544.071 LINE"
);
}
);
width = 579;
}
);
unicode = 00FD;
},
{
glyphname = thorn;
layers = (
{
layerId = "8f7a17a9-cad9-4f2d-97d0-d99f506acba0";
paths = (
{
closed = 1;
nodes = (
"267.266 538.065 OFFCURVE",
"199.44 512.123 OFFCURVE",
"153.153 464.212 CURVE",
"153.153 726.944 LINE",
"78. 726.944 LINE",
"78. -203.142 LINE",
"153.153 -203.142 LINE",
"153.153 59.771 LINE",
"199.44 11.861 OFFCURVE",
"267.266 -14.082 OFFCURVE",
"352.832 -14.082 CURVE SMOOTH",
"522.817 -14.082 OFFCURVE",
"622.883 88.215 OFFCURVE",
"622.883 261.992 CURVE SMOOTH",
"622.883 435.77 OFFCURVE",
"522.817 538.065 OFFCURVE",
"352.832 538.065 CURVE SMOOTH"
);
},
{
closed = 1;
nodes = (
"215.493 55.062 OFFCURVE",
"146.085 126.616 OFFCURVE",
"146.085 261.991 CURVE SMOOTH",
"146.085 397.368 OFFCURVE",
"215.493 468.921 OFFCURVE",
"346.807 468.921 CURVE SMOOTH",
"478.122 468.921 OFFCURVE",
"547.531 397.368 OFFCURVE",
"547.531 261.991 CURVE SMOOTH",
"547.531 126.616 OFFCURVE",
"478.122 55.062 OFFCURVE",
"346.807 55.062 CURVE SMOOTH"
);
}
);
width = 670;
}
);
unicode = 00FE;
},
{
glyphname = ydieresis;
layers = (
{
layerId = "8f7a17a9-cad9-4f2d-97d0-d99f506acba0";
paths = (
{
closed = 1;
nodes = (
"489.433 544.068 LINE",
"289.544 150.399 LINE",
"89.649 544.068 LINE",
"5. 544.068 LINE",
"250.876 76.938 LINE",
"103.845 -203.141 LINE",
"181.179 -203.141 LINE",
"574.088 544.068 LINE"
);
},
{
closed = 1;
nodes = (
"170.656 641.458 OFFCURVE",
"185.55 626.565 OFFCURVE",
"211.365 626.912 CURVE SMOOTH",
"237.181 626.565 OFFCURVE",
"252.074 641.458 OFFCURVE",
"252.397 667.944 CURVE SMOOTH",
"252.074 695.096 OFFCURVE",
"237.181 708.975 OFFCURVE",
"211.365 708.975 CURVE SMOOTH",
"184.557 708.975 OFFCURVE",
"170.656 695.096 OFFCURVE",
"170.334 667.944 CURVE SMOOTH"
);
},
{
closed = 1;
nodes = (
"326.498 640.934 OFFCURVE",
"341.392 626.041 OFFCURVE",
"367.207 626.388 CURVE SMOOTH",
"393.023 626.041 OFFCURVE",
"407.916 640.934 OFFCURVE",
"408.239 667.42 CURVE SMOOTH",
"407.916 694.572 OFFCURVE",
"393.023 708.451 OFFCURVE",
"367.207 708.451 CURVE SMOOTH",
"340.399 708.451 OFFCURVE",
"326.498 694.572 OFFCURVE",
"326.176 667.42 CURVE SMOOTH"
);
}
);
width = 579;
}
);
unicode = 00FF;
},
{
glyphname = circumflex;
layers = (
{
layerId = "8f7a17a9-cad9-4f2d-97d0-d99f506acba0";
paths = (
{
closed = 1;
nodes = (
"117.799 609.738 LINE",
"202.939 694.174 LINE",
"288.076 609.738 LINE",
"359.074 609.738 LINE",
"228.522 737.144 LINE",
"177.356 737.144 LINE",
"46.8 609.738 LINE"
);
}
);
width = 406;
}
);
unicode = 02C6;
},
{
glyphname = caron;
layers = (
{
layerId = "8f7a17a9-cad9-4f2d-97d0-d99f506acba0";
paths = (
{
closed = 1;
nodes = (
"117.799 737.144 LINE",
"202.939 652.709 LINE",
"288.076 737.144 LINE",
"359.074 737.144 LINE",
"228.522 609.738 LINE",
"177.356 609.738 LINE",
"46.8 737.144 LINE"
);
}
);
width = 406;
}
);
unicode = 02C7;
},
{
glyphname = ogonek;
layers = (
{
components = (
{
name = space;
transform = "{1, 0, 0, 1, -11.42, 0}";
alignment = -1;
}
);
layerId = "8f7a17a9-cad9-4f2d-97d0-d99f506acba0";
paths = (
{
closed = 1;
nodes = (
"133.576 4.756 LINE",
"108.78 -89.253 LINE",
"108.78 -89.253 OFFCURVE",
"201.255 -79.002 OFFCURVE",
"201.255 -136.767 CURVE SMOOTH",
"201.255 -194.532 OFFCURVE",
"111.704 -193.708 OFFCURVE",
"64.363 -165.689 CURVE",
"46.8 -204.951 LINE",
"46.8 -204.951 OFFCURVE",
"119.38 -242.743 OFFCURVE",
"191.526 -219.149 CURVE SMOOTH",
"228.549 -207.042 OFFCURVE",
"275.745 -167.238 OFFCURVE",
"251.863 -101.278 CURVE",
"251.863 -101.278 OFFCURVE",
"237.647 -56.356 OFFCURVE",
"162.498 -55.166 CURVE",
"177.993 4.756 LINE"
);
}
);
width = 305;
}
);
unicode = 02DB;
},
{
glyphname = mu;
layers = (
{
layerId = "8f7a17a9-cad9-4f2d-97d0-d99f506acba0";
paths = (
{
closed = 1;
nodes = (
"503.731 543.252 LINE",
"503.731 242.433 LINE",
"503.225 206.201 OFFCURVE",
"497.462 145.733 OFFCURVE",
"437.808 105.467 CURVE SMOOTH",
"354.805 49.438 OFFCURVE",
"237.765 63.184 OFFCURVE",
"190.457 109.12 CURVE SMOOTH",
"151.223 147.218 OFFCURVE",
"150.31 214.032 OFFCURVE",
"150.31 247.822 CURVE",
"150.31 543.869 LINE",
"78. 543.869 LINE",
"78. -201.33 LINE",
"150.31 -201.33 LINE",
"150.31 66.207 LINE",
"184.012 15.031 OFFCURVE",
"239.29 -4.604 OFFCURVE",
"300.06 -4.604 CURVE SMOOTH",
"416.274 -4.604 OFFCURVE",
"480.911 49.115 OFFCURVE",
"502.638 71.245 CURVE",
"519.226 -0.104 LINE",
"576.041 -0.104 LINE",
"576.041 543.252 LINE"
);
}
);
width = 654;
}
);
unicode = 03BC;
},
{
glyphname = paragraph;
layers = (
{
layerId = "8f7a17a9-cad9-4f2d-97d0-d99f506acba0";
paths = (
{
closed = 1;
nodes = (
"221.391 734.769 LINE",
"111.494 734.769 OFFCURVE",
"46.8 670.078 OFFCURVE",
"46.8 560.179 CURVE SMOOTH",
"46.8 450.28 OFFCURVE",
"111.494 385.587 OFFCURVE",
"221.391 385.587 CURVE",
"239.083 385.587 LINE",
"239.083 -115.894 LINE",
"300.493 -115.894 LINE",
"300.493 689.276 LINE",
"477.905 689.276 LINE",
"477.905 -115.894 LINE",
"539.316 -115.894 LINE",
"539.316 734.769 LINE"
);
}
);
width = 617;
}
);
unicode = 00B6;
},
{
glyphname = section;
layers = (
{
layerId = "8f7a17a9-cad9-4f2d-97d0-d99f506acba0";
paths = (
{
closed = 1;
nodes = (
"569.608 404.938 OFFCURVE",
"491.208 447.056 OFFCURVE",
"321.457 472.544 CURVE",
"151.114 499.533 OFFCURVE",
"150.477 538.364 OFFCURVE",
"149.377 579.621 CURVE SMOOTH",
"147.613 645.875 OFFCURVE",
"231.456 674.045 OFFCURVE",
"326.116 674.045 CURVE SMOOTH",
"401.114 674.045 OFFCURVE",
"444.231 651.172 OFFCURVE",
"468.949 619.391 CURVE SMOOTH",
"487.732 595.242 OFFCURVE",
"493.667 554.065 OFFCURVE",
"492.615 536.214 CURVE",
"565.384 536.214 LINE",
"560.975 658.378 OFFCURVE",
"489.236 736.68 OFFCURVE",
"331.341 737.483 CURVE SMOOTH",
"195.93 738.142 OFFCURVE",
"87.971 691.734 OFFCURVE",
"83.168 578.142 CURVE SMOOTH",
"80.976 526.273 OFFCURVE",
"97.752 489.833 OFFCURVE",
"135.045 463.367 CURVE",
"103.778 438.354 OFFCURVE",
"80.054 404.455 OFFCURVE",
"78.19 360.381 CURVE SMOOTH",
"73.776 255.962 OFFCURVE",
"153.126 210.589 OFFCURVE",
"321.697 188.39 CURVE",
"492.294 161.311 OFFCURVE",
"494.007 117.067 OFFCURVE",
"494.007 81.28 CURVE SMOOTH",
"494.007 15.003 OFFCURVE",
"411.929 -13.143 OFFCURVE",
"317.268 -13.143 CURVE SMOOTH",
"242.27 -13.143 OFFCURVE",
"199.153 9.73 OFFCURVE",
"174.435 41.51 CURVE SMOOTH",
"155.653 65.66 OFFCURVE",
"149.717 106.837 OFFCURVE",
"150.769 124.688 CURVE",
"78. 124.688 LINE",
"82.409 2.524 OFFCURVE",
"139.843 -75.705 OFFCURVE",
"312.043 -76.589 CURVE SMOOTH",
"448.669 -78.587 OFFCURVE",
"555.414 -30.84 OFFCURVE",
"560.216 82.752 CURVE SMOOTH",
"562.414 134.759 OFFCURVE",
"545.562 171.265 OFFCURVE",
"508.058 197.748 CURVE",
"539.054 222.716 OFFCURVE",
"563.334 256.522 OFFCURVE",
"565.194 300.52 CURVE SMOOTH"
);
},
{
closed = 1;
nodes = (
"414.338 237.9 OFFCURVE",
"375.892 246.147 OFFCURVE",
"329.992 252.837 CURVE",
"159.774 277.065 OFFCURVE",
"140.591 323.523 OFFCURVE",
"144.401 361.86 CURVE SMOOTH",
"147.166 389.698 OFFCURVE",
"165.715 416.828 OFFCURVE",
"197.693 433.473 CURVE",
"229.41 422.93 OFFCURVE",
"267.709 414.73 OFFCURVE",
"313.392 408.069 CURVE",
"391.029 394.875 OFFCURVE",
"498.984 385.003 OFFCURVE",
"498.984 299.047 CURVE SMOOTH",
"498.984 270.237 OFFCURVE",
"478.756 243.695 OFFCURVE",
"446.14 227.286 CURVE"
);
}
);
width = 643;
}
);
unicode = 00A7;
},
{
glyphname = guillemotleft;
layers = (
{
layerId = "8f7a17a9-cad9-4f2d-97d0-d99f506acba0";
paths = (
{
closed = 1;
nodes = (
"146.235 290.11 LINE",
"285.707 473.758 LINE",
"217.474 473.758 LINE",
"78 290.11 LINE",
"217.473 106.463 LINE",
"285.707 106.463 LINE"
);
},
{
closed = 1;
nodes = (
"324.499 290.11 LINE",
"463.971 473.758 LINE",
"395.736 473.758 LINE",
"256.264 290.11 LINE",
"395.736 106.463 LINE",
"463.97 106.463 LINE"
);
}
);
width = 542;
}
);
unicode = 00AB;
},
{
glyphname = guillemotright;
layers = (
{
layerId = "8f7a17a9-cad9-4f2d-97d0-d99f506acba0";
paths = (
{
closed = 1;
nodes = (
"395.736 290.11 LINE",
"256.264 473.758 LINE",
"324.498 473.758 LINE",
"463.971 290.11 LINE",
"324.499 106.463 LINE",
"256.264 106.463 LINE"
);
},
{
closed = 1;
nodes = (
"217.473 290.11 LINE",
"78. 473.758 LINE",
"146.235 473.758 LINE",
"285.707 290.11 LINE",
"146.235 106.463 LINE",
"78.001 106.463 LINE"
);
}
);
width = 542;
}
);
unicode = 00BB;
},
{
glyphname = guilsinglleft;
layers = (
{
layerId = "8f7a17a9-cad9-4f2d-97d0-d99f506acba0";
paths = (
{
closed = 1;
nodes = (
"146.235 290.111 LINE",
"285.707 473.757 LINE",
"217.473 473.757 LINE",
"78. 290.111 LINE",
"217.473 106.463 LINE",
"285.707 106.463 LINE"
);
}
);
width = 364;
}
);
unicode = 2039;
},
{
glyphname = guilsinglright;
layers = (
{
layerId = "8f7a17a9-cad9-4f2d-97d0-d99f506acba0";
paths = (
{
closed = 1;
nodes = (
"217.473 290.111 LINE",
"78. 473.757 LINE",
"146.235 473.757 LINE",
"285.707 290.111 LINE",
"146.235 106.463 LINE",
"78. 106.463 LINE"
);
}
);
width = 364;
}
);
unicode = 203A;
},
{
glyphname = dotlessi;
layers = (
{
layerId = "8f7a17a9-cad9-4f2d-97d0-d99f506acba0";
paths = (
{
closed = 1;
nodes = (
"96.787 0. LINE",
"169.097 0. LINE",
"169.097 543.997 LINE",
"96.787 543.997 LINE"
);
}
);
width = 266;
}
);
unicode = 0131;
},
{
glyphname = grave;
layers = (
{
layerId = "8f7a17a9-cad9-4f2d-97d0-d99f506acba0";
paths = (
{
closed = 1;
nodes = (
"46.669 737.148 LINE",
"144.804 737.148 LINE",
"286.327 609.057 LINE",
"214.017 609.057 LINE"
);
}
);
width = 333;
}
);
unicode = 0060;
},
{
glyphname = acute;
layers = (
{
components = (
{
name = space;
alignment = -1;
}
);
layerId = "8f7a17a9-cad9-4f2d-97d0-d99f506acba0";
paths = (
{
closed = 1;
nodes = (
"286.327 737.148 LINE",
"188.192 737.148 LINE",
"46.669 609.057 LINE",
"118.979 609.057 LINE"
);
}
);
width = 333;
}
);
unicode = 00B4;
},
{
glyphname = ring;
layers = (
{
layerId = "8f7a17a9-cad9-4f2d-97d0-d99f506acba0";
paths = (
{
closed = 1;
nodes = (
"201.384 623.486 OFFCURVE",
"236.536 658.639 OFFCURVE",
"236.536 718.355 CURVE SMOOTH",
"236.536 778.071 OFFCURVE",
"201.384 813.224 OFFCURVE",
"141.668 813.224 CURVE SMOOTH",
"81.953 813.224 OFFCURVE",
"46.8 778.071 OFFCURVE",
"46.8 718.355 CURVE SMOOTH",
"46.8 658.639 OFFCURVE",
"81.953 623.486 OFFCURVE",
"141.668 623.486 CURVE SMOOTH"
);
},
{
closed = 1;
nodes = (
"178.644 775.694 OFFCURVE",
"199.007 755.331 OFFCURVE",
"199.007 718.355 CURVE SMOOTH",
"199.007 681.38 OFFCURVE",
"178.644 661.016 OFFCURVE",
"141.668 661.016 CURVE SMOOTH",
"104.692 661.016 OFFCURVE",
"84.329 681.38 OFFCURVE",
"84.329 718.355 CURVE SMOOTH",
"84.329 755.331 OFFCURVE",
"104.692 775.694 OFFCURVE",
"141.668 775.694 CURVE SMOOTH"
);
}
);
width = 283;
}
);
unicode = 02DA;
},
{
glyphname = oe;
layers = (
{
layerId = "8f7a17a9-cad9-4f2d-97d0-d99f506acba0";
paths = (
{
closed = 1;
nodes = (
"694.787 -4 OFFCURVE",
"612.012 37.639 OFFCURVE",
"567.151 116.413 CURVE",
"564.587 120.92 LINE",
"562.012 116.413 LINE",
"517.094 37.905 OFFCURVE",
"434.396 -3.592 OFFCURVE",
"322.863 -3.592 CURVE SMOOTH",
"149.998 -3.592 OFFCURVE",
"46.8 99.61 OFFCURVE",
"46.8 272.48 CURVE SMOOTH",
"46.8 445.352 OFFCURVE",
"149.998 548.554 OFFCURVE",
"322.863 548.554 CURVE SMOOTH",
"434.61 548.554 OFFCURVE",
"517.39 506.914 OFFCURVE",
"562.251 428.141 CURVE",
"564.816 423.634 LINE",
"567.391 428.141 LINE",
"612.303 506.649 OFFCURVE",
"694.997 548.146 OFFCURVE",
"806.534 548.146 CURVE SMOOTH",
"895.187 548.146 OFFCURVE",
"965.997 520.648 OFFCURVE",
"1011.308 468.628 CURVE SMOOTH",
"1057.673 415.386 OFFCURVE",
"1075.485 337.306 OFFCURVE",
"1062.878 242.699 CURVE",
"606.176 242.699 LINE",
"606.323 239.599 LINE",
"611.819 126.405 OFFCURVE",
"682.924 64.067 OFFCURVE",
"806.534 64.067 CURVE SMOOTH",
"882.539 64.067 OFFCURVE",
"946.65 90.281 OFFCURVE",
"987.495 137.957 CURVE",
"1034.315 90.005 LINE",
"985.38 29.361 OFFCURVE",
"904.614 -4 OFFCURVE",
"806.534 -4 CURVE SMOOTH"
);
},
{
closed = 1;
nodes = (
"188.211 484.585 OFFCURVE",
"117.035 411.246 OFFCURVE",
"117.035 272.48 CURVE SMOOTH",
"117.035 133.715 OFFCURVE",
"188.211 60.377 OFFCURVE",
"322.868 60.377 CURVE SMOOTH",
"457.52 60.377 OFFCURVE",
"528.698 133.715 OFFCURVE",
"528.698 272.48 CURVE SMOOTH",
"528.698 411.246 OFFCURVE",
"457.52 484.585 OFFCURVE",
"322.868 484.585 CURVE SMOOTH"
);
},
{
closed = 1;
nodes = (
"684.918 480.078 OFFCURVE",
"611.946 416.099 OFFCURVE",
"606.323 304.557 CURVE",
"606.165 301.447 LINE",
"999.047 301.447 LINE",
"999.15 304.302 LINE",
"1000.969 356.025 OFFCURVE",
"987.184 397.492 OFFCURVE",
"958.167 427.549 CURVE SMOOTH",
"924.989 461.92 OFFCURVE",
"872.552 480.078 OFFCURVE",
"806.534 480.078 CURVE SMOOTH"
);
}
);
width = 1114;
}
);
unicode = 0153;
},
{
glyphname = dieresis;
layers = (
{
layerId = "8f7a17a9-cad9-4f2d-97d0-d99f506acba0";
paths = (
{
closed = 1;
nodes = (
"203.496 691.943 OFFCURVE",
"217.397 705.822 OFFCURVE",
"244.205 705.822 CURVE SMOOTH",
"270.02 705.822 OFFCURVE",
"284.914 691.943 OFFCURVE",
"285.237 664.79 CURVE SMOOTH",
"284.914 638.304 OFFCURVE",
"270.02 623.411 OFFCURVE",
"244.205 623.758 CURVE SMOOTH",
"218.39 623.411 OFFCURVE",
"203.496 638.304 OFFCURVE",
"203.173 664.79 CURVE SMOOTH"
);
},
{
closed = 1;
nodes = (
"47.654 692.467 OFFCURVE",
"61.554 706.346 OFFCURVE",
"88.363 706.346 CURVE SMOOTH",
"114.178 706.346 OFFCURVE",
"129.072 692.467 OFFCURVE",
"129.394 665.314 CURVE SMOOTH",
"129.072 638.828 OFFCURVE",
"114.178 623.935 OFFCURVE",
"88.363 624.282 CURVE SMOOTH",
"62.547 623.935 OFFCURVE",
"47.654 638.828 OFFCURVE",
"47.331 665.314 CURVE SMOOTH"
);
}
);
width = 332;
}
);
unicode = 00A8;
},
{
glyphname = cedilla;
layers = (
{
layerId = "8f7a17a9-cad9-4f2d-97d0-d99f506acba0";
paths = (
{
closed = 1;
nodes = (
"133.576 4.756 LINE",
"108.78 -89.253 LINE",
"108.78 -89.253 OFFCURVE",
"201.255 -79.002 OFFCURVE",
"201.255 -136.767 CURVE SMOOTH",
"201.255 -194.532 OFFCURVE",
"111.704 -193.708 OFFCURVE",
"64.363 -165.689 CURVE",
"46.8 -204.951 LINE",
"46.8 -204.951 OFFCURVE",
"119.38 -242.743 OFFCURVE",
"191.526 -219.149 CURVE SMOOTH",
"228.549 -207.042 OFFCURVE",
"275.745 -167.238 OFFCURVE",
"251.863 -101.278 CURVE",
"251.863 -101.278 OFFCURVE",
"237.647 -56.356 OFFCURVE",
"162.498 -55.166 CURVE",
"177.993 4.756 LINE"
);
}
);
width = 305;
}
);
unicode = 00B8;
},
{
glyphname = OE;
layers = (
{
layerId = "8f7a17a9-cad9-4f2d-97d0-d99f506acba0";
paths = (
{
closed = 1;
nodes = (
"638.479 63.797 LINE",
"638.479 318.193 LINE",
"1038.36 318.193 LINE",
"1038.36 381.988 LINE",
"638.479 381.988 LINE",
"638.479 636.382 LINE",
"1053.001 636.382 LINE",
"1053.001 700.181 LINE",
"388.872 700.181 LINE",
"171.481 700.181 OFFCURVE",
"46.8 572.578 OFFCURVE",
"46.8 350.09 CURVE SMOOTH",
"46.8 127.602 OFFCURVE",
"171.481 0 OFFCURVE",
"388.872 0 CURVE",
"1067.642 0 LINE",
"1067.642 63.797 LINE"
);
},
{
closed = 1;
nodes = (
"390.392 63.582 LINE",
"214.549 63.582 OFFCURVE",
"117.707 164.834 OFFCURVE",
"117.707 350.09 CURVE SMOOTH",
"117.707 535.347 OFFCURVE",
"214.549 637.37 OFFCURVE",
"390.392 636.386 CURVE",
"563.326 636.386 LINE",
"563.326 63.582 LINE"
);
}
);
width = 1100;
}
);
unicode = 0152;
},
{
glyphname = asciitilde;
layers = (
{
layerId = "8f7a17a9-cad9-4f2d-97d0-d99f506acba0";
paths = (
{
closed = 1;
nodes = (
"127.583 262.673 LINE",
"127.583 262.673 OFFCURVE",
"132.816 360.659 OFFCURVE",
"204.613 360.659 CURVE SMOOTH",
"285.483 360.659 OFFCURVE",
"310.941 257.043 OFFCURVE",
"428.816 257.043 CURVE SMOOTH",
"553.873 257.043 OFFCURVE",
"543.88 412.458 OFFCURVE",
"543.88 412.458 CURVE",
"494.298 412.458 LINE",
"494.298 412.458 OFFCURVE",
"496.602 313.755 OFFCURVE",
"422.886 313.755 CURVE SMOOTH",
"338.934 313.755 OFFCURVE",
"302.963 418.657 OFFCURVE",
"206.087 418.657 CURVE SMOOTH",
"109.21 418.657 OFFCURVE",
"78. 323.486 OFFCURVE",
"78. 262.673 CURVE"
);
}
);
width = 622;
}
);
unicode = 007E;
},
{
glyphname = uni02BB;
layers = (
{
layerId = "8f7a17a9-cad9-4f2d-97d0-d99f506acba0";
paths = (
{
closed = 1;
nodes = (
"184.192 844.793 LINE",
"134.605 844.793 LINE",
"80.28 665.392 LINE",
"78.91 660.238 OFFCURVE",
"78. 654.711 OFFCURVE",
"78. 648.523 CURVE",
"78. 616.614 OFFCURVE",
"96.784 597.834 OFFCURVE",
"128.697 597.834 CURVE SMOOTH",
"160.61 597.834 OFFCURVE",
"179.396 616.614 OFFCURVE",
"179.396 648.523 CURVE SMOOTH",
"179.396 672.778 OFFCURVE",
"168.5 689.389 OFFCURVE",
"149.286 696. CURVE"
);
}
);
width = 231;
}
);
unicode = 02BB;
},
{
glyphname = uni02BC;
layers = (
{
layerId = "8f7a17a9-cad9-4f2d-97d0-d99f506acba0";
paths = (
{
closed = 1;
nodes = (
"46.8 431.61 LINE",
"49.075 700. LINE",
"99.113 700. LINE",
"90.015 431.61 LINE"
);
},
{
closed = 1;
nodes = (
"67.61 673.523 LINE",
"67.893 700 LINE",
"80.203 700 LINE",
"79.072 673.523 LINE"
);
}
);
width = 146;
}
);
unicode = 02BC;
},
{
glyphname = minute;
layers = (
{
layerId = "8f7a17a9-cad9-4f2d-97d0-d99f506acba0";
paths = (
{
closed = 1;
nodes = (
"46.8 700. LINE",
"113.149 700. LINE",
"105.986 451.167 LINE",
"53.963 451.167 LINE"
);
}
);
width = 160;
}
);
unicode = 2032;
},
{
glyphname = second;
layers = (
{
layerId = "8f7a17a9-cad9-4f2d-97d0-d99f506acba0";
paths = (
{
closed = 1;
nodes = (
"54.472 451.167 LINE",
"106.497 451.167 LINE",
"113.659 700. LINE",
"47.309 700. LINE"
);
},
{
closed = 1;
nodes = (
"183.779 700. LINE",
"190.943 451.167 LINE",
"242.965 451.167 LINE",
"250.129 700. LINE"
);
}
);
width = 297;
}
);
unicode = 2033;
},
{
glyphname = arrowup;
layers = (
{
layerId = "8f7a17a9-cad9-4f2d-97d0-d99f506acba0";
paths = (
{
closed = 1;
nodes = (
"445.296 374.441 LINE",
"261.648 513.914 LINE",
"78. 374.44 LINE",
"78. 306.205 LINE",
"231.51 422.79 LINE",
"231.51 76.001 LINE",
"291.786 76.001 LINE",
"291.786 422.79 LINE",
"445.296 306.206 LINE"
);
}
);
width = 523;
}
);
unicode = 2191;
},
{
glyphname = arrowdown;
layers = (
{
layerId = "8f7a17a9-cad9-4f2d-97d0-d99f506acba0";
paths = (
{
closed = 1;
nodes = (
"445.295 215.468 LINE",
"261.649 76.002 LINE",
"78.002 215.468 LINE",
"78.002 283.708 LINE",
"231.516 167.123 LINE",
"231.516 513.912 LINE",
"291.781 513.912 LINE",
"291.781 167.123 LINE",
"445.295 283.708 LINE"
);
}
);
width = 523;
}
);
unicode = 2193;
},
{
glyphname = uni2215;
layers = (
{
layerId = "8f7a17a9-cad9-4f2d-97d0-d99f506acba0";
paths = (
{
closed = 1;
nodes = (
"357.609 824.36 LINE",
"32 -104.769 LINE",
"91.138 -104.769 LINE",
"416.749 824.36 LINE"
);
}
);
width = 449;
}
);
unicode = 2215;
},
{
glyphname = uniFFFD;
layers = (
{
layerId = "8f7a17a9-cad9-4f2d-97d0-d99f506acba0";
paths = (
{
closed = 1;
nodes = (
"78. 600.777 LINE",
"78. 0.072 LINE",
"594.54 0.072 LINE",
"594.54 600.777 LINE"
);
},
{
closed = 1;
nodes = (
"305.068 300.424 LINE",
"129.65 91.68 LINE",
"129.65 509.166 LINE"
);
},
{
closed = 1;
nodes = (
"164.939 549.127 LINE",
"507.6 549.127 LINE",
"336.27 346.409 LINE"
);
},
{
closed = 1;
nodes = (
"336.27 254.438 LINE",
"507.598 51.722 LINE",
"164.942 51.722 LINE"
);
},
{
closed = 1;
nodes = (
"367.471 300.424 LINE",
"542.89 509.166 LINE",
"542.89 91.68 LINE"
);
}
);
width = 673;
}
);
unicode = FFFD;
},
